<svg xmlns="http://www.w3.org/2000/svg" width="100" height="100" viewBox="0 0 100 100">
  <g id="Grupo_80149" data-name="Grupo 80149" transform="translate(-344 -3649)">
    <rect id="Rectángulo_33840" data-name="Rectángulo 33840" width="100" height="100" transform="translate(344 3649)" fill="#def8f8"/>
    <path id="report" d="M105.107,11.663,93.7.333A1.145,1.145,0,0,0,92.9,0H61.859a1.145,1.145,0,0,0-1.145,1.145V57.493a1.145,1.145,0,0,0,1.145,1.145H104.3a1.145,1.145,0,0,0,1.145-1.145V12.475A1.145,1.145,0,0,0,105.107,11.663ZM94.042,3.9l7.48,7.431h-7.48ZM63,56.348V2.291H91.751V12.474A1.145,1.145,0,0,0,92.9,13.62h10.258V56.348Zm6.046-46.316A1.145,1.145,0,0,1,70.2,8.886H86.258a1.145,1.145,0,1,1,0,2.291H70.2A1.145,1.145,0,0,1,69.051,10.031Zm0,5.3A1.145,1.145,0,0,1,70.2,14.186H86.258a1.145,1.145,0,1,1,0,2.291H70.2A1.145,1.145,0,0,1,69.051,15.331Zm3.345,23H68.155a1.145,1.145,0,0,0-1.145,1.145V49.635a1.145,1.145,0,0,0,1.145,1.145H72.4a1.145,1.145,0,0,0,1.145-1.145V39.481A1.145,1.145,0,0,0,72.4,38.336ZM71.251,48.49H69.3V40.626h1.951Zm9.681-13.542H76.691a1.145,1.145,0,0,0-1.145,1.145V49.635a1.145,1.145,0,0,0,1.145,1.145h4.241a1.145,1.145,0,0,0,1.145-1.145V36.093A1.145,1.145,0,0,0,80.932,34.948ZM79.787,48.49H77.836V37.238h1.951Zm9.682-16.93H85.227A1.145,1.145,0,0,0,84.082,32.7v16.93a1.145,1.145,0,0,0,1.145,1.145h4.241a1.145,1.145,0,0,0,1.145-1.145V32.7A1.145,1.145,0,0,0,89.468,31.559ZM88.323,48.49H86.372V33.85h1.951ZM98,28.171H93.763a1.145,1.145,0,0,0-1.145,1.145V49.635a1.145,1.145,0,0,0,1.145,1.145H98a1.145,1.145,0,0,0,1.145-1.145V29.317A1.145,1.145,0,0,0,98,28.171ZM96.859,48.49H94.909V30.462h1.951ZM89.3,20.755A1.145,1.145,0,0,1,90.444,19.6l3.8-.02A1.141,1.141,0,0,1,95.4,20.723l.02,3.8a1.145,1.145,0,0,1-1.139,1.151H94.27a1.145,1.145,0,0,1-1.145-1.139L93.119,23.5c-5.867,5.079-17.311,9.623-22.1,10.284a1.174,1.174,0,0,1-.158.011,1.145,1.145,0,0,1-.155-2.28c4.447-.613,15.377-5.059,20.775-9.628l-1.023.005A1.15,1.15,0,0,1,89.3,20.755Z" transform="translate(311.286 3670)" fill="#ea526f"/>
  </g>
</svg>
