<svg xmlns="http://www.w3.org/2000/svg" xmlns:xlink="http://www.w3.org/1999/xlink" width="150" height="150" viewBox="0 0 150 150">
  <defs>
    <clipPath id="clip-path">
      <path id="path123" d="M0-682.665H105v105H0Z" transform="translate(0 682.665)"/>
    </clipPath>
  </defs>
  <g id="Grupo_893635" data-name="Grupo 893635" transform="translate(-410 -12138)">
    <circle id="Elipse_4712" data-name="Elipse 4712" cx="75" cy="75" r="75" transform="translate(410 12138)" fill="#b3eeef"/>
    <g id="g117" transform="translate(433 12843.665)">
      <g id="g119" transform="translate(0 -682.665)">
        <g id="g121" clip-path="url(#clip-path)">
          <g id="g127" transform="translate(8.061 1.743)">
            <path id="path129" d="M-46.821-119.768l4.459,1.1,4.895-1.1v-6.818a1.71,1.71,0,0,1,1.7-1.7h1.947a3.416,3.416,0,0,0,3.128-2.1h6.871a2.884,2.884,0,0,1-.017-.314,3.8,3.8,0,0,1,3.767-3.816h1.587a5.913,5.913,0,0,1-.058-.849,6.148,6.148,0,0,1,5.534-6.144,4.893,4.893,0,0,0-.506-.023H-42.967a5.549,5.549,0,0,0-5.494,5.573,5.557,5.557,0,0,0,.052.768h-3.523a3.436,3.436,0,0,0-3.4,3.456,3.435,3.435,0,0,0,3.4,3.45h3.407a1.71,1.71,0,0,1,1.7,1.7Z" transform="translate(55.332 141.538)" fill="#ccc" fill-rule="evenodd"/>
          </g>
          <g id="g131" transform="translate(37.51 1.743)">
            <path id="path133" d="M-.064-61.325a3.8,3.8,0,0,0,3.749,3.5H5.325a1.71,1.71,0,0,1,1.7,1.7V-50.7l5.066,1.814L17.376-50.7v-5.416a1.71,1.71,0,0,1,1.7-1.7H21.41a3.774,3.774,0,0,0,3.459-2.321H36.989a6.141,6.141,0,0,0,6.075-6.161,6.138,6.138,0,0,0-6.075-6.167h-25.7c-.18,0-.355.006-.535.023a6.153,6.153,0,0,0-5.54,6.143,5.884,5.884,0,0,0,.058.849H3.685A3.8,3.8,0,0,0-.076-61.639a2.823,2.823,0,0,0,.012.314" transform="translate(0.076 72.472)" fill="#e8e8e8" fill-rule="evenodd"/>
          </g>
          <g id="g135" transform="translate(40.15 25.863)">
            <path id="path137" d="M-91.085-73.359l-1.686-10.984-6.819-2.35-6.36,2.35-1.692,10.984,8.3,2.083Z" transform="translate(107.641 86.693)" fill="#999" fill-rule="evenodd"/>
          </g>
          <g id="g139" transform="translate(40.15 28.214)">
            <path id="path141" d="M-11.577,0h-.413l-1.692,10.984h2.459L-9.531,0Z" transform="translate(13.681)" fill="#525252" fill-rule="evenodd"/>
          </g>
          <g id="g143" transform="translate(40.15 28.214)">
            <path id="path145" d="M0-60.428,1.692-71.412m13.179,0,1.686,10.984" transform="translate(0 71.412)" fill="none" stroke="#000" stroke-linecap="round" stroke-linejoin="round" stroke-miterlimit="10" stroke-width="3.16"/>
          </g>
          <g id="g147" transform="translate(12.752 25.863)">
            <path id="path149" d="M-91.085-73.359l-1.686-10.984-6.819-2.35-6.36,2.35-1.692,10.984,8.3,2.083Z" transform="translate(107.641 86.693)" fill="#999" fill-rule="evenodd"/>
          </g>
          <g id="g151" transform="translate(11.548 23.513)">
            <path id="path153" d="M-99.656,0h-17.265a.854.854,0,0,0-.849.849v3a.854.854,0,0,0,.849.849h17.265a.854.854,0,0,0,.849-.849v-3A.854.854,0,0,0-99.656,0" transform="translate(117.77)" fill="#b3b3b3" fill-rule="evenodd"/>
          </g>
          <g id="g155" transform="translate(38.946 23.513)">
            <path id="path157" d="M0-4.673v3a.854.854,0,0,0,.849.849H18.114a.854.854,0,0,0,.849-.849v-3a.854.854,0,0,0-.849-.849H.849A.854.854,0,0,0,0-4.673" transform="translate(0 5.523)" fill="#b3b3b3" fill-rule="evenodd"/>
          </g>
          <g id="g159" transform="translate(61.938 46.255)">
            <path id="path161" d="M-198-274.649v-48.508a1.417,1.417,0,0,0-1.407-1.414H-230.3l-3.692,25.976,3.692,23.946,17.7,3.694Z" transform="translate(233.991 324.571)" fill="#ccc" fill-rule="evenodd"/>
          </g>
          <g id="g163" transform="translate(74.855 80.306)">
            <path id="path165" d="M0-11.3V2.519H13.841V-11.3A2.055,2.055,0,0,0,11.8-13.352H2.052A2.06,2.06,0,0,0,0-11.3" transform="translate(0 13.352)" fill="#fa6969" fill-rule="evenodd"/>
          </g>
          <g id="g167" transform="translate(72.96 54.359)">
            <path id="path169" d="M-11.289-30.534H2.244A2.055,2.055,0,0,0,4.3-32.582V-34.03a2.06,2.06,0,0,0-2.052-2.053H-11.289a2.06,2.06,0,0,0-2.052,2.053v1.449a2.055,2.055,0,0,0,2.052,2.048" transform="translate(13.341 36.084)" fill="#55b8e6" fill-rule="evenodd"/>
          </g>
          <g id="g171" transform="translate(72.96 66.675)">
            <path id="path173" d="M-85.745,0H-99.278a2.055,2.055,0,0,0-2.052,2.048V3.5A2.06,2.06,0,0,0-99.278,5.55h13.533A2.06,2.06,0,0,0-83.693,3.5V2.048A2.055,2.055,0,0,0-85.745,0" transform="translate(101.33 0)" fill="#55b8e6" fill-rule="evenodd"/>
          </g>
          <g id="g175" transform="translate(5.794 39.198)">
            <path id="path177" d="M-314.83,0h-54.61a2.623,2.623,0,0,0-2.616,2.612V56.979l28.136,3.363,31.7-3.363V2.612A2.619,2.619,0,0,0-314.83,0" transform="translate(372.055)" fill="#e8e8e8" fill-rule="evenodd"/>
          </g>
          <g id="g179" transform="translate(13.897 48.041)">
            <path id="path181" d="M-225.824,0h-38.832a2.219,2.219,0,0,0-2.215,2.217V4.579a2.218,2.218,0,0,0,2.215,2.211h38.832a2.218,2.218,0,0,0,2.215-2.211V2.217A2.219,2.219,0,0,0-225.824,0" transform="translate(266.871)" fill="#55b8e6" fill-rule="evenodd"/>
          </g>
          <g id="g183" transform="translate(13.897 61.328)">
            <path id="path185" d="M-225.824,0h-38.832a2.223,2.223,0,0,0-2.215,2.217V4.579A2.223,2.223,0,0,0-264.656,6.8h38.832a2.223,2.223,0,0,0,2.215-2.217V2.217A2.223,2.223,0,0,0-225.824,0" transform="translate(266.871)" fill="#55b8e6" fill-rule="evenodd"/>
          </g>
          <g id="g187" transform="translate(13.897 75.698)">
            <path id="path189" d="M-225.824,0h-38.832a2.219,2.219,0,0,0-2.215,2.216V4.573a2.219,2.219,0,0,0,2.215,2.216h38.832a2.219,2.219,0,0,0,2.215-2.216V2.216A2.219,2.219,0,0,0-225.824,0" transform="translate(266.871 0)" fill="#55b8e6" fill-rule="evenodd"/>
          </g>
          <g id="g191" transform="translate(13.897 48.041)">
            <path id="path193" d="M-12.185-37.352H-5.8a2.222,2.222,0,0,1-2.215-2.211v-2.362A2.223,2.223,0,0,1-5.8-44.141h-6.389A2.219,2.219,0,0,0-14.4-41.925v2.362a2.218,2.218,0,0,0,2.215,2.211" transform="translate(14.4 44.141)" fill="#6a96d4" fill-rule="evenodd"/>
          </g>
          <g id="g195" transform="translate(13.897 61.328)">
            <path id="path197" d="M-12.185,0A2.223,2.223,0,0,0-14.4,2.217V4.579A2.223,2.223,0,0,0-12.185,6.8H-5.8A2.227,2.227,0,0,1-8.011,4.579V2.217A2.226,2.226,0,0,1-5.8,0Z" transform="translate(14.4)" fill="#6a96d4" fill-rule="evenodd"/>
          </g>
          <g id="g199" transform="translate(13.897 75.698)">
            <path id="path201" d="M-12.185,0A2.219,2.219,0,0,0-14.4,2.216V4.573a2.219,2.219,0,0,0,2.215,2.216H-5.8A2.223,2.223,0,0,1-8.011,4.573V2.216A2.223,2.223,0,0,1-5.8,0Z" transform="translate(14.4 0)" fill="#6a96d4" fill-rule="evenodd"/>
          </g>
          <path id="path203" d="M431.449-381.938h-4.755v49.922h4.755Z" transform="translate(-361.064 428.192)" fill="#b3b3b3" fill-rule="evenodd"/>
          <g id="g205" transform="translate(5.793 39.198)">
            <path id="path207" d="M-31.662-313.474V-367.84a2.622,2.622,0,0,1,1.767-2.473,2.513,2.513,0,0,1,.843-.14H-34.8a2.623,2.623,0,0,0-2.616,2.612v54.367Z" transform="translate(37.417 370.452)" fill="#ccc" fill-rule="evenodd"/>
          </g>
          <g id="g209" transform="translate(1.538 96.177)">
            <path id="path211" d="M-352.6,0h-62.045a2.051,2.051,0,0,0-2.046,2.054V5.027a2.055,2.055,0,0,0,2.046,2.054h97.826a2.06,2.06,0,0,0,2.052-2.054V2.054A2.056,2.056,0,0,0-316.822,0H-352.6Z" transform="translate(416.694)" fill="gray" fill-rule="evenodd"/>
          </g>
          <g id="g213" transform="translate(11.548 23.513)">
            <path id="path215" d="M-13.56-21.189v-3a.849.849,0,0,1,.843-.849h-2.459a.854.854,0,0,0-.849.849v3a.854.854,0,0,0,.849.849h2.459A.87.87,0,0,1-13-20.386a.857.857,0,0,1-.564-.8" transform="translate(16.025 25.04)" fill="#999" fill-rule="evenodd"/>
          </g>
          <g id="g217" transform="translate(12.752 28.214)">
            <path id="path219" d="M-11.577,0h-.413l-1.691,10.984h2.459L-9.531,0Z" transform="translate(13.681)" fill="#525252" fill-rule="evenodd"/>
          </g>
          <g id="g221" transform="translate(38.946 23.513)">
            <path id="path223" d="M-13.56-21.189v-3a.849.849,0,0,1,.843-.849h-2.459a.854.854,0,0,0-.849.849v3a.854.854,0,0,0,.849.849h2.459A.935.935,0,0,1-13-20.386a.86.86,0,0,1-.558-.8" transform="translate(16.025 25.04)" fill="#999" fill-rule="evenodd"/>
          </g>
          <g id="g225" transform="translate(72.96 54.359)">
            <path id="path227" d="M-24.146-19.268v-1.449a2.06,2.06,0,0,1,2.052-2.054h-4.389a2.06,2.06,0,0,0-2.052,2.054v1.449a2.055,2.055,0,0,0,2.052,2.048h4.389a2.055,2.055,0,0,1-2.052-2.048" transform="translate(28.535 22.771)" fill="#6a96d4" fill-rule="evenodd"/>
          </g>
          <g id="g229" transform="translate(72.96 66.675)">
            <path id="path231" d="M-35.436,0h-4.389a2.055,2.055,0,0,0-2.052,2.048V3.5A2.06,2.06,0,0,0-39.825,5.55h4.389A2.06,2.06,0,0,1-37.488,3.5V2.048A2.055,2.055,0,0,1-35.436,0" transform="translate(41.877 0)" fill="#6a96d4" fill-rule="evenodd"/>
          </g>
          <g id="g233" transform="translate(74.855 80.306)">
            <path id="path235" d="M-17.237-87.314v-13.817a2.06,2.06,0,0,1,2.052-2.054h-3.133a2.06,2.06,0,0,0-2.052,2.054v13.817Z" transform="translate(20.371 103.185)" fill="#c92858" fill-rule="evenodd"/>
          </g>
          <g id="g237" transform="translate(1.538 96.176)">
            <path id="path239" d="M-42.6-27.655v-2.973a2.065,2.065,0,0,1,.709-1.553,2.038,2.038,0,0,1,1.343-.5H-48.3a2.051,2.051,0,0,0-2.046,2.054v2.973A2.055,2.055,0,0,0-48.3-25.6h7.749A2.06,2.06,0,0,1-42.6-27.655" transform="translate(50.343 32.681)" fill="#525252" fill-rule="evenodd"/>
          </g>
          <g id="g241" transform="translate(13.897 61.328)">
            <path id="path243" d="M-137.362-37.385h16.079a2.223,2.223,0,0,0,2.215-2.217v-2.362a2.223,2.223,0,0,0-2.215-2.217h-38.832a2.223,2.223,0,0,0-2.215,2.217V-39.6a2.227,2.227,0,0,0,2.215,2.217l15.411.017" transform="translate(162.33 44.18)" fill="none" stroke="#000" stroke-linecap="round" stroke-linejoin="round" stroke-miterlimit="10" stroke-width="3.16"/>
          </g>
          <g id="g245" transform="translate(65.629 46.255)">
            <path id="path247" d="M-177.692-147.1v23.184m-32.3-49.922H-179.1a1.417,1.417,0,0,1,1.407,1.414v17.506" transform="translate(209.99 173.841)" fill="none" stroke="#000" stroke-linecap="round" stroke-linejoin="round" stroke-miterlimit="10" stroke-width="3.16"/>
          </g>
          <g id="g249" transform="translate(1.538 96.177)">
            <path id="path251" d="M-549.452,0h-97.826a2.051,2.051,0,0,0-2.046,2.054V5.027a2.055,2.055,0,0,0,2.046,2.054h97.826A2.06,2.06,0,0,0-547.4,5.027V2.054A2.056,2.056,0,0,0-549.452,0Z" transform="translate(649.324)" fill="none" stroke="#000" stroke-linecap="round" stroke-linejoin="round" stroke-miterlimit="10" stroke-width="3.16"/>
          </g>
          <g id="g253" transform="translate(74.855 80.306)">
            <path id="path255" d="M-64.891,0h-9.743a2.06,2.06,0,0,0-2.052,2.054V15.871h13.841V2.054A2.055,2.055,0,0,0-64.891,0Z" transform="translate(76.686)" fill="none" stroke="#000" stroke-linecap="round" stroke-linejoin="round" stroke-miterlimit="10" stroke-width="3.16"/>
          </g>
          <g id="g257" transform="translate(5.793 39.198)">
            <path id="path259" d="M-329.191-313.474V-367.84a2.619,2.619,0,0,0-2.61-2.612h-54.61a2.623,2.623,0,0,0-2.616,2.612v54.367" transform="translate(389.027 370.452)" fill="none" stroke="#000" stroke-linecap="round" stroke-linejoin="round" stroke-miterlimit="10" stroke-width="3.16"/>
          </g>
          <g id="g261" transform="translate(13.897 48.041)">
            <path id="path263" d="M-225.824,0h-38.832a2.219,2.219,0,0,0-2.215,2.217V4.579a2.218,2.218,0,0,0,2.215,2.211h38.832a2.218,2.218,0,0,0,2.215-2.211V2.217A2.219,2.219,0,0,0-225.824,0Z" transform="translate(266.871)" fill="none" stroke="#000" stroke-linecap="round" stroke-linejoin="round" stroke-miterlimit="10" stroke-width="3.16"/>
          </g>
          <g id="g265" transform="translate(72.96 54.359)">
            <path id="path267" d="M-11.289,0H2.244A2.06,2.06,0,0,1,4.3,2.053V3.5A2.055,2.055,0,0,1,2.244,5.55H-11.289A2.055,2.055,0,0,1-13.341,3.5V2.053A2.06,2.06,0,0,1-11.289,0Z" transform="translate(13.341)" fill="none" stroke="#000" stroke-linecap="round" stroke-linejoin="round" stroke-miterlimit="10" stroke-width="3.16"/>
          </g>
          <g id="g269" transform="translate(72.96 66.675)">
            <path id="path271" d="M-11.289,0H2.244A2.055,2.055,0,0,1,4.3,2.048V3.5A2.06,2.06,0,0,1,2.244,5.55H-11.289A2.06,2.06,0,0,1-13.341,3.5V2.048A2.055,2.055,0,0,1-11.289,0Z" transform="translate(13.341 0)" fill="none" stroke="#000" stroke-linecap="round" stroke-linejoin="round" stroke-miterlimit="10" stroke-width="3.16"/>
          </g>
          <g id="g273" transform="translate(90.138 32.885)">
            <path id="path275" d="M0,0V13.369" fill="none" stroke="#000" stroke-linecap="round" stroke-linejoin="round" stroke-miterlimit="10" stroke-width="3.16"/>
          </g>
          <g id="g277" transform="translate(81.418 37.662)">
            <path id="path279" d="M0,0V8.593" fill="none" stroke="#000" stroke-linecap="round" stroke-linejoin="round" stroke-miterlimit="10" stroke-width="3.16"/>
          </g>
          <g id="g281" transform="translate(13.897 75.698)">
            <path id="path283" d="M-225.824,0h-38.832a2.219,2.219,0,0,0-2.215,2.216V4.573a2.219,2.219,0,0,0,2.215,2.216h38.832a2.219,2.219,0,0,0,2.215-2.216V2.216A2.219,2.219,0,0,0-225.824,0Z" transform="translate(266.871 0)" fill="none" stroke="#000" stroke-linecap="round" stroke-linejoin="round" stroke-miterlimit="10" stroke-width="3.16"/>
          </g>
          <g id="g285" transform="translate(37.511 1.743)">
            <path id="path287" d="M-62.524,0h25.7a6.138,6.138,0,0,1,6.075,6.167,6.141,6.141,0,0,1-6.075,6.161H-48.944A3.774,3.774,0,0,1-52.4,14.649h-2.331a1.71,1.71,0,0,0-1.7,1.7V21.77H-66.785V16.354a1.71,1.71,0,0,0-1.7-1.7h-1.639a3.8,3.8,0,0,1-3.761-3.817,3.8,3.8,0,0,1,3.761-3.816h1.587a5.884,5.884,0,0,1-.058-.849A6.138,6.138,0,0,1-62.524,0Z" transform="translate(73.889)" fill="none" stroke="#000" stroke-linecap="round" stroke-linejoin="round" stroke-miterlimit="10" stroke-width="3.16"/>
          </g>
          <g id="g289" transform="translate(8.061 1.743)">
            <path id="path291" d="M-162.085-61.325H-166.9a3.415,3.415,0,0,1-3.127,2.1h-1.947a1.71,1.71,0,0,0-1.7,1.7V-50.7h-9.353V-57.52a1.71,1.71,0,0,0-1.7-1.7h-3.407a3.435,3.435,0,0,1-3.4-3.45v-.006a3.435,3.435,0,0,1,3.4-3.45h3.523a5.553,5.553,0,0,1-.052-.768,5.549,5.549,0,0,1,5.494-5.573h27.4a4.948,4.948,0,0,1,.512.023" transform="translate(191.546 72.472)" fill="none" stroke="#000" stroke-linecap="round" stroke-linejoin="round" stroke-miterlimit="10" stroke-width="3.16"/>
          </g>
          <g id="g293" transform="translate(11.548 23.513)">
            <path id="path295" d="M-99.656,0h-17.265a.854.854,0,0,0-.849.849v3a.854.854,0,0,0,.849.849h17.265a.854.854,0,0,0,.849-.849v-3A.854.854,0,0,0-99.656,0Z" transform="translate(117.77)" fill="none" stroke="#000" stroke-linecap="round" stroke-linejoin="round" stroke-miterlimit="10" stroke-width="3.16"/>
          </g>
          <g id="g297" transform="translate(38.946 23.513)">
            <path id="path299" d="M-99.656,0h-17.265a.854.854,0,0,0-.849.849v3a.854.854,0,0,0,.849.849h17.265a.854.854,0,0,0,.849-.849v-3A.854.854,0,0,0-99.656,0Z" transform="translate(117.77)" fill="none" stroke="#000" stroke-linecap="round" stroke-linejoin="round" stroke-miterlimit="10" stroke-width="3.16"/>
          </g>
          <g id="g301" transform="translate(12.752 28.214)">
            <path id="path303" d="M0-60.428,1.692-71.412m13.179,0,1.686,10.984" transform="translate(0 71.412)" fill="none" stroke="#000" stroke-linecap="round" stroke-linejoin="round" stroke-miterlimit="10" stroke-width="3.16"/>
          </g>
        </g>
      </g>
    </g>
  </g>
</svg>
