<svg xmlns="http://www.w3.org/2000/svg" width="150" height="150" viewBox="0 0 150 150">
  <g id="Grupo_893634" data-name="Grupo 893634" transform="translate(-1040 -12138)">
    <circle id="Elipse_4832" data-name="Elipse 4832" cx="75" cy="75" r="75" transform="translate(1040 12138)" fill="#b3eeef"/>
    <g id="tiempo-de-trabajo" transform="translate(1062.501 12160)">
      <g id="Grupo_893623" data-name="Grupo 893623" transform="translate(2.07 1.572)">
        <path id="Trazado_705909" data-name="Trazado 705909" d="M19.719,57.63,14.049,63.3a3.022,3.022,0,0,0,0,4.263l2.31,2.311a24.5,24.5,0,0,0-1.964,4.891H11.069A3.021,3.021,0,0,0,8.055,77.78V85.8a3.021,3.021,0,0,0,3.014,3.014h3.448a25.015,25.015,0,0,0,1.989,4.739l-2.457,2.457a3.029,3.029,0,0,0,0,4.269l5.671,5.665a3.023,3.023,0,0,0,4.264,0l2.457-2.456a24.535,24.535,0,0,0,4.744,1.988v3.454A3.025,3.025,0,0,0,34.2,111.94h8.017a3.029,3.029,0,0,0,3.014-3.014V105.6a24.859,24.859,0,0,0,4.891-1.971l2.3,2.31a3.03,3.03,0,0,0,4.27,0l5.665-5.665a3.029,3.029,0,0,0,0-4.269l-2.182-2.182a24.976,24.976,0,0,0,2.14-5.014h3.027A3.024,3.024,0,0,0,68.36,85.8V77.78a3.025,3.025,0,0,0-3.014-3.014h-2.9A24.949,24.949,0,0,0,60.331,69.6l2.029-2.035a3.023,3.023,0,0,0,0-4.264L56.695,57.63a3.03,3.03,0,0,0-4.27,0L50.4,59.665a24.938,24.938,0,0,0-5.166-2.117v-2.9a3.024,3.024,0,0,0-3.014-3.014H34.2a3.021,3.021,0,0,0-3.014,3.014v3.027a24.557,24.557,0,0,0-5.014,2.14L23.983,57.63a3.023,3.023,0,0,0-4.264,0ZM38.2,74.179a7.609,7.609,0,1,0,7.612,7.606A7.609,7.609,0,0,0,38.2,74.179Zm0,0" transform="translate(-8.055 -42.471)" fill="#b3b3b3" fill-rule="evenodd"/>
        <path id="Trazado_705910" data-name="Trazado 705910" d="M95.386,154.1A15.136,15.136,0,1,0,80.25,138.963,15.132,15.132,0,0,0,95.386,154.1Zm0-22.742A7.609,7.609,0,1,0,103,138.964,7.609,7.609,0,0,0,95.386,131.358Zm0,0" transform="translate(-65.237 -99.794)" fill="#999" fill-rule="evenodd"/>
        <path id="Trazado_705911" data-name="Trazado 705911" d="M19.784,99.479A27.856,27.856,0,0,1,30.8,77.27a24.849,24.849,0,0,0-4.627,2.023l-2.188-2.188a3.023,3.023,0,0,0-4.264,0l-5.671,5.671a3.022,3.022,0,0,0,0,4.263l2.31,2.311a24.5,24.5,0,0,0-1.964,4.891H11.069a3.021,3.021,0,0,0-3.014,3.014v8.017a3.021,3.021,0,0,0,3.014,3.014h3.448a25.015,25.015,0,0,0,1.989,4.739l-2.457,2.457a3.029,3.029,0,0,0,0,4.269l5.671,5.665a3.023,3.023,0,0,0,4.264,0l2.457-2.456a24.535,24.535,0,0,0,4.744,1.988V128.4a3.025,3.025,0,0,0,3.014,3.014h8.017A3.025,3.025,0,0,0,45.23,128.4v-1.138A27.89,27.89,0,0,1,19.784,99.479Zm0,0" transform="translate(-8.055 -61.947)" fill="#999" fill-rule="evenodd"/>
        <path id="Trazado_705912" data-name="Trazado 705912" d="M148.148,231.262l-.37,8.2a3.093,3.093,0,0,0,2.944,3.231l3.343.153a25.716,25.716,0,0,0,1.889,5.061l-2.516,2.293a3.1,3.1,0,0,0-.194,4.369l5.536,6.064a3.106,3.106,0,0,0,4.369.2l2.609-2.381a25.378,25.378,0,0,0,4.78,2.211l-.158,3.56a3.1,3.1,0,0,0,2.945,3.226l8.21.375a3.1,3.1,0,0,0,3.226-2.949l.164-3.56a25.154,25.154,0,0,0,4.962-1.771l2.387,2.616a3.1,3.1,0,0,0,4.363.2l6.07-5.542a3.1,3.1,0,0,0,.193-4.369l-2.293-2.51a25.277,25.277,0,0,0,2.339-4.873l3.343.152a3.091,3.091,0,0,0,3.225-2.944l.376-8.21a3.1,3.1,0,0,0-2.95-3.226l-3.161-.141a25.448,25.448,0,0,0-1.842-5.278l2.287-2.088a3.105,3.105,0,0,0,.2-4.369l-5.542-6.064a3.092,3.092,0,0,0-4.363-.2l-2.193,2a25.079,25.079,0,0,0-5.173-2.445l.135-2.944a3.1,3.1,0,0,0-2.949-3.226l-8.2-.375a3.1,3.1,0,0,0-3.231,2.949l-.129,2.938a25.54,25.54,0,0,0-5.378,1.971l-2-2.193a3.1,3.1,0,0,0-4.364-.2l-6.07,5.542a3.1,3.1,0,0,0-.2,4.363l2.088,2.293a25.357,25.357,0,0,0-2.31,5.084l-3.167-.147a3.1,3.1,0,0,0-3.225,2.95Zm25.428-.252a7.8,7.8,0,1,0,11.013.5A7.8,7.8,0,0,0,173.577,231.01Zm0,0" transform="translate(-119.152 -164.938)" fill="#e8e8e8" fill-rule="evenodd"/>
        <path id="Trazado_705913" data-name="Trazado 705913" d="M248.5,307.431a15.513,15.513,0,1,0-21.916-1,15.511,15.511,0,0,0,21.916,1Zm-15.717-17.212a7.8,7.8,0,1,0,11.013.5,7.8,7.8,0,0,0-11.013-.5Zm0,0" transform="translate(-178.201 -224.053)" fill="#999" fill-rule="evenodd"/>
        <path id="Trazado_705914" data-name="Trazado 705914" d="M163.654,316.8a28.53,28.53,0,0,1-7.008-24.413,25.3,25.3,0,0,0-2.106,4.727l-3.167-.147a3.1,3.1,0,0,0-3.225,2.95l-.37,8.2a3.093,3.093,0,0,0,2.944,3.231l3.343.153a25.535,25.535,0,0,0,1.889,5.055l-2.516,2.3a3.1,3.1,0,0,0-.194,4.369l5.536,6.064a3.107,3.107,0,0,0,4.369.2l2.609-2.387a25.4,25.4,0,0,0,4.78,2.216l-.158,3.56a3.1,3.1,0,0,0,2.945,3.226l8.21.375a3.1,3.1,0,0,0,3.226-2.95l.164-3.56a25.206,25.206,0,0,0,4.962-1.772l2.387,2.616a3.1,3.1,0,0,0,4.363.2l6.07-5.542a3.1,3.1,0,0,0,.193-4.369l-.786-.856a28.589,28.589,0,0,1-38.46-3.448Zm0,0" transform="translate(-118.991 -233.592)" fill="#ccc" fill-rule="evenodd"/>
        <path id="Trazado_705915" data-name="Trazado 705915" d="M277.927,59.077a25.759,25.759,0,1,0-25.763-25.756A25.759,25.759,0,0,0,277.927,59.077Zm0,0" transform="translate(-201.833 -7.559)" fill="#55b8e6" fill-rule="evenodd"/>
        <path id="Trazado_705916" data-name="Trazado 705916" d="M306.676,80.259a18.218,18.218,0,1,0-18.215-18.214A18.218,18.218,0,0,0,306.676,80.259Zm0,0" transform="translate(-230.582 -36.283)" fill="#e8e8e8" fill-rule="evenodd"/>
        <path id="Trazado_705917" data-name="Trazado 705917" d="M294.5,62.045a18.183,18.183,0,0,1,15.2-17.969,18.218,18.218,0,1,0,0,35.931,17.9,17.9,0,0,1-3.02-.774A18.224,18.224,0,0,1,294.5,62.045Zm0,0" transform="translate(-230.461 -36.283)" fill="#ccc" fill-rule="evenodd"/>
        <path id="Trazado_705918" data-name="Trazado 705918" d="M256.628,32.829A25.77,25.77,0,0,1,276.35,7.782a25.762,25.762,0,1,0,7.454,50.8,1.671,1.671,0,0,1,.164-.041c-.065.006-.129.006-.188.012q-.7.035-1.39.035a25.808,25.808,0,0,1-7.038-.974c-.762-.217-1.513-.463-2.246-.751a23.654,23.654,0,0,1-2.339-1.044c-.311-.153-.621-.317-.927-.487a25.911,25.911,0,0,1-7.419-6.228c-.246-.3-.487-.61-.715-.921a25.642,25.642,0,0,1-5.079-15.358Zm0,0" transform="translate(-201.712 -7.736)" fill="#507fcf" fill-rule="evenodd"/>
      </g>
      <path id="Trazado_705919" data-name="Trazado 705919" d="M119.933,152.667a9.181,9.181,0,1,0,7.334,8.991,9.191,9.191,0,0,0-7.334-8.991ZM118.084,167.7a6.037,6.037,0,1,1,6.04-6.04A6.044,6.044,0,0,1,118.084,167.7Zm0,0" transform="translate(-85.976 -120.929)"/>
      <path id="Trazado_705920" data-name="Trazado 705920" d="M105.5,27.222a27.008,27.008,0,0,0-2.814-12.065,1.565,1.565,0,0,0-2.806,1.387A24.1,24.1,0,0,1,81.416,51.1a24.54,24.54,0,0,1-3.139.2,24.089,24.089,0,1,1,17.61-40.527,1.565,1.565,0,1,0,2.288-2.137A27.222,27.222,0,0,0,53.049,17l-1.438-1.44a4.584,4.584,0,0,0-6.467,0l-1.209,1.213a26.348,26.348,0,0,0-3.283-1.345V13.7a4.573,4.573,0,0,0-4.568-4.567H28.1A4.573,4.573,0,0,0,23.533,13.7v1.877a26.078,26.078,0,0,0-3.142,1.342l-1.358-1.358a4.573,4.573,0,0,0-6.459,0L6.927,21.2a4.574,4.574,0,0,0,0,6.459l1.5,1.5a26.168,26.168,0,0,0-1.207,3H5.066A4.572,4.572,0,0,0,.5,36.73v7.983a4.572,4.572,0,0,0,4.567,4.568h2.3a26.44,26.44,0,0,0,1.2,2.857L6.927,53.775a4.583,4.583,0,0,0,0,6.466l5.648,5.641a4.572,4.572,0,0,0,6.46,0l1.637-1.637a26.1,26.1,0,0,0,2.864,1.2v2.3A4.572,4.572,0,0,0,28.1,72.315h1.51l-.176,3.837A4.653,4.653,0,0,0,33.865,81l2.2.1a27.278,27.278,0,0,0,1.174,3.15l-1.654,1.508a4.651,4.651,0,0,0-.292,6.56l5.516,6.042a4.657,4.657,0,0,0,6.561.3l1.76-1.609a26.985,26.985,0,0,0,2.929,1.357l-.107,2.4a4.647,4.647,0,0,0,4.424,4.847l8.178.374c.07,0,.142,0,.212,0A4.653,4.653,0,0,0,69.4,101.6l.11-2.4a26.574,26.574,0,0,0,3.041-1.086l1.61,1.764a4.65,4.65,0,0,0,6.558.3l6.043-5.518a4.652,4.652,0,0,0,.294-6.563l-1.5-1.646a27.009,27.009,0,0,0,1.456-3.036l2.193.1a4.645,4.645,0,0,0,4.851-4.424l.374-8.178A4.646,4.646,0,0,0,90,66.068l-1.993-.089a26.986,26.986,0,0,0-1.171-3.353l1.441-1.316a4.657,4.657,0,0,0,.3-6.561l-1.589-1.739A27.265,27.265,0,0,0,105.5,27.222ZM28.1,69.185a1.456,1.456,0,0,1-1.437-1.437v-3.44a1.565,1.565,0,0,0-1.116-1.5,22.87,22.87,0,0,1-4.422-1.853,1.565,1.565,0,0,0-1.86.265L16.82,63.669a1.438,1.438,0,0,1-2.033,0L9.139,58.027a1.453,1.453,0,0,1,0-2.039l2.447-2.446a1.565,1.565,0,0,0,.266-1.858A23.393,23.393,0,0,1,10,47.261a1.565,1.565,0,0,0-1.5-1.11H5.066a1.439,1.439,0,0,1-1.437-1.438V36.73a1.439,1.439,0,0,1,1.437-1.438H8.378a1.564,1.564,0,0,0,1.506-1.141,22.9,22.9,0,0,1,1.832-4.559,1.565,1.565,0,0,0-.275-1.842l-2.3-2.3a1.445,1.445,0,0,1,0-2.032l5.648-5.648a1.439,1.439,0,0,1,2.033,0L19,19.948a1.567,1.567,0,0,0,1.875.256,22.951,22.951,0,0,1,4.674-2,1.566,1.566,0,0,0,1.117-1.5V13.7A1.438,1.438,0,0,1,28.1,12.259h7.984A1.456,1.456,0,0,1,37.523,13.7v2.886a1.565,1.565,0,0,0,1.137,1.506,23.141,23.141,0,0,1,4.818,1.974,1.564,1.564,0,0,0,1.863-.266l2.02-2.025a1.45,1.45,0,0,1,2.037,0l2.545,2.549a27.191,27.191,0,0,0,3.8,22.164,4.673,4.673,0,0,0-1.286,2.993l-.078,1.78a27.187,27.187,0,0,0-3.466,1.268l-1.212-1.329a4.587,4.587,0,0,0-1.82-1.222A16.619,16.619,0,1,0,35.731,56.96,4.611,4.611,0,0,0,36.8,58.967l1.316,1.446a26.971,26.971,0,0,0-1.471,3.23l-1.994-.093a4.653,4.653,0,0,0-4.846,4.43l-.055,1.2Zm9-16.774A4.607,4.607,0,0,0,36.17,53.6a13.5,13.5,0,1,1,8.344-7.57,4.64,4.64,0,0,0-1.366.86Zm46.474,1.514,2.682,2.934a1.521,1.521,0,0,1-.1,2.141l-2.277,2.079a1.566,1.566,0,0,0-.357,1.832,23.753,23.753,0,0,1,1.721,4.932A1.564,1.564,0,0,0,86.7,69.055l3.153.14A1.53,1.53,0,0,1,91.3,70.772l-.374,8.178A1.5,1.5,0,0,1,90.429,80a1.481,1.481,0,0,1-1.083.392l-3.329-.151a1.566,1.566,0,0,0-1.547,1.041,23.706,23.706,0,0,1-2.186,4.551,1.565,1.565,0,0,0,.176,1.879l2.283,2.5a1.511,1.511,0,0,1,.394,1.1,1.49,1.49,0,0,1-.486,1.045l-6.043,5.518a1.521,1.521,0,0,1-2.135-.1l-2.378-2.6a1.564,1.564,0,0,0-1.833-.356,23.582,23.582,0,0,1-4.632,1.654,1.564,1.564,0,0,0-1.195,1.449l-.164,3.547a1.522,1.522,0,0,1-1.577,1.445l-8.178-.374a1.531,1.531,0,0,1-1.439-1.579l.158-3.546a1.563,1.563,0,0,0-1.052-1.548,23.77,23.77,0,0,1-4.466-2.071,1.567,1.567,0,0,0-1.861.188l-2.6,2.375a1.522,1.522,0,0,1-2.141-.1L37.6,90.211a1.522,1.522,0,0,1,.093-2.137L40.2,85.79a1.564,1.564,0,0,0,.346-1.854A24.163,24.163,0,0,1,38.78,79.2a1.566,1.566,0,0,0-1.444-1.173l-3.331-.151a1.525,1.525,0,0,1-1.444-1.583l.374-8.172a1.523,1.523,0,0,1,1.577-1.444l3.153.146a1.567,1.567,0,0,0,1.561-1.077A23.767,23.767,0,0,1,41.384,61a1.565,1.565,0,0,0-.188-1.853l-2.08-2.284a1.521,1.521,0,0,1,.1-2.136l6.044-5.518a1.522,1.522,0,0,1,2.134.1l1.992,2.184a1.564,1.564,0,0,0,1.858.345,23.973,23.973,0,0,1,5.027-1.841,1.565,1.565,0,0,0,1.191-1.451l.128-2.92a1.5,1.5,0,0,1,.142-.562,27.169,27.169,0,0,0,20.547,9.383,27.448,27.448,0,0,0,3.477-.221c.612-.078,1.221-.175,1.825-.293Zm0,0"/>
      <path id="Trazado_705921" data-name="Trazado 705921" d="M255.6,312.062c-.042.034-.085.066-.128.1l-.051.045c-.1.085-.2.171-.3.262q-.346.317-.657.661l-.025.029c-.094.106-.187.212-.275.321s-.162.2-.239.308l-.044.055c-.062.085-.121.171-.18.258-.027.039-.056.077-.082.117-.156.235-.3.476-.432.722-.011.021-.024.041-.035.062-.036.068-.068.137-.1.206s-.068.133-.1.2q-.184.395-.331.806c0,.012-.01.024-.014.037-.03.084-.055.168-.083.252-.02.061-.041.121-.059.183-.063.209-.115.422-.163.635-.052.235-.1.471-.133.711-.01.068-.016.136-.024.2-.029.24-.052.481-.063.724a9.375,9.375,0,0,0,15.679,7.347c.119-.109.235-.22.348-.333a9.368,9.368,0,0,0-12.5-13.912Zm10.432,3.125a6.226,6.226,0,1,1-9.2,8.4,6.176,6.176,0,0,1-1.619-3.859q-.016-.308,0-.619a6.178,6.178,0,0,1,2.023-4.313h0a6.178,6.178,0,0,1,4.192-1.629c.1,0,.192,0,.288.006a6.179,6.179,0,0,1,4.313,2.019Zm0,0" transform="translate(-199.51 -245.87)"/>
      <path id="Trazado_705922" data-name="Trazado 705922" d="M243.628,277.427a1.572,1.572,0,1,0-2.143,2.3c.317.295.616.594.9.9a13.942,13.942,0,1,1-6.324-3.963,1.571,1.571,0,1,0,.894-3.013,17.078,17.078,0,1,0,6.653,28.992A17.083,17.083,0,0,0,244.7,278.5c-.348-.374-.7-.724-1.07-1.07Zm0,0" transform="translate(-170.177 -216.627)"/>
      <path id="Trazado_705923" data-name="Trazado 705923" d="M300.69,36.266a19.789,19.789,0,1,0,19.786,19.793A19.813,19.813,0,0,0,300.69,36.266Zm1.571,36.359v-.669a1.571,1.571,0,0,0-3.143,0v.669a16.67,16.67,0,0,1-15-15h.669a1.571,1.571,0,1,0,0-3.143h-.669a16.673,16.673,0,0,1,15-15v.675a1.571,1.571,0,0,0,3.143,0v-.675a16.673,16.673,0,0,1,15,15h-.669a1.571,1.571,0,1,0,0,3.143h.669A16.669,16.669,0,0,1,302.261,72.625Zm0,0" transform="translate(-222.525 -28.724)"/>
      <path id="Trazado_705924" data-name="Trazado 705924" d="M350.211,86.434a1.572,1.572,0,0,0-1.572,1.572v8.861H345a1.571,1.571,0,1,0,0,3.143h5.213a1.572,1.572,0,0,0,1.572-1.572V88.005a1.573,1.573,0,0,0-1.572-1.572Zm0,0" transform="translate(-271.932 -68.544)"/>
    </g>
  </g>
</svg>
