<svg xmlns="http://www.w3.org/2000/svg" width="100" height="100" viewBox="0 0 100 100">
  <g id="Grupo_893629" data-name="Grupo 893629" transform="translate(-7525 -902)">
    <circle id="Elipse_4835" data-name="Elipse 4835" cx="50" cy="50" r="50" transform="translate(7525 902)" fill="#ffd6c5"/>
    <g id="Delivery_Courier" data-name="Delivery Courier" transform="translate(7543 920)">
      <path id="Trazado_113728" data-name="Trazado 113728" d="M14,41a1,1,0,0,0,1-1,4.117,4.117,0,0,1,3.123-4l3.51-.878,4.6,5.518a1,1,0,0,0,.724.359H27a1,1,0,0,0,.707-.293L30,38.414V46a1,1,0,0,0,2,0V38.414l2.293,2.293A1,1,0,0,0,35,41h.045a1,1,0,0,0,.724-.359l4.6-5.518,3.51.878A4.117,4.117,0,0,1,47,40v2a1,1,0,0,0,2,0V40a6.114,6.114,0,0,0-4.639-5.94l-3.924-.981L37,30.5v-3.52a10.046,10.046,0,0,0,3.167-4A4.978,4.978,0,0,0,44.134,15.2a2.926,2.926,0,0,0,.506-.653h0a2.958,2.958,0,0,0-1.557-4.166c-.4-.159-.794-.3-1.192-.447l-.008-.078a10.937,10.937,0,0,0-21.768,0l-.008.079c-.4.143-.8.288-1.192.447a2.932,2.932,0,0,0-1.057,4.83,4.978,4.978,0,0,0,3.974,7.771,10.046,10.046,0,0,0,3.167,4V30.5l-3.438,2.578-3.924.981A6.114,6.114,0,0,0,13,40a1,1,0,0,0,1,1Zm20.933-2.481L32.414,36l3.68-3.68,2.464,1.848ZM43,18a3.019,3.019,0,0,1-2.181,2.868A9.991,9.991,0,0,0,41,19V16.016a3.228,3.228,0,0,0,1.31.094A2.976,2.976,0,0,1,43,18ZM31,2a8.9,8.9,0,0,1,8.777,7.258,32,32,0,0,0-17.554,0A8.9,8.9,0,0,1,31,2ZM19.662,12.238a30.011,30.011,0,0,1,22.676,0,.959.959,0,0,1,.549,1.35,1.181,1.181,0,0,1-1.478.471,27.354,27.354,0,0,0-20.818,0,1.182,1.182,0,0,1-1.478-.471.959.959,0,0,1,.549-1.35ZM19,18a2.973,2.973,0,0,1,.708-1.91,3.241,3.241,0,0,0,.431.056,3.22,3.22,0,0,0,.86-.132V19a9.994,9.994,0,0,0,.181,1.868A3.022,3.022,0,0,1,19,18Zm4,1V15.311a25.092,25.092,0,0,1,16,0V19a8,8,0,0,1-16,0Zm8,10a9.935,9.935,0,0,0,4-.841v2.427l-4,4-4-4V28.159A9.934,9.934,0,0,0,31,29Zm-5.094,3.32L29.586,36l-2.519,2.519-3.625-4.35Z" fill="#ea526f"/>
      <path id="Trazado_113729" data-name="Trazado 113729" d="M20,45H18.816A3,3,0,0,0,16,43H12a3,3,0,0,0-2.816,2H8a3,3,0,0,0-3,3V61a3,3,0,0,0,3,3H20a3,3,0,0,0,3-3V48a3,3,0,0,0-3-3Zm-8,0h4a1,1,0,0,1,0,2H12a1,1,0,0,1,0-2Zm9,16a1,1,0,0,1-1,1H8a1,1,0,0,1-1-1V48a1,1,0,0,1,1-1H9.184A3,3,0,0,0,12,49h4a3,3,0,0,0,2.816-2H20a1,1,0,0,1,1,1Z" fill="#ea526f"/>
      <path id="Trazado_113730" data-name="Trazado 113730" d="M13.293,50.293,11,52.586,9.707,51.293a1,1,0,1,0-1.414,1.414l2,2a1,1,0,0,0,1.414,0l3-3a1,1,0,1,0-1.414-1.414Z" fill="#ea526f"/>
      <path id="Trazado_113731" data-name="Trazado 113731" d="M13.293,56.293,11,58.586,9.707,57.293a1,1,0,1,0-1.414,1.414l2,2a1,1,0,0,0,1.414,0l3-3a1,1,0,1,0-1.414-1.414Z" fill="#ea526f"/>
      <path id="Trazado_113732" data-name="Trazado 113732" d="M19,52H17a1,1,0,0,0,0,2h2a1,1,0,0,0,0-2Z" fill="#ea526f"/>
      <path id="Trazado_113733" data-name="Trazado 113733" d="M19,58H17a1,1,0,0,0,0,2h2a1,1,0,0,0,0-2Z" fill="#ea526f"/>
      <path id="Trazado_113734" data-name="Trazado 113734" d="M55,45H41a4,4,0,0,0-4,4V60a4,4,0,0,0,4,4H55a4,4,0,0,0,4-4V49a4,4,0,0,0-4-4Zm-9,2h4v5H46ZM57,60a2,2,0,0,1-2,2H41a2,2,0,0,1-2-2V49a2,2,0,0,1,2-2h3v6a1,1,0,0,0,1,1h6a1,1,0,0,0,1-1V47h3a2,2,0,0,1,2,2Z" fill="#ea526f"/>
      <path id="Trazado_113735" data-name="Trazado 113735" d="M35,62H26a1,1,0,0,0,0,2h9a1,1,0,0,0,0-2Z" fill="#ea526f"/>
      <path id="Trazado_113736" data-name="Trazado 113736" d="M34,19a1,1,0,0,0,1-1V17a1,1,0,0,0-2,0v1a1,1,0,0,0,1,1Z" fill="#ea526f"/>
      <path id="Trazado_113737" data-name="Trazado 113737" d="M28,19a1,1,0,0,0,1-1V17a1,1,0,0,0-2,0v1a1,1,0,0,0,1,1Z" fill="#ea526f"/>
      <path id="Trazado_113738" data-name="Trazado 113738" d="M28.293,21.293a1,1,0,0,0,0,1.414,3.832,3.832,0,0,0,5.414,0,1,1,0,0,0-1.414-1.414,1.831,1.831,0,0,1-2.586,0,1,1,0,0,0-1.414,0Z" fill="#ea526f"/>
    </g>
  </g>
</svg>
