<svg xmlns="http://www.w3.org/2000/svg" width="100" height="100" viewBox="0 0 100 100">
  <g id="Grupo_893630" data-name="Grupo 893630" transform="translate(-7525 -1353)">
    <circle id="Elipse_4836" data-name="Elipse 4836" cx="50" cy="50" r="50" transform="translate(7525 1353)" fill="#ffd6c5"/>
    <g id="Add_Clipboard" data-name="Add Clipboard" transform="translate(7540 1367)">
      <path id="Trazado_113699" data-name="Trazado 113699" d="M42.878,65.556H10.556a3.337,3.337,0,0,1-3.333-3.333V10a3.337,3.337,0,0,1,3.333-3.333h5.556V8.889H10.556A1.11,1.11,0,0,0,9.444,10V62.222a1.11,1.11,0,0,0,1.111,1.111H41.711a1.111,1.111,0,0,0,0-2.222H11.667v-50h4.444v2.222a1.11,1.11,0,0,0,1.111,1.111H43.889A1.11,1.11,0,0,0,45,13.333V11.111h4.444V48.545a1.111,1.111,0,0,0,2.222,0V10a1.11,1.11,0,0,0-1.111-1.111H45V6.667h5.556A3.337,3.337,0,0,1,53.889,10V47.778a1.111,1.111,0,0,0,2.222,0V10a5.562,5.562,0,0,0-5.556-5.556H40.131L38.216.614A1.112,1.112,0,0,0,37.222,0H23.889A1.112,1.112,0,0,0,22.9.614L20.98,4.444H10.556A5.562,5.562,0,0,0,5,10V62.222a5.562,5.562,0,0,0,5.556,5.556H42.878a1.111,1.111,0,1,0,0-2.222ZM21.667,6.667a1.112,1.112,0,0,0,.994-.614l1.915-3.83h11.96l1.915,3.83a1.112,1.112,0,0,0,.994.614h3.333v5.556H18.333V6.667Z" transform="translate(0)" fill="#ea526f"/>
      <path id="Trazado_113700" data-name="Trazado 113700" d="M30.778,27.222V18.333A3.337,3.337,0,0,0,27.444,15H16.333A3.337,3.337,0,0,0,13,18.333v8.889a3.337,3.337,0,0,0,3.333,3.333H27.444A3.337,3.337,0,0,0,30.778,27.222ZM23,17.222v3.333H20.778V17.222Zm-7.778,10V18.333a1.112,1.112,0,0,1,1.111-1.111h2.222v4.444a1.11,1.11,0,0,0,1.111,1.111h4.444a1.11,1.11,0,0,0,1.111-1.111V17.222h2.222a1.112,1.112,0,0,1,1.111,1.111v8.889a1.112,1.112,0,0,1-1.111,1.111H16.333A1.112,1.112,0,0,1,15.222,27.222Z" transform="translate(0.889 1.667)" fill="#ea526f"/>
      <path id="Trazado_113701" data-name="Trazado 113701" d="M21.563,31.326a1.111,1.111,0,0,0-1.571,0l-3.659,3.659L14.9,33.548a1.111,1.111,0,0,0-1.571,1.571l2.222,2.222a1.111,1.111,0,0,0,1.571,0L21.563,32.9a1.111,1.111,0,0,0,0-1.571Z" transform="translate(0.889 3.444)" fill="#ea526f"/>
      <path id="Trazado_113702" data-name="Trazado 113702" d="M44.111,31h-20a1.111,1.111,0,0,0,0,2.222h20a1.111,1.111,0,0,0,0-2.222Z" transform="translate(2 3.444)" fill="#ea526f"/>
      <path id="Trazado_113703" data-name="Trazado 113703" d="M24.111,37.222H38.556a1.111,1.111,0,1,0,0-2.222H24.111a1.111,1.111,0,0,0,0,2.222Z" transform="translate(2 3.889)" fill="#ea526f"/>
      <path id="Trazado_113704" data-name="Trazado 113704" d="M42.333,35H40.111a1.111,1.111,0,1,0,0,2.222h2.222a1.111,1.111,0,0,0,0-2.222Z" transform="translate(3.778 3.889)" fill="#ea526f"/>
      <path id="Trazado_113705" data-name="Trazado 113705" d="M44.111,39h-20a1.111,1.111,0,1,0,0,2.222h20a1.111,1.111,0,1,0,0-2.222Z" transform="translate(2 4.333)" fill="#ea526f"/>
      <path id="Trazado_113706" data-name="Trazado 113706" d="M24.111,43a1.111,1.111,0,0,0,0,2.222H38.556a1.111,1.111,0,1,0,0-2.222Z" transform="translate(2 4.778)" fill="#ea526f"/>
      <path id="Trazado_113707" data-name="Trazado 113707" d="M42.333,43H40.111a1.111,1.111,0,1,0,0,2.222h2.222a1.111,1.111,0,0,0,0-2.222Z" transform="translate(3.778 4.778)" fill="#ea526f"/>
      <path id="Trazado_113708" data-name="Trazado 113708" d="M41.889,47H24.111a1.111,1.111,0,0,0,0,2.222H41.889a1.111,1.111,0,0,0,0-2.222Z" transform="translate(2 5.222)" fill="#ea526f"/>
      <path id="Trazado_113709" data-name="Trazado 113709" d="M38.556,53.222a1.111,1.111,0,1,0,0-2.222H24.111a1.111,1.111,0,0,0,0,2.222Z" transform="translate(2 5.667)" fill="#ea526f"/>
      <path id="Trazado_113710" data-name="Trazado 113710" d="M43.222,23H32.111a1.111,1.111,0,0,0,0,2.222H43.222a1.111,1.111,0,0,0,0-2.222Z" transform="translate(2.889 2.556)" fill="#ea526f"/>
      <path id="Trazado_113711" data-name="Trazado 113711" d="M43.222,27H32.111a1.111,1.111,0,0,0,0,2.222H43.222a1.111,1.111,0,0,0,0-2.222Z" transform="translate(2.889 3)" fill="#ea526f"/>
      <path id="Trazado_113712" data-name="Trazado 113712" d="M43.222,15H32.111a1.111,1.111,0,1,0,0,2.222H43.222a1.111,1.111,0,1,0,0-2.222Z" transform="translate(2.889 1.667)" fill="#ea526f"/>
      <path id="Trazado_113713" data-name="Trazado 113713" d="M43.222,19H32.111a1.111,1.111,0,0,0,0,2.222H43.222a1.111,1.111,0,0,0,0-2.222Z" transform="translate(2.889 2.111)" fill="#ea526f"/>
      <path id="Trazado_113714" data-name="Trazado 113714" d="M21.563,39.326a1.111,1.111,0,0,0-1.571,0l-3.659,3.659L14.9,41.548a1.111,1.111,0,1,0-1.571,1.571l2.222,2.222a1.111,1.111,0,0,0,1.571,0L21.563,40.9A1.111,1.111,0,0,0,21.563,39.326Z" transform="translate(0.889 4.333)" fill="#ea526f"/>
      <path id="Trazado_113715" data-name="Trazado 113715" d="M19.992,47.326l-3.659,3.659L14.9,49.548a1.111,1.111,0,1,0-1.571,1.571l2.222,2.222a1.111,1.111,0,0,0,1.571,0L21.563,48.9a1.111,1.111,0,1,0-1.571-1.571Z" transform="translate(0.889 5.222)" fill="#ea526f"/>
      <path id="Trazado_113716" data-name="Trazado 113716" d="M51,46A10,10,0,1,0,61,56,10,10,0,0,0,51,46Zm0,17.778A7.778,7.778,0,1,1,58.778,56,7.778,7.778,0,0,1,51,63.778Z" transform="translate(4 5.111)" fill="#ea526f"/>
      <path id="Trazado_113717" data-name="Trazado 113717" d="M52.748,52.576l-3.1,3.1L48.1,54.132A1.111,1.111,0,0,0,46.526,55.7l2.333,2.333a1.111,1.111,0,0,0,1.571,0l3.889-3.889a1.111,1.111,0,1,0-1.571-1.571Z" transform="translate(4.578 5.806)" fill="#ea526f"/>
      <path id="Trazado_113718" data-name="Trazado 113718" d="M24.111,8.222H33A1.111,1.111,0,0,0,33,6H24.111a1.111,1.111,0,0,0,0,2.222Z" transform="translate(2 0.667)" fill="#ea526f"/>
    </g>
  </g>
</svg>
