<svg xmlns="http://www.w3.org/2000/svg" width="100" height="100" viewBox="0 0 100 100">
  <g id="Grupo_893633" data-name="Grupo 893633" transform="translate(-6735 -1812)">
    <circle id="Elipse_4839" data-name="Elipse 4839" cx="50" cy="50" r="50" transform="translate(6735 1812)" fill="#ffd6c5"/>
    <path id="_016-planning" data-name="016-planning" d="M112.222,3.447H101.443V1.181A1.181,1.181,0,0,0,100.263,0h-17.8a1.181,1.181,0,0,0-1.181,1.181V3.447H70.5a1.181,1.181,0,0,0-1.181,1.181V59.271A1.181,1.181,0,0,0,70.5,60.451h41.72a1.181,1.181,0,0,0,1.181-1.181V4.628a1.181,1.181,0,0,0-1.181-1.181ZM83.642,2.361h15.44V6.893H83.642Zm27.4,55.728H71.682V5.808h9.6V8.074a1.181,1.181,0,0,0,1.181,1.181h17.8a1.181,1.181,0,0,0,1.181-1.181V5.808h9.6ZM100.877,19.181V17.586A1.886,1.886,0,0,0,98.994,15.7H83.788A1.886,1.886,0,0,0,81.9,17.586v1.594H77.942a1.181,1.181,0,0,0-1.181,1.181v13.59a1.181,1.181,0,0,0,1.181,1.181H81.9v1.595a1.886,1.886,0,0,0,1.883,1.883H98.993a1.886,1.886,0,0,0,1.883-1.883V35.132h2.553V46.361h-2.553V44.767a1.886,1.886,0,0,0-1.883-1.884H83.788A1.886,1.886,0,0,0,81.9,44.767v1.594H77.942a1.181,1.181,0,1,0,0,2.361H81.9v1.595A1.886,1.886,0,0,0,83.788,52.2H98.993a1.886,1.886,0,0,0,1.883-1.883V48.723h3.734a1.181,1.181,0,0,0,1.181-1.181V33.952a1.181,1.181,0,0,0-1.181-1.181h-3.734V31.177a1.886,1.886,0,0,0-1.883-1.884H83.788A1.886,1.886,0,0,0,81.9,31.177v1.595H79.123V21.542H81.9v1.594a1.886,1.886,0,0,0,1.883,1.884H98.993a1.886,1.886,0,0,0,1.883-1.884V21.542h3.905a1.181,1.181,0,0,0,0-2.361ZM98.516,49.839H84.266V45.245h14.25v4.595ZM84.266,31.654h14.25v4.595H84.266Zm14.25-9H84.266V18.064h14.25v4.595Z" transform="translate(6693.638 1831.774)" fill="#ea526f"/>
  </g>
</svg>
