<svg xmlns="http://www.w3.org/2000/svg" width="100" height="100" viewBox="0 0 100 100">
  <g id="Grupo_80153" data-name="Grupo 80153" transform="translate(-344 -4169)">
    <rect id="Rectángulo_33844" data-name="Rectángulo 33844" width="100" height="100" transform="translate(344 4169)" fill="#def8f8"/>
    <path id="growth" d="M13.735,16.53a1.014,1.014,0,0,1,.159-1.425L25.232,6.037a1.013,1.013,0,0,1,1.111-.1L39.375,12.9,52.4,2.269,49.71,2.022A1.014,1.014,0,1,1,49.9,0l5.24.482a1.014,1.014,0,0,1,.881,1.289L54.541,6.911a1.014,1.014,0,0,1-1.949-.56l.61-2.123L40.134,14.9a1.014,1.014,0,0,1-1.119.109L25.977,8.037,15.16,16.688a1.014,1.014,0,0,1-1.425-.159ZM20.11,28.494V50.888A1.014,1.014,0,0,1,19.1,51.9H10.552a1.014,1.014,0,0,1-1.014-1.014V28.494a1.014,1.014,0,0,1,1.014-1.014H19.1A1.014,1.014,0,0,1,20.11,28.494Zm-2.027,1.014H11.565V49.874h6.517ZM33.243,17.88V50.888A1.014,1.014,0,0,1,32.229,51.9H23.684a1.014,1.014,0,0,1-1.014-1.014V17.88a1.014,1.014,0,0,1,1.014-1.014h8.545a1.014,1.014,0,0,1,1.014,1.014Zm-2.027,1.014H24.7v30.98h6.517Zm15.16,4.113V50.888A1.014,1.014,0,0,1,45.361,51.9H36.816A1.014,1.014,0,0,1,35.8,50.888V23.007a1.014,1.014,0,0,1,1.014-1.014h8.545A1.014,1.014,0,0,1,46.375,23.007Zm-2.027,1.014H37.83V49.874h6.517Zm15.16-11.852V50.888A1.014,1.014,0,0,1,58.493,51.9H49.948a1.014,1.014,0,0,1-1.014-1.014V12.169a1.014,1.014,0,0,1,1.014-1.014h8.545A1.014,1.014,0,0,1,59.507,12.169Zm-2.027,1.014H50.962V49.874h6.517Z" transform="translate(359.462 4193.001)" fill="#ea526f"/>
  </g>
</svg>
