<svg xmlns="http://www.w3.org/2000/svg" width="100" height="100" viewBox="0 0 100 100">
  <g id="Grupo_80157" data-name="Grupo 80157" transform="translate(-344 -4689)">
    <rect id="Rectángulo_33848" data-name="Rectángulo 33848" width="100" height="100" transform="translate(344 4689)" fill="#def8f8"/>
    <path id="invoice" d="M102.235,2.645h-8.27V.906A.906.906,0,0,0,93.059,0H79.4A.906.906,0,0,0,78.5.906V2.645h-8.27a.906.906,0,0,0-.906.906V45.472a.906.906,0,0,0,.906.906h32.008a.906.906,0,0,0,.906-.906V3.55a.906.906,0,0,0-.906-.906ZM80.308,1.812H92.154V5.289H80.308Zm21.021,42.755h-30.2V4.456H78.5V6.194A.906.906,0,0,0,79.4,7.1H93.059a.906.906,0,0,0,.906-.906V4.456h7.364ZM79.862,33.2H75.74a.906.906,0,0,0-.906.906v4.123a.906.906,0,0,0,.906.906h4.123a.906.906,0,0,0,.906-.906V34.11A.906.906,0,0,0,79.862,33.2Zm-.906,4.122H76.646V35.016h2.311Zm18.671.414a.906.906,0,0,1-.906.906H84.84a.906.906,0,1,1,0-1.812H96.722A.906.906,0,0,1,97.628,37.74ZM84.84,33.7H96.722a.906.906,0,0,1,0,1.812H84.84a.906.906,0,1,1,0-1.812ZM82.9,17.527a3.122,3.122,0,0,1,2.406-2.949l-.013-.526a.906.906,0,0,1,1.811-.043l.013.56a3.389,3.389,0,0,1,1.426.753.906.906,0,1,1-1.207,1.351,1.657,1.657,0,0,0-1.11-.4,1.407,1.407,0,0,0-1.516,1.257,1.407,1.407,0,0,0,1.516,1.257,3.21,3.21,0,0,1,3.328,3.069,3.122,3.122,0,0,1-2.4,2.949l.011.446a.906.906,0,0,1-.884.927h-.022a.906.906,0,0,1-.905-.884l-.011-.472a3.85,3.85,0,0,1-1.76-1.075.906.906,0,0,1,1.243-1.318,1.778,1.778,0,0,0,1.405.683,1.407,1.407,0,0,0,1.516-1.257A1.407,1.407,0,0,0,86.231,20.6,3.21,3.21,0,0,1,82.9,17.527Zm3.328,11.618a9.495,9.495,0,1,0-9.495-9.495A9.505,9.505,0,0,0,86.231,29.145Zm0-17.178a7.683,7.683,0,1,1-7.683,7.683,7.692,7.692,0,0,1,7.683-7.683Z" transform="translate(307.679 4716)" fill="#ea526f"/>
  </g>
</svg>
