<svg xmlns="http://www.w3.org/2000/svg" width="100" height="100" viewBox="0 0 100 100">
  <g id="Grupo_80200" data-name="Grupo 80200" transform="translate(-750 -3622)">
    <circle id="Elipse_4712" data-name="Elipse 4712" cx="50" cy="50" r="50" transform="translate(750 3622)" fill="#b3eeef"/>
    <g id="Package_Warehouse" data-name="Package Warehouse" transform="translate(770 3641.813)">
      <path id="Trazado_113782" data-name="Trazado 113782" d="M49.8,27.178a.938.938,0,0,0,1.151,0c.359-.28,8.8-6.935,8.8-14.8a9.375,9.375,0,0,0-18.75,0C41,20.243,49.44,26.9,49.8,27.178Zm.575-22.3a7.509,7.509,0,0,1,7.5,7.5c0,5.842-5.654,11.235-7.5,12.841-1.848-1.6-7.5-6.988-7.5-12.841a7.509,7.509,0,0,1,7.5-7.5Z" transform="translate(-2.563)" fill="#ea526f"/>
      <path id="Trazado_113783" data-name="Trazado 113783" d="M55.375,12.688a4.688,4.688,0,1,0-4.687,4.688A4.687,4.687,0,0,0,55.375,12.688Zm-7.5,0A2.813,2.813,0,1,1,50.688,15.5,2.813,2.813,0,0,1,47.875,12.688Z" transform="translate(-2.875 -0.313)" fill="#ea526f"/>
      <path id="Trazado_113784" data-name="Trazado 113784" d="M46.938,31a.938.938,0,0,0,0,1.875h7.5a.938.938,0,0,0,0-1.875Z" transform="translate(-2.875 -1.75)" fill="#ea526f"/>
      <path id="Trazado_113785" data-name="Trazado 113785" d="M59.063,33.313H35.625V8.938A.938.938,0,0,0,34.688,8H8.438a.937.937,0,0,0-.937.938v18.75H.938A.937.937,0,0,0,0,28.625V56.75a.938.938,0,0,0,.938.938H59.063A.938.938,0,0,0,60,56.75V34.25A.938.938,0,0,0,59.063,33.313ZM46.875,35.188v7.5H41.25v-7.5ZM24.375,9.875v6.563H18.75V9.875Zm-15,0h7.5v7.5a.938.938,0,0,0,.938.938h7.5a.938.938,0,0,0,.938-.937v-7.5h7.5V33.313H30V28.625a.938.938,0,0,0-.937-.937H9.375Zm2.813,19.688h5.625v7.5H12.188Zm-10.312,0h8.438V38a.938.938,0,0,0,.938.938h7.5A.938.938,0,0,0,19.688,38V29.563h8.438v26.25H1.875Zm56.25,26.25H30V35.188h9.375v8.438a.938.938,0,0,0,.938.938h7.5a.938.938,0,0,0,.938-.937V35.188h9.375Z" transform="translate(0 -0.312)" fill="#ea526f"/>
    </g>
  </g>
</svg>
