<svg xmlns="http://www.w3.org/2000/svg" width="100" height="100" viewBox="0 0 100 100">
  <g id="Grupo_80202" data-name="Grupo 80202" transform="translate(3872 8078)">
    <circle id="Elipse_4712" data-name="Elipse 4712" cx="50" cy="50" r="50" transform="translate(-3872 -8078)" fill="#b3eeef"/>
    <g id="Tracking_Pack" data-name="Tracking Pack" transform="translate(-3852 -8058)">
      <path id="Trazado_113814" data-name="Trazado 113814" d="M34.5,16.75a3.75,3.75,0,1,0-3.75,3.75,3.75,3.75,0,0,0,3.75-3.75Zm-5.625,0a1.875,1.875,0,1,1,1.875,1.875,1.875,1.875,0,0,1-1.875-1.875Z" transform="translate(-1.687 -0.812)" fill="#ea526f"/>
      <path id="Trazado_113815" data-name="Trazado 113815" d="M29.82,28.393a.936.936,0,0,0,1.234,0c.32-.279,7.82-6.9,7.82-11.955a8.438,8.438,0,0,0-16.875,0C22,21.492,29.5,28.114,29.82,28.393Zm.617-18.518A6.57,6.57,0,0,1,37,16.438c0,3.174-4.284,7.846-6.563,9.983-2.28-2.135-6.563-6.805-6.563-9.983a6.57,6.57,0,0,1,6.563-6.563Z" transform="translate(-1.375 -0.5)" fill="#ea526f"/>
      <path id="Trazado_113816" data-name="Trazado 113816" d="M59.063,0H32.813A2.816,2.816,0,0,0,30,2.813V4.688a.938.938,0,0,0,1.875,0V2.813a.938.938,0,0,1,.938-.938h7.5v8.438a.937.937,0,0,0,.938.938h9.375a.937.937,0,0,0,.938-.938V1.875h7.5A.938.938,0,0,1,60,2.813v22.5a.938.938,0,0,1-.938.938H46.875a.938.938,0,0,0,0,1.875H59.063a2.816,2.816,0,0,0,2.813-2.813V2.813A2.816,2.816,0,0,0,59.063,0ZM49.688,9.375h-7.5v-7.5h7.5Z" transform="translate(-1.875)" fill="#ea526f"/>
      <path id="Trazado_113817" data-name="Trazado 113817" d="M37.339,23.391a.937.937,0,0,0-.047,1.325,11.25,11.25,0,1,1-16.459,0,.937.937,0,0,0-1.371-1.278,13.113,13.113,0,0,0-2.479,14.074l-3.858,3.858-1.212-1.212a.937.937,0,0,0-1.326,0L2.217,48.529a7.567,7.567,0,1,0,10.7,10.7l8.371-8.371a.937.937,0,0,0,0-1.326l-1.212-1.212,3.857-3.858A13.122,13.122,0,0,0,38.664,23.439a.938.938,0,0,0-1.325-.047ZM11.592,57.9a5.692,5.692,0,1,1-8.049-8.049l7.708-7.708L19.3,50.2ZM18.75,47l-4.3-4.3L17.9,39.249a13.2,13.2,0,0,0,4.3,4.3Z" transform="translate(0 -1.446)" fill="#ea526f"/>
      <path id="Trazado_113818" data-name="Trazado 113818" d="M24.328,26.652a.936.936,0,0,0-1.317.154,9.375,9.375,0,1,0,14.727,0,.937.937,0,0,0-1.47,1.163,7.382,7.382,0,0,1,1.607,4.622,7.5,7.5,0,0,1-15,0,7.382,7.382,0,0,1,1.607-4.622.937.937,0,0,0-.154-1.317Z" transform="translate(-1.312 -1.653)" fill="#ea526f"/>
      <path id="Trazado_113819" data-name="Trazado 113819" d="M36.563,32.938a.938.938,0,1,0-1.875,0,3.754,3.754,0,0,1-3.75,3.75.938.938,0,0,0,0,1.875,5.631,5.631,0,0,0,5.625-5.625Z" transform="translate(-1.875 -2)" fill="#ea526f"/>
      <path id="Trazado_113820" data-name="Trazado 113820" d="M9.246,57.375a1.987,1.987,0,0,1-2.745,0A.938.938,0,1,0,5.174,58.7a3.816,3.816,0,0,0,5.4,0,.937.937,0,1,0-1.326-1.326Z" transform="translate(-0.306 -3.569)" fill="#ea526f"/>
    </g>
  </g>
</svg>
