<svg xmlns="http://www.w3.org/2000/svg" width="100" height="100" viewBox="0 0 100 100">
  <g id="Grupo_80199" data-name="Grupo 80199" transform="translate(-354 -3622)">
    <circle id="Elipse_4711" data-name="Elipse 4711" cx="50" cy="50" r="50" transform="translate(354 3622)" fill="#b3eeef"/>
    <g id="Stock_Logistics" data-name="Stock Logistics" transform="translate(374 3642)">
      <path id="Trazado_113828" data-name="Trazado 113828" d="M59.063,18.75A.938.938,0,0,0,60,17.813v-3.75a.938.938,0,0,0-.937-.937H56.25V.938A.938.938,0,0,0,55.313,0h-3.75a.938.938,0,0,0-.937.938V13.125H47.64a2.779,2.779,0,0,0,.173-.937V6.563A2.816,2.816,0,0,0,45,3.75H37.5a2.791,2.791,0,0,0-1.875.732A2.791,2.791,0,0,0,33.75,3.75h-7.5a2.791,2.791,0,0,0-1.875.732A2.791,2.791,0,0,0,22.5,3.75H15a2.816,2.816,0,0,0-2.812,2.813v5.625a2.78,2.78,0,0,0,.173.937H9.375V.938A.937.937,0,0,0,8.438,0H4.688A.938.938,0,0,0,3.75.938V13.125H.938A.937.937,0,0,0,0,14.063v3.75a.938.938,0,0,0,.938.938H3.75V30.938H.938A.937.937,0,0,0,0,31.875v3.75a.938.938,0,0,0,.938.938H3.75V48.75H.938A.938.938,0,0,0,0,49.688v3.75a.938.938,0,0,0,.938.938H3.75v3.75H.938A.938.938,0,0,0,.938,60H59.063a.938.938,0,0,0,0-1.875H56.25v-3.75h2.813A.938.938,0,0,0,60,53.438v-3.75a.938.938,0,0,0-.937-.937H56.25V36.563h2.813A.938.938,0,0,0,60,35.625v-3.75a.938.938,0,0,0-.937-.937H56.25V18.75ZM58.125,15v1.875H56.25V15ZM14.063,30V24.375A.939.939,0,0,1,15,23.438h.938V26.25a.938.938,0,0,0,.938.938h3.75a.938.938,0,0,0,.938-.937V23.438H22.5a.939.939,0,0,1,.938.938V30a.939.939,0,0,1-.937.938H15A.939.939,0,0,1,14.063,30Zm5.625-6.562v1.875H17.813V23.438Zm11.25,0v1.875H29.063V23.438Zm-2.812,3.75h3.75a.938.938,0,0,0,.938-.937V23.438h.938a.939.939,0,0,1,.938.938V30a.939.939,0,0,1-.937.938h-7.5A.939.939,0,0,1,25.313,30V24.375a.939.939,0,0,1,.938-.937h.938V26.25A.938.938,0,0,0,28.125,27.188Zm14.063-3.75v1.875H40.313V23.438Zm-2.812,3.75h3.75a.938.938,0,0,0,.938-.937V23.438H45a.939.939,0,0,1,.938.938V30a.939.939,0,0,1-.937.938H37.5A.939.939,0,0,1,36.562,30V24.375a.939.939,0,0,1,.938-.937h.938V26.25A.938.938,0,0,0,39.375,27.188Zm11.25,5.625v1.875H9.375V32.813ZM37.5,48.75a.939.939,0,0,1-.938-.938V42.188a.939.939,0,0,1,.938-.937h.938v2.813a.938.938,0,0,0,.938.938h3.75a.938.938,0,0,0,.938-.937V41.25H45a.939.939,0,0,1,.938.938v5.625A.939.939,0,0,1,45,48.75Zm-11.25,0a.939.939,0,0,1-.937-.938V42.188a.939.939,0,0,1,.938-.937h.938v2.813a.938.938,0,0,0,.938.938h3.75a.938.938,0,0,0,.938-.937V41.25h.938a.939.939,0,0,1,.938.938v5.625a.939.939,0,0,1-.937.938ZM15,48.75a.939.939,0,0,1-.937-.938V42.188A.939.939,0,0,1,15,41.25h.938v2.813a.938.938,0,0,0,.938.938h3.75a.938.938,0,0,0,.938-.937V41.25H22.5a.939.939,0,0,1,.938.938v5.625a.939.939,0,0,1-.937.938Zm4.688-7.5v1.875H17.813V41.25Zm11.25,0v1.875H29.063V41.25Zm11.25,0v1.875H40.313V41.25ZM45,39.375H37.5a2.791,2.791,0,0,0-1.875.731,2.791,2.791,0,0,0-1.875-.732h-7.5a2.791,2.791,0,0,0-1.875.732,2.791,2.791,0,0,0-1.875-.732H15a2.816,2.816,0,0,0-2.812,2.813v5.625a2.779,2.779,0,0,0,.173.938H9.375V36.563h41.25V48.75H47.64a2.779,2.779,0,0,0,.173-.937V42.188A2.816,2.816,0,0,0,45,39.375ZM9.375,50.625h41.25V52.5H9.375Zm41.25-19.687H47.64A2.779,2.779,0,0,0,47.812,30V24.375A2.816,2.816,0,0,0,45,21.563H37.5a2.791,2.791,0,0,0-1.875.732,2.791,2.791,0,0,0-1.875-.732h-7.5a2.791,2.791,0,0,0-1.875.732,2.791,2.791,0,0,0-1.875-.732H15a2.816,2.816,0,0,0-2.812,2.813V30a2.78,2.78,0,0,0,.173.938H9.375V18.75h41.25ZM9.375,54.375h41.25v3.75H9.375ZM40.313,5.625h1.875V7.5H40.313Zm-2.812,0h.938V8.438a.938.938,0,0,0,.938.938h3.75a.938.938,0,0,0,.938-.937V5.625H45a.939.939,0,0,1,.938.938v5.625a.939.939,0,0,1-.937.938H37.5a.939.939,0,0,1-.938-.937V6.563A.939.939,0,0,1,37.5,5.625Zm-8.437,0h1.875V7.5H29.063Zm-2.812,0h.938V8.438a.938.938,0,0,0,.938.938h3.75a.938.938,0,0,0,.938-.937V5.625h.938a.939.939,0,0,1,.938.938v5.625a.939.939,0,0,1-.937.938h-7.5a.939.939,0,0,1-.937-.937V6.563A.939.939,0,0,1,26.25,5.625Zm-8.437,0h1.875V7.5H17.813Zm-3.75,6.563V6.563A.939.939,0,0,1,15,5.625h.938V8.438a.938.938,0,0,0,.938.938h3.75a.938.938,0,0,0,.938-.937V5.625H22.5a.939.939,0,0,1,.938.938v5.625a.939.939,0,0,1-.937.938H15A.939.939,0,0,1,14.063,12.188ZM50.625,15v1.875H9.375V15ZM1.875,16.875V15H3.75v1.875Zm0,17.813V32.813H3.75v1.875Zm0,17.813V50.625H3.75V52.5Zm3.75-34.687V1.875H7.5v56.25H5.625ZM52.5,58.125V1.875h1.875v56.25Zm5.625-7.5V52.5H56.25V50.625Zm0-17.812v1.875H56.25V32.813Z" fill="#ea526f"/>
    </g>
  </g>
</svg>
