<svg xmlns="http://www.w3.org/2000/svg" width="55.461" height="70.064" viewBox="0 0 55.461 70.064">
  <path id="_022-award" data-name="022-award" d="M101.071,46.935a27.731,27.731,0,1,0-39.97,0l-7.16,12.4A1.369,1.369,0,0,0,55.4,61.362l9.5-1.918,3.089,9.186a1.369,1.369,0,0,0,1.161.925c.046,0,.091.007.136.007a1.369,1.369,0,0,0,1.185-.684L78.3,55.321a27.918,27.918,0,0,0,5.582,0L91.994,69.38a1.369,1.369,0,0,0,1.185.684c.045,0,.091,0,.136-.007a1.368,1.368,0,0,0,1.161-.925l3.089-9.186,9.5,1.917a1.369,1.369,0,0,0,1.456-2.026ZM69.614,64.885l-2.508-7.456a1.369,1.369,0,0,0-1.568-.905L57.827,58.08l5.323-9.219a27.655,27.655,0,0,0,12.245,6.012ZM56.093,27.731A24.994,24.994,0,1,1,81.087,52.724,25.022,25.022,0,0,1,56.093,27.731ZM96.924,57.024a1.369,1.369,0,0,0-1.568.905l-2.508,7.456-6.07-10.513A27.655,27.655,0,0,0,99.023,48.86l5.612,9.72ZM94.917,23.909a1.909,1.909,0,0,1-1.349-3.256,2.341,2.341,0,0,0,0-3.31l-2.093-2.093a2.341,2.341,0,0,0-3.311,0A1.909,1.909,0,0,1,84.907,13.9a2.343,2.343,0,0,0-2.341-2.341h-2.96A2.343,2.343,0,0,0,77.266,13.9a1.909,1.909,0,0,1-3.256,1.349,2.341,2.341,0,0,0-3.311,0l-2.093,2.093a2.341,2.341,0,0,0,0,3.31,1.909,1.909,0,0,1-1.349,3.256,2.343,2.343,0,0,0-2.341,2.341v2.96a2.343,2.343,0,0,0,2.341,2.341,1.909,1.909,0,0,1,1.349,3.256,2.341,2.341,0,0,0,0,3.311L70.7,40.212a2.341,2.341,0,0,0,3.311,0,1.908,1.908,0,0,1,3.256,1.349A2.343,2.343,0,0,0,79.606,43.9h2.96a2.343,2.343,0,0,0,2.341-2.341,1.909,1.909,0,0,1,3.257-1.349,2.344,2.344,0,0,0,3.311,0l2.093-2.093a2.341,2.341,0,0,0,0-3.31,1.909,1.909,0,0,1,1.349-3.257,2.343,2.343,0,0,0,2.341-2.341V26.25a2.343,2.343,0,0,0-2.341-2.341Zm-.4,4.921a4.649,4.649,0,0,0-3.157,7.622l-1.556,1.556a4.649,4.649,0,0,0-7.622,3.157h-2.2a4.646,4.646,0,0,0-7.622-3.157l-1.556-1.556a4.649,4.649,0,0,0-3.157-7.622v-2.2a4.649,4.649,0,0,0,3.157-7.621l1.556-1.556A4.649,4.649,0,0,0,79.987,14.3h2.2a4.649,4.649,0,0,0,7.622,3.157l1.556,1.556a4.649,4.649,0,0,0,3.157,7.622v2.2ZM81.087,20.161a7.569,7.569,0,1,0,7.569,7.569,7.578,7.578,0,0,0-7.569-7.569Zm0,12.4a4.832,4.832,0,1,1,4.832-4.832,4.838,4.838,0,0,1-4.832,4.832Zm0-27.367A22.534,22.534,0,1,0,103.621,27.73,22.56,22.56,0,0,0,81.087,5.2Zm0,42.331a19.8,19.8,0,1,1,19.8-19.8,19.82,19.82,0,0,1-19.8,19.8Z" transform="translate(-53.356)" fill="#ea526f"/>
</svg>
