<svg xmlns="http://www.w3.org/2000/svg" width="60" height="75.468" viewBox="0 0 60 75.468">
  <g id="Layer_1" transform="translate(-11 -5)">
    <g id="Grupo_893584" data-name="Grupo 893584" transform="translate(11 5)">
      <path id="Trazado_705875" data-name="Trazado 705875" d="M63.959,5H32.1a7.049,7.049,0,0,0-7.041,7.041v30.8L11.7,50.662a1.4,1.4,0,0,0-.7,1.213V65.9a6.074,6.074,0,0,0,3.281,5.406l17.294,9a1.406,1.406,0,0,0,1.3,0l2.36-1.243h28.72A7.049,7.049,0,0,0,71,72.022V12.041A7.049,7.049,0,0,0,63.959,5ZM56.173,7.813l-1.125,2.813h-13.1L40.827,7.813ZM33.5,76.8V65.669l6.563-3.46v4.48a1.407,1.407,0,0,0,2.063,1.244l4.688-2.474a1.408,1.408,0,0,0,.75-1.244V58.255l2.813-1.483v9.151a3.275,3.275,0,0,1-1.75,2.9Zm9.375-16.074,1.875-.989v3.63l-1.875.989Zm-1.827-2.215L22.007,47.884l1.941-1.136L43.092,57.432Zm9.327-4.918-4.316,2.275L26.765,45.1l4.877-2.855L50.375,52.7ZM19.191,49.533,38.08,60.076l-6.343,3.345-17.924-8.9V52.681ZM13.813,65.9V57.66L30.688,66.04V76.678L15.58,68.816A3.273,3.273,0,0,1,13.813,65.9Zm54.375,6.117a4.233,4.233,0,0,1-4.228,4.228H40.573l9.364-4.938a6.079,6.079,0,0,0,3.251-5.39V51.875a1.407,1.407,0,0,0-.721-1.228L32.31,39.4a1.405,1.405,0,0,0-1.4.014L27.875,41.19V12.041A4.233,4.233,0,0,1,32.1,7.812h5.7c.007.018.008.036.015.053l1.875,4.688A1.408,1.408,0,0,0,41,13.437H56a1.408,1.408,0,0,0,1.306-.884l1.875-4.688c.007-.018.008-.036.015-.053h4.763a4.233,4.233,0,0,1,4.228,4.228Z" transform="translate(-11 -5)" fill="#ea526f"/>
      <path id="Trazado_705876" data-name="Trazado 705876" d="M42.412,19.412,38.25,23.574,36.9,22.225a1.406,1.406,0,1,0-1.988,1.988l2.344,2.344a1.408,1.408,0,0,0,1.989,0L44.4,21.4a1.407,1.407,0,0,0-1.99-1.989Z" transform="translate(-12.469 -5.875)" fill="#ea526f"/>
      <path id="Trazado_705877" data-name="Trazado 705877" d="M49.406,22.813h6.563a1.406,1.406,0,0,0,0-2.813H49.406a1.406,1.406,0,0,0,0,2.813Z" transform="translate(-13.312 -5.937)" fill="#ea526f"/>
      <path id="Trazado_705878" data-name="Trazado 705878" d="M60.656,25H49.406a1.406,1.406,0,0,0,0,2.813h11.25a1.406,1.406,0,0,0,0-2.812Z" transform="translate(-13.312 -6.25)" fill="#ea526f"/>
      <path id="Trazado_705879" data-name="Trazado 705879" d="M42.412,32.912,38.25,37.074,36.9,35.725a1.406,1.406,0,1,0-1.988,1.988l2.344,2.344a1.407,1.407,0,0,0,1.988,0L44.4,34.9a1.407,1.407,0,0,0-1.989-1.989Z" transform="translate(-12.469 -6.719)" fill="#ea526f"/>
      <path id="Trazado_705880" data-name="Trazado 705880" d="M49.406,36.813h6.563a1.406,1.406,0,0,0,0-2.812H49.406a1.406,1.406,0,0,0,0,2.813Z" transform="translate(-13.312 -6.812)" fill="#ea526f"/>
      <path id="Trazado_705881" data-name="Trazado 705881" d="M60.656,39H49.406a1.406,1.406,0,0,0,0,2.813h11.25a1.406,1.406,0,0,0,0-2.812Z" transform="translate(-13.312 -7.125)" fill="#ea526f"/>
    </g>
  </g>
</svg>
