<svg xmlns="http://www.w3.org/2000/svg" width="100" height="100" viewBox="0 0 100 100">
  <g id="Grupo_893626" data-name="Grupo 893626" transform="translate(-1146 -12593)">
    <circle id="Elipse_4713" data-name="Elipse 4713" cx="50" cy="50" r="50" transform="translate(1146 12593)" fill="#ffd6c5"/>
    <g id="Outline" transform="translate(1166 12613)">
      <path id="Trazado_113902" data-name="Trazado 113902" d="M80,384h2v2H80Z" transform="translate(-72.009 -337.992)" fill="#ea526f"/>
      <path id="Trazado_113903" data-name="Trazado 113903" d="M192,384h2v2h-2Z" transform="translate(-170.006 -337.992)" fill="#ea526f"/>
      <path id="Trazado_113904" data-name="Trazado 113904" d="M304,384h2v2h-2Z" transform="translate(-268.004 -337.992)" fill="#ea526f"/>
      <path id="Trazado_113905" data-name="Trazado 113905" d="M416,384h2v2h-2Z" transform="translate(-366.002 -337.992)" fill="#ea526f"/>
      <path id="Trazado_113906" data-name="Trazado 113906" d="M95.008,352H53a5,5,0,0,0,0,10H95.008a5,5,0,1,0,0-10ZM64,357a3,3,0,1,1,3,3A3,3,0,0,1,64,357Zm-1,3H57a4.99,4.99,0,0,0,0-6h6.007A4.99,4.99,0,0,0,63.005,360Zm8-6h6.007a4.99,4.99,0,0,0,0,6H71A4.99,4.99,0,0,0,71,354Zm7,3a3,3,0,1,1,3,3A3,3,0,0,1,78,357Zm7-3H91.01a4.99,4.99,0,0,0,0,6H85A4.99,4.99,0,0,0,85,354Zm-35,3a3,3,0,1,1,3,3A3,3,0,0,1,50,357Zm45.007,3a3,3,0,1,1,3-3A3,3,0,0,1,95.008,360Z" transform="translate(-44.009 -309.993)" fill="#ea526f"/>
      <path id="Trazado_113907" data-name="Trazado 113907" d="M76.08,181.988a9.012,9.012,0,0,0-9-9h-1v-9h1a1,1,0,0,0,1-1v-4a1,1,0,0,0-1-1H64.54a4,4,0,0,0-6.464-4.642,4,4,0,0,0-6.463,4.642H49.075a1,1,0,0,0-1,1v4a1,1,0,0,0,1,1h1v9h-8v-9h1a1,1,0,0,0,1-1v-4a1,1,0,0,0-1-1H40.536a4,4,0,0,0-6.464-4.642,4,4,0,0,0-6.463,4.642H25.071a1,1,0,0,0-1,1v4a1,1,0,0,0,1,1h1v9h-1a9,9,0,0,0-1,17.946v4.058h2v-4H66.078v4h2v-4.058A9.014,9.014,0,0,0,76.08,181.988Zm-10-20h-5v-2h5Zm-7-2v2h-2v-2Zm2-6a2,2,0,0,1,0,4h-2v-2A2,2,0,0,1,61.077,153.984Zm-8,2a2,2,0,1,1,4,0v2h-2a2,2,0,0,1-2-2Zm-3,4h5v2h-5Zm2,4h3v6h2v-6h2v4h2v-4h3v9h-12Zm-10-2h-5v-2h5Zm-7-2v2h-2v-2Zm2-6a2,2,0,1,1,0,4h-2v-2A2,2,0,0,1,37.073,153.984Zm-8,2a2,2,0,1,1,4,0v2h-2A2,2,0,0,1,29.072,155.984Zm-3,4h5v2h-5Zm2,4h3v6h2v-6h2v4h2v-4h3v9h-12Zm39.006,25H25.071a7,7,0,1,1,0-14H67.078a7,7,0,1,1,0,14Z" transform="translate(-16.08 -134.981)" fill="#ea526f"/>
      <path id="Trazado_113908" data-name="Trazado 113908" d="M344,80h2v2h-2Z" transform="translate(-303.003 -71.999)" fill="#ea526f"/>
      <path id="Trazado_113909" data-name="Trazado 113909" d="M237,36a1,1,0,0,0,1-1V29.8l4-.889V29a1,1,0,0,0,1,1h8a1,1,0,0,0,1-1v-.087l4,.889V35a1,1,0,0,0,1,1,5.006,5.006,0,0,0,5-5V26a1,1,0,0,0-.737-.965L252,22.51V21a1,1,0,0,0-1-1V16h-2v4h-4V16h-2v4a1,1,0,0,0-1,1V22.51l-9.264,2.527A1,1,0,0,0,232,26v5A5.006,5.006,0,0,0,237,36Zm23-9.238V31a3.006,3.006,0,0,1-2,2.829V29a1,1,0,0,0-.783-.976L252,26.866V24.583ZM249,22h1v6h-6V22Zm-15,4.765,8-2.182v2.283l-5.218,1.159A1,1,0,0,0,236,29v4.829A3.006,3.006,0,0,1,234,31Z" transform="translate(-205.005 -16)" fill="#ea526f"/>
    </g>
  </g>
</svg>
