<svg xmlns="http://www.w3.org/2000/svg" width="100" height="100" viewBox="0 0 100 100">
  <g id="Grupo_893627" data-name="Grupo 893627" transform="translate(-6735 -902)">
    <circle id="Elipse_4833" data-name="Elipse 4833" cx="50" cy="50" r="50" transform="translate(6735 902)" fill="#ffd6c5"/>
    <g id="Delivery" transform="translate(6755 922)">
      <path id="Trazado_113769" data-name="Trazado 113769" d="M23.813,23A2.816,2.816,0,0,0,21,25.813v11.25a2.816,2.816,0,0,0,2.813,2.813H36.938a2.816,2.816,0,0,0,2.813-2.812V25.813A2.816,2.816,0,0,0,36.938,23Zm8.438,1.875v4.688H28.5V24.875Zm5.625.938v11.25a.938.938,0,0,1-.937.938H23.813a.938.938,0,0,1-.937-.937V25.813a.938.938,0,0,1,.938-.937h2.813V30.5a.937.937,0,0,0,.938.938h5.625a.937.937,0,0,0,.938-.938V24.875h2.813a.938.938,0,0,1,.938.938Z" transform="translate(-1.313 -1.438)" fill="#ea526f"/>
      <path id="Trazado_113770" data-name="Trazado 113770" d="M9.375,38A9.386,9.386,0,0,0,0,47.375c0,7.868,8.44,14.523,8.8,14.8a.936.936,0,0,0,1.151,0c.359-.279,8.8-6.934,8.8-14.8A9.386,9.386,0,0,0,9.375,38Zm0,22.216c-1.848-1.6-7.5-6.988-7.5-12.841a7.5,7.5,0,0,1,15,0C16.875,53.216,11.221,58.61,9.375,60.216Z" transform="translate(0 -2.375)" fill="#ea526f"/>
      <path id="Trazado_113771" data-name="Trazado 113771" d="M9.688,43a4.688,4.688,0,1,0,4.688,4.688A4.687,4.687,0,0,0,9.688,43Zm0,7.5A2.813,2.813,0,1,1,12.5,47.688,2.812,2.812,0,0,1,9.688,50.5Z" transform="translate(-0.313 -2.688)" fill="#ea526f"/>
      <path id="Trazado_113772" data-name="Trazado 113772" d="M52.8,24.177a.937.937,0,0,0,1.152,0c.359-.279,8.8-6.934,8.8-14.8a9.375,9.375,0,0,0-18.75,0C44,17.243,52.44,23.9,52.8,24.177Zm.576-22.3a7.509,7.509,0,0,1,7.5,7.5c0,5.841-5.654,11.235-7.5,12.841-1.848-1.6-7.5-6.988-7.5-12.841a7.509,7.509,0,0,1,7.5-7.5Z" transform="translate(-2.75)" fill="#ea526f"/>
      <path id="Trazado_113773" data-name="Trazado 113773" d="M58.375,9.688a4.688,4.688,0,1,0-4.687,4.688,4.688,4.688,0,0,0,4.688-4.688Zm-7.5,0A2.813,2.813,0,1,1,53.688,12.5a2.812,2.812,0,0,1-2.812-2.813Z" transform="translate(-3.063 -0.313)" fill="#ea526f"/>
      <path id="Trazado_113774" data-name="Trazado 113774" d="M45.469,31H42.188a.938.938,0,0,0,0,1.875h3.281a13.594,13.594,0,0,1,0,27.188H15.938a.938.938,0,1,0,0,1.875H45.469a15.469,15.469,0,0,0,0-30.937Z" transform="translate(-0.938 -1.938)" fill="#ea526f"/>
      <path id="Trazado_113775" data-name="Trazado 113775" d="M11.25,31.5h5.625a.938.938,0,0,0,0-1.875H11.25a9.375,9.375,0,1,1,0-18.75H38.438a.938.938,0,0,0,0-1.875H11.25a11.25,11.25,0,1,0,0,22.5Z" transform="translate(0 -0.563)" fill="#ea526f"/>
    </g>
  </g>
</svg>
