<svg xmlns="http://www.w3.org/2000/svg" width="100" height="100" viewBox="0 0 100 100">
  <g id="Grupo_893628" data-name="Grupo 893628" transform="translate(-7130 -903)">
    <circle id="Elipse_4834" data-name="Elipse 4834" cx="50" cy="50" r="50" transform="translate(7130 903)" fill="#ffd6c5"/>
    <g id="Return" transform="translate(7148 921)">
      <path id="Trazado_113812" data-name="Trazado 113812" d="M4,39H18a3.975,3.975,0,0,0,3-1.382A3.975,3.975,0,0,0,24,39H38a4,4,0,0,0,4-4V23a4,4,0,0,0-4-4H31.444A3.954,3.954,0,0,0,32,17V5a4,4,0,0,0-4-4H14a4,4,0,0,0-4,4V17a3.954,3.954,0,0,0,.556,2H4a4,4,0,0,0-4,4V35a4,4,0,0,0,4,4ZM40,23V35a2,2,0,0,1-2,2H24a2,2,0,0,1-2-2V23a2,2,0,0,1,2-2h3v6a1,1,0,0,0,1,1h6a1,1,0,0,0,1-1V21h3a2,2,0,0,1,2,2Zm-7,3H29V21h4ZM23,3V8H19V3ZM12,17V5a2,2,0,0,1,2-2h3V9a1,1,0,0,0,1,1h6a1,1,0,0,0,1-1V3h3a2,2,0,0,1,2,2V17a2,2,0,0,1-2,2H14a2,2,0,0,1-2-2Zm1,4v5H9V21ZM2,23a2,2,0,0,1,2-2H7v6a1,1,0,0,0,1,1h6a1,1,0,0,0,1-1V21h3a2,2,0,0,1,2,2V35a2,2,0,0,1-2,2H4a2,2,0,0,1-2-2Z" fill="#ea526f"/>
      <path id="Trazado_113813" data-name="Trazado 113813" d="M48.5,25H45a1,1,0,0,0,0,2h3.5a13.5,13.5,0,0,1,0,27H14a1,1,0,0,0-1,1v4.978L2.639,52,13,44.022V49a1,1,0,0,0,1,1H48.5a9.5,9.5,0,0,0,0-19H45a1,1,0,0,0,0,2h3.5a7.5,7.5,0,0,1,0,15H15V41.99a1,1,0,0,0-1.61-.792l-13,10.01a1,1,0,0,0,0,1.584l13,10.01A1,1,0,0,0,15,62.01V56H48.5a15.5,15.5,0,0,0,0-31Z" fill="#ea526f"/>
    </g>
  </g>
</svg>
