<svg xmlns="http://www.w3.org/2000/svg" width="100" height="100" viewBox="0 0 100 100">
  <g id="Grupo_893631" data-name="Grupo 893631" transform="translate(-7130 -1353)">
    <circle id="Elipse_4837" data-name="Elipse 4837" cx="50" cy="50" r="50" transform="translate(7130 1353)" fill="#ffd6c5"/>
    <g id="Logistics_Search" data-name="Logistics Search" transform="translate(7150 1373)">
      <path id="Trazado_113807" data-name="Trazado 113807" d="M59.063,1H32.813A2.816,2.816,0,0,0,30,3.813V14.125a.938.938,0,0,0,1.875,0V3.813a.938.938,0,0,1,.938-.938h7.5v8.438a.937.937,0,0,0,.938.938h9.375a.937.937,0,0,0,.938-.938V2.875h7.5A.938.938,0,0,1,60,3.813v22.5a.938.938,0,0,1-.938.938H46.875a.938.938,0,0,0,0,1.875H59.063a2.816,2.816,0,0,0,2.813-2.813V3.813A2.816,2.816,0,0,0,59.063,1Zm-9.375,9.375h-7.5v-7.5h7.5Z" transform="translate(-1.875)" fill="#ea526f"/>
      <path id="Trazado_113808" data-name="Trazado 113808" d="M29.063,18a13.122,13.122,0,0,0-12.08,18.254l-2.92,2.92L12.85,37.962a.937.937,0,0,0-1.326,0L2.217,47.27a7.567,7.567,0,1,0,10.7,10.7l9.308-9.308a.937.937,0,0,0,0-1.326l-1.212-1.212,2.92-2.92A13.124,13.124,0,1,0,29.063,18ZM11.592,56.646A5.692,5.692,0,1,1,3.542,48.6l8.645-8.645L20.237,48Zm8.1-11.846-4.3-4.3L17.9,37.99a13.2,13.2,0,0,0,4.3,4.3Zm9.375-2.424a11.25,11.25,0,1,1,11.25-11.25,11.25,11.25,0,0,1-11.25,11.25Z" transform="translate(0 -1.062)" fill="#ea526f"/>
      <path id="Trazado_113809" data-name="Trazado 113809" d="M30.375,22a9.375,9.375,0,1,0,9.375,9.375A9.375,9.375,0,0,0,30.375,22Zm0,16.875a7.5,7.5,0,1,1,7.5-7.5,7.5,7.5,0,0,1-7.5,7.5Z" transform="translate(-1.312 -1.312)" fill="#ea526f"/>
      <path id="Trazado_113810" data-name="Trazado 113810" d="M9.246,56.375a1.987,1.987,0,0,1-2.745,0A.938.938,0,1,0,5.174,57.7a3.816,3.816,0,0,0,5.4,0,.937.937,0,1,0-1.326-1.326Z" transform="translate(-0.306 -3.444)" fill="#ea526f"/>
      <path id="Trazado_113811" data-name="Trazado 113811" d="M32.725,29.525l-2.618,2.618L28.8,30.837a.937.937,0,0,0-1.326,1.326l1.968,1.969a.937.937,0,0,0,1.326,0L34.05,30.85a.937.937,0,0,0-1.326-1.326Z" transform="translate(-1.7 -1.766)" fill="#ea526f"/>
    </g>
  </g>
</svg>
