<svg xmlns="http://www.w3.org/2000/svg" width="100" height="100" viewBox="0 0 100 100">
  <g id="Grupo_80151" data-name="Grupo 80151" transform="translate(-344 -3909)">
    <rect id="Rectángulo_33842" data-name="Rectángulo 33842" width="100" height="100" transform="translate(344 3909)" fill="#def8f8"/>
    <path id="clipboard" d="M112.143,3.441H101.384V1.178A1.179,1.179,0,0,0,100.205,0H82.437a1.179,1.179,0,0,0-1.179,1.178V3.441H70.5a1.179,1.179,0,0,0-1.178,1.178V59.161A1.179,1.179,0,0,0,70.5,60.339h41.643a1.179,1.179,0,0,0,1.178-1.178V4.619a1.178,1.178,0,0,0-1.178-1.178ZM83.616,2.357H99.027V6.881H83.616Zm27.349,55.625H71.678V5.8h9.581V8.059a1.179,1.179,0,0,0,1.178,1.178h17.768a1.179,1.179,0,0,0,1.178-1.178V5.8h9.581ZM83.036,16.455H77.672a1.179,1.179,0,0,0-1.178,1.178V23a1.179,1.179,0,0,0,1.178,1.178h5.364A1.179,1.179,0,0,0,84.214,23V17.633A1.178,1.178,0,0,0,83.036,16.455Zm-1.178,5.363H78.851V18.812h3.007Zm1.178,7.419H77.672a1.179,1.179,0,0,0-1.178,1.178v5.363a1.179,1.179,0,0,0,1.178,1.178h5.364a1.179,1.179,0,0,0,1.178-1.178V30.416a1.178,1.178,0,0,0-1.178-1.178ZM81.857,34.6H78.851V31.594h3.007Zm1.178,7.42H77.672A1.179,1.179,0,0,0,76.494,43.2v5.363a1.179,1.179,0,0,0,1.178,1.178h5.364a1.179,1.179,0,0,0,1.178-1.178V43.2A1.178,1.178,0,0,0,83.036,42.021Zm-1.178,5.363H78.851V44.378h3.007Zm24.291-25.028a1.179,1.179,0,0,1-1.178,1.178H89.511a1.178,1.178,0,1,1,0-2.357H104.97A1.178,1.178,0,0,1,106.148,22.356ZM104.97,17.1a1.178,1.178,0,1,1,0,2.357H89.511a1.178,1.178,0,1,1,0-2.357Zm1.178,18.044a1.179,1.179,0,0,1-1.178,1.178H89.511a1.178,1.178,0,1,1,0-2.357H104.97A1.178,1.178,0,0,1,106.148,35.139Zm0-4.082a1.179,1.179,0,0,1-1.178,1.179H89.511a1.178,1.178,0,0,1,0-2.357H104.97A1.178,1.178,0,0,1,106.148,31.056Zm0,16.866A1.179,1.179,0,0,1,104.97,49.1H89.511a1.178,1.178,0,0,1,0-2.357H104.97A1.178,1.178,0,0,1,106.148,47.922Zm0-4.082a1.179,1.179,0,0,1-1.178,1.179H89.511a1.178,1.178,0,1,1,0-2.357H104.97A1.178,1.178,0,0,1,106.148,43.84Z" transform="translate(302.679 3929)" fill="#ea526f"/>
  </g>
</svg>
