<svg xmlns="http://www.w3.org/2000/svg" width="100" height="100" viewBox="0 0 100 100">
  <g id="Grupo_80152" data-name="Grupo 80152" transform="translate(-344 -4039)">
    <rect id="Rectángulo_33843" data-name="Rectángulo 33843" width="100" height="100" transform="translate(344 4039)" fill="#def8f8"/>
    <g id="project-scheme" transform="translate(367 4025.973)">
      <path id="Trazado_113585" data-name="Trazado 113585" d="M53.224,43.063h-.713L50.917,40.8a1.83,1.83,0,0,0-1.494-.775H41.7a.791.791,0,0,0,0,1.582h7.725a.246.246,0,0,1,.2.1l.951,1.349H3.441l.951-1.349a.246.246,0,0,1,.2-.1H38.534a.791.791,0,1,0,0-1.582H4.593A1.83,1.83,0,0,0,3.1,40.8L1.5,43.063H.791A.791.791,0,0,0,0,43.854V84.806a.791.791,0,0,0,.791.791H6.456a.791.791,0,1,0,0-1.582H1.583V44.645H52.433V84.014H9.62a.791.791,0,1,0,0,1.582h43.6a.791.791,0,0,0,.791-.791V43.854A.791.791,0,0,0,53.224,43.063Z" transform="translate(0 0)" fill="#ea526f" stroke="#ea526f" stroke-width="0.4"/>
      <path id="Trazado_113586" data-name="Trazado 113586" d="M207.546,98.381a5.715,5.715,0,1,0,5.715,5.715A5.721,5.721,0,0,0,207.546,98.381Zm0,9.847a4.132,4.132,0,1,1,4.132-4.132A4.137,4.137,0,0,1,207.546,108.228Z" transform="translate(-180.538 -52.198)" fill="#ea526f" stroke="#ea526f" stroke-width="0.4"/>
      <path id="Trazado_113587" data-name="Trazado 113587" d="M321.142,218.106a.791.791,0,0,0,1.175,1.061,4.132,4.132,0,1,1-1.065,2.768c0-.1,0-.206.014-.329a.791.791,0,0,0-1.578-.124c-.013.165-.019.313-.019.453a5.716,5.716,0,1,0,1.473-3.829Z" transform="translate(-285.944 -157.605)" fill="#ea526f" stroke="#ea526f" stroke-width="0.4"/>
      <path id="Trazado_113588" data-name="Trazado 113588" d="M207.546,345.487a5.715,5.715,0,1,0-5.715-5.715A5.721,5.721,0,0,0,207.546,345.487Zm0-9.847a4.132,4.132,0,1,1-4.132,4.132A4.137,4.137,0,0,1,207.546,335.639Z" transform="translate(-180.538 -263.01)" fill="#ea526f" stroke="#ea526f" stroke-width="0.4"/>
      <path id="Trazado_113589" data-name="Trazado 113589" d="M83.993,221.934a5.715,5.715,0,1,0,5.715-5.715A5.721,5.721,0,0,0,83.993,221.934Zm9.847,0a4.132,4.132,0,1,1-4.132-4.132A4.137,4.137,0,0,1,93.84,221.934Z" transform="translate(-75.132 -157.604)" fill="#ea526f" stroke="#ea526f" stroke-width="0.4"/>
      <path id="Trazado_113590" data-name="Trazado 113590" d="M322.492,167.8a.793.793,0,0,0-.791.527l-1.05-1.05a.791.791,0,1,0-1.119,1.119l1.05,1.05a.791.791,0,0,0,.262,1.538c.036,0,.521-.029,1.562-.088a.791.791,0,0,0,.745-.745l.086-1.516A.791.791,0,0,0,322.492,167.8Z" transform="translate(-285.614 -113.614)" fill="#ea526f" stroke="#ea526f" stroke-width="0.4"/>
      <path id="Trazado_113591" data-name="Trazado 113591" d="M325.724,333.921a.792.792,0,0,0-1.119,0l-1.05,1.05a.791.791,0,0,0-1.536.308l.086,1.516a.791.791,0,0,0,.745.745c1.081.061,1.524.087,1.562.087a.791.791,0,0,0,.262-1.538l1.05-1.05A.791.791,0,0,0,325.724,333.921Z" transform="translate(-288.045 -262.681)" fill="#ea526f" stroke="#ea526f" stroke-width="0.4"/>
      <path id="Trazado_113592" data-name="Trazado 113592" d="M158.554,337.155a.794.794,0,0,0-.835-.745l-1.516.086a.791.791,0,0,0-.745.745l-.086,1.516a.791.791,0,0,0,1.536.308l1.05,1.05A.791.791,0,1,0,159.077,339l-1.05-1.05A.792.792,0,0,0,158.554,337.155Z" transform="translate(-138.979 -265.114)" fill="#ea526f" stroke="#ea526f" stroke-width="0.4"/>
      <path id="Trazado_113593" data-name="Trazado 113593" d="M152.884,173.463a.791.791,0,0,0,1.119,0l1.05-1.05a.791.791,0,0,0,1.536-.308l-.086-1.516a.791.791,0,0,0-.745-.745l-1.516-.086a.791.791,0,0,0-.308,1.536l-1.05,1.05a.791.791,0,0,0,0,1.119Z" transform="translate(-136.548 -116.043)" fill="#ea526f" stroke="#ea526f" stroke-width="0.4"/>
    </g>
  </g>
</svg>
