<svg xmlns="http://www.w3.org/2000/svg" width="100" height="100" viewBox="0 0 100 100">
  <g id="Grupo_80154" data-name="Grupo 80154" transform="translate(-344 -4299)">
    <rect id="Rectángulo_33845" data-name="Rectángulo 33845" width="100" height="100" transform="translate(344 4299)" fill="#def8f8"/>
    <path id="agreement" d="M93.362,46.964l-3.637-15.88a3.088,3.088,0,0,0-3.693-2.317l-2.923.669a3.086,3.086,0,0,0-2.317,3.693l.035.152-.972.423a2.783,2.783,0,0,1-2.549-.148c-.883-.493-1.668-.954-2.36-1.36-3.186-1.869-5.109-3-7.9-1.952a7.228,7.228,0,0,0-2.3,1.557H55.269a3.094,3.094,0,0,0-.406-1,3.062,3.062,0,0,0-1.921-1.368l-2.923-.669a3.088,3.088,0,0,0-3.693,2.317l-3.637,15.88A3.086,3.086,0,0,0,45,50.657l2.923.669a3.093,3.093,0,0,0,3.427-1.589L61.642,59.91a3.664,3.664,0,0,0,5.922-1.068l.855.855a3.664,3.664,0,0,0,5.945-1.12,3.66,3.66,0,0,0,5.768-3q0-.077,0-.154a3.656,3.656,0,0,0,3.136-4.356l1.791-.79a3.095,3.095,0,0,0,3.067,1.045l2.923-.669a3.088,3.088,0,0,0,2.317-3.693ZM67.877,32.477c1.659-.62,2.657-.106,5.864,1.776.7.412,1.5.879,2.4,1.385a5.152,5.152,0,0,0,4.661.253l.563-.245L84.21,48.052,82.06,49l-8.871-8.871a5.3,5.3,0,0,0-6.774-.611c-2.915,2.018-4.868,2.827-6.694,1.36a51.884,51.884,0,0,0,3.791-4.167C65.091,34.841,66.724,32.908,67.877,32.477ZM48.459,49l-2.923-.669a.71.71,0,0,1-.527-.839l3.637-15.88a.727.727,0,0,1,.685-.544c.052,0,3.077.687,3.077.687a.706.706,0,0,1,.527.839L49.3,48.478a.71.71,0,0,1-.839.526Zm32.123,3.7a1.307,1.307,0,0,1-1.811,0l-6.994-6.994a1.191,1.191,0,0,0-1.684,1.684l7.285,7.285a1.28,1.28,0,0,1-1.811,1.811l-7.523-7.524a1.191,1.191,0,0,0-1.684,1.684l5.58,5.58A1.28,1.28,0,0,1,70.1,58.013L63.994,51.9a1.191,1.191,0,1,0-1.684,1.684l2.847,2.847a1.28,1.28,0,0,1-1.834,1.787L52.061,47.087l2.955-12.9h7.516q-.413.482-.84.99a39.235,39.235,0,0,1-4.464,4.741,1.191,1.191,0,0,0-.15,1.675c3.851,4.625,8.3,1.543,10.694-.113a2.888,2.888,0,0,1,3.733.336l9.077,9.077a1.282,1.282,0,0,1,0,1.811Zm10.367-4.678a.7.7,0,0,1-.435.312L87.591,49a.706.706,0,0,1-.839-.526L83.115,32.6a.706.706,0,0,1,.526-.839l2.923-.669a.706.706,0,0,1,.839.527L91.04,47.5a.7.7,0,0,1-.091.528ZM68.025,20.382a6.505,6.505,0,1,0-6.505-6.505A6.512,6.512,0,0,0,68.025,20.382Zm0-10.628A4.123,4.123,0,1,1,63.9,13.877,4.128,4.128,0,0,1,68.025,9.754ZM56.172,17.17a1.618,1.618,0,0,1,1.143,2.76,2.024,2.024,0,0,0,0,2.863l1.794,1.794a2.025,2.025,0,0,0,2.863,0,1.617,1.617,0,0,1,2.76,1.143,2.027,2.027,0,0,0,2.024,2.024h2.537a2.027,2.027,0,0,0,2.024-2.024,1.618,1.618,0,0,1,2.76-1.143,2.024,2.024,0,0,0,2.863,0l1.794-1.794a2.024,2.024,0,0,0,0-2.863,1.618,1.618,0,0,1,1.143-2.76A2.027,2.027,0,0,0,81.9,15.145V12.608a2.027,2.027,0,0,0-2.024-2.024,1.618,1.618,0,0,1-1.143-2.76,2.024,2.024,0,0,0,0-2.863L76.94,3.167a2.025,2.025,0,0,0-2.863,0,1.618,1.618,0,0,1-2.76-1.143A2.027,2.027,0,0,0,69.293,0H66.757a2.027,2.027,0,0,0-2.024,2.024,1.618,1.618,0,0,1-2.76,1.143,2.025,2.025,0,0,0-2.863,0L57.315,4.962a2.024,2.024,0,0,0,0,2.863,1.618,1.618,0,0,1-1.143,2.76,2.027,2.027,0,0,0-2.024,2.024v2.537a2.026,2.026,0,0,0,2.024,2.024Zm.358-4.219A4,4,0,0,0,59.242,6.4l1.309-1.31a3.929,3.929,0,0,0,4.093.623A3.928,3.928,0,0,0,67.1,2.382h1.852A3.928,3.928,0,0,0,71.4,5.717,3.928,3.928,0,0,0,75.5,5.094l1.31,1.31a4,4,0,0,0,2.712,6.547V14.8a4,4,0,0,0-2.712,6.547L75.5,22.66a4,4,0,0,0-6.547,2.712H67.1a4,4,0,0,0-6.548-2.712l-1.309-1.31A4,4,0,0,0,56.53,14.8V12.951Z" transform="translate(326.391 4319)" fill="#ea526f"/>
  </g>
</svg>
