<svg xmlns="http://www.w3.org/2000/svg" width="100" height="100" viewBox="0 0 100 100">
  <g id="Grupo_80155" data-name="Grupo 80155" transform="translate(-344 -4429)">
    <rect id="Rectángulo_33846" data-name="Rectángulo 33846" width="100" height="100" transform="translate(344 4429)" fill="#def8f8"/>
    <path id="budget" d="M25.9,40.745a5.339,5.339,0,0,1-4.578,5.087l.033,1.374a1.078,1.078,0,0,1-1.051,1.1H20.28A1.078,1.078,0,0,1,19.2,47.258l-.034-1.41a6.446,6.446,0,0,1-3.531-1.977A1.078,1.078,0,1,1,17.117,42.3a3.985,3.985,0,0,0,3.108,1.471,3.307,3.307,0,0,0,3.521-3.029,3.307,3.307,0,0,0-3.521-3.029,5.454,5.454,0,0,1-5.677-5.185,5.34,5.34,0,0,1,4.581-5.088l-.036-1.525a1.078,1.078,0,0,1,2.155-.052l.038,1.57A5.839,5.839,0,0,1,24.2,28.823a1.078,1.078,0,1,1-1.436,1.608,3.786,3.786,0,0,0-2.534-.929A3.307,3.307,0,0,0,16.7,32.531a3.307,3.307,0,0,0,3.521,3.029A5.454,5.454,0,0,1,25.9,40.745Zm29.253-4.081V52.014c0,3.03-4.332,5.314-10.078,5.314-5.4,0-9.548-2.017-10.03-4.773C31.751,55.769,27,57.3,20.364,57.328h-.18C8.868,57.328,2.6,52.738.458,42.893a23,23,0,0,1,1.831-14.7A36.7,36.7,0,0,1,10.659,16.9c-.037-.049-.072-.1-.106-.15a3.1,3.1,0,0,1,.876-4.294c.056-.037.114-.072.172-.1L9.4,7.518a2.669,2.669,0,0,1,.647-3.1c1.469-1.321,2.887-.477,3.735.027a.726.726,0,0,0,.446.149c.241-.022.375-.212.5-.393a2.866,2.866,0,0,1,2.2-1.459,3.114,3.114,0,0,1,2.581,1.2,1.2,1.2,0,0,0,.563.4c.363.078.623-.166.858-.4a3.113,3.113,0,0,1,2.581-1.2,2.867,2.867,0,0,1,2.2,1.459.884.884,0,0,0,.35.355.641.641,0,0,0,.6-.111c.848-.5,2.267-1.348,3.735-.027a2.669,2.669,0,0,1,.647,3.1l-2.2,4.833c.058.033.115.068.172.1a3.082,3.082,0,0,1,1.024,1.122c3.728,0,5.291-1.621,7.083-3.48a22,22,0,0,1,2.046-1.944,1.078,1.078,0,1,1,1.351,1.68,20.075,20.075,0,0,0-1.844,1.76,12.959,12.959,0,0,1-4.441,3.376l.65.049c2.942.215,6.277.46,7.837,4.124a1.078,1.078,0,1,1-1.984.845c-.995-2.337-2.933-2.593-6.011-2.819a14.915,14.915,0,0,1-4.607-.825,3.145,3.145,0,0,1-.227.406c-.034.052-.07.1-.107.151a34.142,34.142,0,0,1,9.824,15.247,17.748,17.748,0,0,1,5.462-.8c5.745,0,10.078,2.285,10.078,5.314ZM45.078,33.5c-4.908,0-7.922,1.84-7.922,3.158s3.014,3.158,7.922,3.158S53,37.982,53,36.663,49.986,33.5,45.078,33.5ZM27.5,15.965a.943.943,0,1,0-.374-1.849,36.016,36.016,0,0,1-13.8,0,.938.938,0,0,0-.188-.019.963.963,0,0,0-.922.755.952.952,0,0,0,.736,1.113,37.419,37.419,0,0,0,14.55,0ZM11.364,6.625l2.453,5.39a33.772,33.772,0,0,0,12.818,0l2.453-5.39c.138-.3-.1-.815-.48-.744a3.225,3.225,0,0,0-.978.5,2.67,2.67,0,0,1-3.526-.73c-.2-.272-.4-.728-.777-.761-.461-.041-.832.55-1.124.83a2.851,2.851,0,0,1-3.956,0c-.22-.211-.426-.442-.661-.637a.574.574,0,0,0-.754-.072,2.863,2.863,0,0,0-.486.641,2.67,2.67,0,0,1-3.526.73,5.038,5.038,0,0,0-.868-.466.513.513,0,0,0-.589.712ZM35,49.311V36.663c0-1.438.977-2.708,2.617-3.646-1.381-5.2-4.8-10.452-9.721-14.934a38.6,38.6,0,0,1-7.67.749,38.606,38.606,0,0,1-7.672-.749C4.437,25.463.8,34.31,2.564,42.435c1.913,8.8,7.351,12.737,17.618,12.737h.173c7.127-.03,11.791-1.9,14.645-5.861Zm18,2.7V50.25A14.71,14.71,0,0,1,45.078,52.2a14.71,14.71,0,0,1-7.922-1.952v1.764c0,1.319,3.014,3.158,7.922,3.158S53,53.333,53,52.014Zm0-5.125V45.138a14.71,14.71,0,0,1-7.922,1.952,14.71,14.71,0,0,1-7.922-1.952v1.751c0,1.319,3.014,3.158,7.922,3.158S53,48.207,53,46.888Zm0-5.113V40.025a14.71,14.71,0,0,1-7.922,1.952,14.711,14.711,0,0,1-7.922-1.952v1.751c0,1.319,3.014,3.158,7.922,3.158S53,43.095,53,41.776Z" transform="translate(366.037 4449.271)" fill="#ea526f"/>
  </g>
</svg>
