<svg xmlns="http://www.w3.org/2000/svg" width="100" height="100" viewBox="0 0 100 100">
  <g id="Grupo_80156" data-name="Grupo 80156" transform="translate(-344 -4559)">
    <rect id="Rectángulo_33847" data-name="Rectángulo 33847" width="100" height="100" transform="translate(344 4559)" fill="#def8f8"/>
    <path id="research" d="M16.739,11.119a5.619,5.619,0,1,0,5.619,5.619,5.625,5.625,0,0,0-5.619-5.619Zm0,9.36a3.741,3.741,0,1,1,3.741-3.741,3.745,3.745,0,0,1-3.741,3.741Zm10.438-.95a1.675,1.675,0,0,0,1.673-1.673V15.621a1.675,1.675,0,0,0-1.673-1.673,1.534,1.534,0,0,1-1.084-2.617,1.673,1.673,0,0,0,0-2.366l-1.58-1.58a1.675,1.675,0,0,0-2.366,0A1.534,1.534,0,0,1,19.529,6.3a1.675,1.675,0,0,0-1.673-1.673H15.621A1.675,1.675,0,0,0,13.948,6.3a1.534,1.534,0,0,1-2.617,1.084,1.675,1.675,0,0,0-2.366,0l-1.58,1.58a1.675,1.675,0,0,0,0,2.366A1.534,1.534,0,0,1,6.3,13.948a1.675,1.675,0,0,0-1.673,1.673v2.234A1.675,1.675,0,0,0,6.3,19.529a1.534,1.534,0,0,1,1.084,2.617,1.673,1.673,0,0,0,0,2.366l1.58,1.58a1.675,1.675,0,0,0,2.366,0,1.533,1.533,0,0,1,2.617,1.084,1.675,1.675,0,0,0,1.673,1.673h2.234a1.675,1.675,0,0,0,1.673-1.673,1.534,1.534,0,0,1,2.617-1.084,1.675,1.675,0,0,0,2.366,0l1.58-1.58a1.673,1.673,0,0,0,0-2.366,1.534,1.534,0,0,1,1.084-2.617Zm-3.15.228a3.353,3.353,0,0,0,.6,3.568l-1.3,1.3a3.414,3.414,0,0,0-5.669,2.348H15.821a3.413,3.413,0,0,0-5.669-2.348l-1.3-1.3a3.414,3.414,0,0,0-2.348-5.669V15.821a3.414,3.414,0,0,0,2.348-5.669l1.3-1.3a3.414,3.414,0,0,0,5.669-2.348h1.835a3.414,3.414,0,0,0,5.669,2.348l1.3,1.3a3.414,3.414,0,0,0,2.348,5.669v1.835a3.353,3.353,0,0,0-2.945,2.1Zm23.2,20.89L36.263,29.683a2.967,2.967,0,0,0-2.889-.76l-2.79-2.79a16.753,16.753,0,1,0-4.451,4.451l2.79,2.79a2.967,2.967,0,0,0,.76,2.889L40.647,47.227a2.972,2.972,0,0,0,4.194,0l2.386-2.386a2.969,2.969,0,0,0,0-4.194ZM1.879,16.739A14.86,14.86,0,1,1,16.739,31.6,14.877,14.877,0,0,1,1.879,16.739Zm27.553,10.9,2.341,2.341-1.794,1.794-2.341-2.341A16.891,16.891,0,0,0,29.432,27.638ZM45.9,43.512,43.512,45.9a1.093,1.093,0,0,1-1.537,0L31.011,34.935a1.088,1.088,0,0,1,0-1.537L33.4,31.011a1.088,1.088,0,0,1,1.537,0L45.9,41.975a1.093,1.093,0,0,1,0,1.537Z" transform="translate(370 4585)" fill="#ea526f"/>
  </g>
</svg>
