<svg xmlns="http://www.w3.org/2000/svg" width="100" height="100" viewBox="0 0 100 100">
  <g id="Grupo_80204" data-name="Grupo 80204" transform="translate(4685 8078)">
    <circle id="Elipse_4712" data-name="Elipse 4712" cx="50" cy="50" r="50" transform="translate(-4685 -8078)" fill="#b3eeef"/>
    <g id="Weight_Scale" data-name="Weight Scale" transform="translate(-4665 -8058)">
      <path id="Trazado_113843" data-name="Trazado 113843" d="M15.476,37.276a.941.941,0,0,0-1.327,0L12.275,39.15A.937.937,0,1,0,13.6,40.475l.275-.275v2.424a.937.937,0,0,0,1.875,0V40.2l.275.275A.937.937,0,1,0,17.35,39.15Z" transform="translate(-0.75 -1.938)" fill="#ea526f"/>
      <path id="Trazado_113844" data-name="Trazado 113844" d="M35.476,37.276a.941.941,0,0,0-1.327,0L32.275,39.15A.937.937,0,1,0,33.6,40.475l.275-.275v2.424a.937.937,0,0,0,1.875,0V40.2l.275.275A.937.937,0,1,0,37.35,39.15Z" transform="translate(-2 -1.938)" fill="#ea526f"/>
      <path id="Trazado_113845" data-name="Trazado 113845" d="M23.6,21.475l.275-.275v2.424a.937.937,0,1,0,1.875,0V21.2l.275.275A.937.937,0,1,0,27.35,20.15l-1.874-1.874a.941.941,0,0,0-1.327,0L22.275,20.15A.937.937,0,1,0,23.6,21.475Z" transform="translate(-1.375 -0.75)" fill="#ea526f"/>
      <path id="Trazado_113846" data-name="Trazado 113846" d="M59.062,6H43.125a.937.937,0,0,0-.938.937V19.125a.937.937,0,0,0,.938.938h4.687V43.5H43.125V26.625a.937.937,0,0,0-.937-.937H33.75V8.812a.937.937,0,0,0-.937-.937H14.062a.937.937,0,0,0-.937.938V25.687H4.687a.937.937,0,0,0-.937.938V43.5H.937A.937.937,0,0,0,0,44.437v4.687a.937.937,0,0,0,.937.938H2.812v3.75a.937.937,0,0,0,.937.938h8.437a.938.938,0,0,0,.871-.589l1.639-4.1H44.365L46,54.161a.938.938,0,0,0,.871.589h8.437a.937.937,0,0,0,.938-.937v-3.75h2.813A.937.937,0,0,0,60,49.125V44.437a.937.937,0,0,0-.937-.937H54.375V20.062h4.687A.937.937,0,0,0,60,19.125V6.938A.937.937,0,0,0,59.062,6Zm-.937,1.875v6.562H44.062V7.875ZM41.25,43.5H24.375V27.562h4.687V32.25a.937.937,0,0,0,.938.938h5.625a.937.937,0,0,0,.938-.937V27.562H41.25ZM34.687,27.562v3.75h-3.75v-3.75ZM21.562,9.75h3.75V13.5h-3.75ZM15,9.75h4.687v4.687a.937.937,0,0,0,.938.938H26.25a.937.937,0,0,0,.938-.937V9.75h4.687V25.687H15ZM12.187,27.562h3.75v3.75h-3.75Zm-6.562,0h4.687V32.25a.937.937,0,0,0,.938.938h5.625a.937.937,0,0,0,.938-.937V27.562H22.5V43.5H5.625Zm5.928,25.312H4.687V50.062h7.99Zm42.822,0H47.509l-1.125-2.812h7.99Zm3.75-4.687H1.875V45.375h56.25ZM52.5,43.5H49.687V20.062H52.5Zm5.625-25.312H44.063V16.312H58.125Z" transform="translate(0)" fill="#ea526f"/>
      <path id="Trazado_113847" data-name="Trazado 113847" d="M48,9h1.875v4.687H48Z" transform="translate(-3 -0.188)" fill="#ea526f"/>
      <path id="Trazado_113848" data-name="Trazado 113848" d="M51,9h1.875v4.687H51Z" transform="translate(-3.188 -0.188)" fill="#ea526f"/>
      <path id="Trazado_113849" data-name="Trazado 113849" d="M54,9h1.875v4.687H54Z" transform="translate(-3.375 -0.188)" fill="#ea526f"/>
    </g>
  </g>
</svg>
