<svg xmlns="http://www.w3.org/2000/svg" width="100" height="100" viewBox="0 0 100 100">
  <g id="Grupo_80203" data-name="Grupo 80203" transform="translate(4277 8078)">
    <circle id="Elipse_4712" data-name="Elipse 4712" cx="50" cy="50" r="50" transform="translate(-4277 -8078)" fill="#b3eeef"/>
    <g id="Tracking" transform="translate(-4262 -8064)">
      <path id="Trazado_113821" data-name="Trazado 113821" d="M59.222,41H41.444A4.449,4.449,0,0,0,37,45.444V46.76a3.294,3.294,0,0,0-1.111-.2H20.333A3.337,3.337,0,0,0,17,49.889V63.222a3.337,3.337,0,0,0,3.333,3.333H35.889a3.312,3.312,0,0,0,2.539-1.2,4.416,4.416,0,0,0,3.016,1.2H59.222a4.449,4.449,0,0,0,4.444-4.444V45.444A4.449,4.449,0,0,0,59.222,41Zm-6.667,2.222v5.556H48.111V43.222ZM30.333,48.778v4.444H25.889V48.778ZM37,63.222a1.112,1.112,0,0,1-1.111,1.111H20.333a1.112,1.112,0,0,1-1.111-1.111V49.889a1.112,1.112,0,0,1,1.111-1.111h3.333v5.556a1.11,1.11,0,0,0,1.111,1.111h6.667a1.11,1.11,0,0,0,1.111-1.111V48.778h3.333A1.112,1.112,0,0,1,37,49.889Zm24.444-1.111a2.225,2.225,0,0,1-2.222,2.222H41.444a2.225,2.225,0,0,1-2.222-2.222V45.444a2.225,2.225,0,0,1,2.222-2.222h4.444v6.667A1.11,1.11,0,0,0,47,51h6.667a1.11,1.11,0,0,0,1.111-1.111V43.222h4.444a2.225,2.225,0,0,1,2.222,2.222Z" transform="translate(1.333 4.556)" fill="#ea526f"/>
      <path id="Trazado_113822" data-name="Trazado 113822" d="M15,68.889H10.556a3.337,3.337,0,0,1-3.333-3.333v-60a3.337,3.337,0,0,1,3.333-3.333H48.333a3.337,3.337,0,0,1,3.333,3.333V42.222a1.111,1.111,0,1,0,2.222,0V5.556A5.562,5.562,0,0,0,48.333,0H10.556A5.562,5.562,0,0,0,5,5.556v60a5.562,5.562,0,0,0,5.556,5.556H15a1.111,1.111,0,1,0,0-2.222Z" transform="translate(0)" fill="#ea526f"/>
      <path id="Trazado_113823" data-name="Trazado 113823" d="M28.111,14A11.124,11.124,0,0,0,17,25.111c0,9.325,10,17.212,10.429,17.543a1.111,1.111,0,0,0,1.365,0c.425-.331,10.429-8.218,10.429-17.543A11.124,11.124,0,0,0,28.111,14Zm0,26.33c-2.19-1.9-8.888-8.282-8.888-15.219a8.889,8.889,0,1,1,17.778,0C37,32.034,30.3,38.427,28.11,40.33Z" transform="translate(1.333 1.556)" fill="#ea526f"/>
      <path id="Trazado_113824" data-name="Trazado 113824" d="M27.556,19a5.556,5.556,0,1,0,5.556,5.556A5.556,5.556,0,0,0,27.556,19Zm0,8.889a3.333,3.333,0,1,1,3.333-3.333,3.333,3.333,0,0,1-3.333,3.333Z" transform="translate(1.889 2.111)" fill="#ea526f"/>
      <path id="Trazado_113825" data-name="Trazado 113825" d="M24.111,42a1.111,1.111,0,0,0,0,2.222h6.667a1.111,1.111,0,0,0,0-2.222Z" transform="translate(2 4.667)" fill="#ea526f"/>
      <path id="Trazado_113826" data-name="Trazado 113826" d="M14.556,64H11.222V6.222h8.294l1.892,2.839a1.111,1.111,0,0,0,.924.495H35.667a1.111,1.111,0,0,0,.924-.495l1.893-2.839h8.294V41.778a1.111,1.111,0,0,0,2.222,0V5.111A1.11,1.11,0,0,0,47.889,4h-10a1.111,1.111,0,0,0-.924.495L35.072,7.333H22.928L21.036,4.495A1.111,1.111,0,0,0,20.111,4h-10A1.11,1.11,0,0,0,9,5.111v60a1.11,1.11,0,0,0,1.111,1.111h4.444a1.111,1.111,0,1,0,0-2.222Z" transform="translate(0.444 0.444)" fill="#ea526f"/>
      <path id="Trazado_113827" data-name="Trazado 113827" d="M23.111,4a1.111,1.111,0,0,0,0,2.222H32A1.111,1.111,0,0,0,32,4Z" transform="translate(1.889 0.444)" fill="#ea526f"/>
    </g>
  </g>
</svg>
