<svg xmlns="http://www.w3.org/2000/svg" width="100" height="100" viewBox="0 0 100 100">
  <g id="Grupo_80122" data-name="Grupo 80122" transform="translate(-1146 -799)">
    <circle id="Elipse_4713" data-name="Elipse 4713" cx="50" cy="50" r="50" transform="translate(1146 799)" fill="#b3eeef"/>
    <path id="project-management_1_" data-name="project-management(1)" d="M31.258,49.05a1.193,1.193,0,0,1-1.193,1.193H14.413a1.193,1.193,0,1,1,0-2.385H30.065a1.193,1.193,0,0,1,1.193,1.193Zm-1.193-9.965H14.413a1.193,1.193,0,1,0,0,2.385H30.065a1.193,1.193,0,0,0,0-2.385ZM14.413,15.155H30.065a1.193,1.193,0,1,0,0-2.385H14.413a1.193,1.193,0,1,0,0,2.385ZM30.065,30.313H14.413a1.193,1.193,0,1,0,0,2.385H30.065a1.193,1.193,0,0,0,0-2.385ZM14.413,23.926H41.1a1.193,1.193,0,0,0,0-2.385H14.413a1.193,1.193,0,1,0,0,2.385ZM56.841,40.763a6.985,6.985,0,1,1-6.985-6.985A6.993,6.993,0,0,1,56.841,40.763Zm-2.385,0a4.6,4.6,0,1,0-4.6,4.6A4.6,4.6,0,0,0,54.456,40.763Zm10.01-1.342V42.1a2.076,2.076,0,0,1-2.074,2.074,1.778,1.778,0,0,0-1.256,3.033,2.074,2.074,0,0,1,0,2.933l-1.9,1.9a2.074,2.074,0,0,1-2.933,0A1.778,1.778,0,0,0,53.272,53.3,2.076,2.076,0,0,1,51.2,55.373h-.149v4.5a1.193,1.193,0,0,1-1.193,1.193H5.659a1.193,1.193,0,0,1-1.193-1.193V1.193A1.193,1.193,0,0,1,5.659,0H37.981a1.193,1.193,0,0,1,.841.347L50.7,12.145a1.192,1.192,0,0,1,.352.846V26.154H51.2a2.076,2.076,0,0,1,2.074,2.074,1.778,1.778,0,0,0,3.033,1.256,2.074,2.074,0,0,1,2.933,0l1.9,1.9a2.074,2.074,0,0,1,0,2.933,1.778,1.778,0,0,0,1.256,3.033,2.076,2.076,0,0,1,2.074,2.074ZM39.173,11.8h7.79l-7.79-7.739Zm9.49,43.575h-.149A2.076,2.076,0,0,1,46.441,53.3a1.778,1.778,0,0,0-3.033-1.256,2.074,2.074,0,0,1-2.933,0l-1.9-1.9a2.074,2.074,0,0,1,0-2.933,1.778,1.778,0,0,0-1.256-3.033A2.076,2.076,0,0,1,35.247,42.1V39.421a2.076,2.076,0,0,1,2.074-2.074,1.778,1.778,0,0,0,1.256-3.033,2.077,2.077,0,0,1,0-2.933l1.9-1.9a2.074,2.074,0,0,1,2.933,0,1.777,1.777,0,0,0,3.033-1.256,2.076,2.076,0,0,1,2.074-2.074h.149V14.183H37.981a1.193,1.193,0,0,1-1.193-1.193V2.385H6.851V58.68H48.664ZM62.081,39.722a4.165,4.165,0,0,1-2.844-6.866l-1.473-1.473A4.165,4.165,0,0,1,50.9,28.539H48.815a4.164,4.164,0,0,1-6.866,2.844l-1.473,1.472a4.165,4.165,0,0,1-2.844,6.866V41.8a4.165,4.165,0,0,1,2.844,6.866l1.473,1.473a4.165,4.165,0,0,1,6.866,2.844H50.9a4.165,4.165,0,0,1,6.866-2.844l1.473-1.473A4.165,4.165,0,0,1,62.081,41.8Z" transform="translate(1161.534 818)" fill="#ea526f"/>
  </g>
</svg>
