<svg xmlns="http://www.w3.org/2000/svg" width="100" height="100" viewBox="0 0 100 100">
  <g id="Grupo_80201" data-name="Grupo 80201" transform="translate(3872 7668)">
    <circle id="Elipse_4712" data-name="Elipse 4712" cx="50" cy="50" r="50" transform="translate(-3872 -7668)" fill="#b3eeef"/>
    <g id="Home_Delivery" data-name="Home Delivery" transform="translate(-3852 -7648)">
      <path id="Trazado_113759" data-name="Trazado 113759" d="M29.062,44.063H22.5V30.938A.937.937,0,0,0,21.562,30H4.687a.937.937,0,0,0-.937.937v9.375H.937A.937.937,0,0,0,0,41.25V55.313a.937.937,0,0,0,.937.937H29.062A.937.937,0,0,0,30,55.313V45a.937.937,0,0,0-.937-.937Zm-7.5,1.875h1.875V48.75H21.562ZM15,31.875v2.812H11.25V31.875Zm-9.375,0h3.75v3.75a.937.937,0,0,0,.937.937h5.625a.937.937,0,0,0,.937-.937v-3.75h3.75V44.063h-3.75V41.25a.937.937,0,0,0-.937-.937H5.625Zm.937,10.312h3.75V45H6.562Zm-4.687,0H4.687v3.75a.937.937,0,0,0,.937.937H11.25a.937.937,0,0,0,.937-.937v-3.75H15V54.375H1.875Zm26.25,12.187H16.875V45.938h2.812v3.75a.937.937,0,0,0,.937.937h3.75a.937.937,0,0,0,.937-.937v-3.75h2.812Z" transform="translate(0 -1.5)" fill="#ea526f"/>
      <path id="Trazado_113760" data-name="Trazado 113760" d="M43.875,40.875v-.937a.937.937,0,0,0-1.875,0v.937a.937.937,0,0,0,1.875,0Z" transform="translate(-2.625 -2.063)" fill="#ea526f"/>
      <path id="Trazado_113761" data-name="Trazado 113761" d="M59.937,49.125h-3.75v-26.8l1.955.814a.938.938,0,0,0,1.273-.645l1.435-5.963a.938.938,0,0,0-.551-1.085L37.8,6.073a.93.93,0,0,0-.721,0l-22.5,9.375a.938.938,0,0,0-.551,1.085L15.46,22.5a.938.938,0,0,0,1.273.645l1.955-.814v3.361a.937.937,0,0,0,1.875,0V21.545l16.875-7.03,16.875,7.03v27.58H45.875V29.438a.937.937,0,0,0-.937-.937h-15a.937.937,0,0,0-.937.937V39.75a.937.937,0,0,0,1.875,0V30.375H44v18.75H33.687a.937.937,0,1,0,0,1.875H59v1.875H33.687a.937.937,0,1,0,0,1.875h26.25a.937.937,0,0,0,.937-.937v-3.75a.937.937,0,0,0-.937-.937Zm-22.5-36.562a.93.93,0,0,0-.361.072l-20.05,8.352-.991-4.117,21.4-8.917,21.4,8.917-.991,4.117L37.8,12.635a.93.93,0,0,0-.361-.072Z" transform="translate(-0.875)" fill="#ea526f"/>
    </g>
  </g>
</svg>
