<svg xmlns="http://www.w3.org/2000/svg" width="100" height="100" viewBox="0 0 100 100">
  <g id="Grupo_80120" data-name="Grupo 80120" transform="translate(7581 10901)">
    <circle id="Elipse_4714" data-name="Elipse 4714" cx="50" cy="50" r="50" transform="translate(-7581 -10901)" fill="#b3eeef"/>
    <path id="project-management_2_" data-name="project-management(2)" d="M59.777,27.111a1.172,1.172,0,0,1-.261,1.637L50.748,35.1a1.172,1.172,0,0,1-1.608-.224L47.12,32.317a1.172,1.172,0,0,1,1.841-1.45l1.322,1.679,7.856-5.7A1.172,1.172,0,0,1,59.777,27.111ZM21.62,32.345a6.863,6.863,0,1,1-6.863-6.863,6.871,6.871,0,0,1,6.863,6.863Zm-2.344,0a4.519,4.519,0,1,0-4.519,4.519,4.524,4.524,0,0,0,4.519-4.519ZM58.14,49.329l-7.856,5.7-1.322-1.679a1.172,1.172,0,1,0-1.841,1.45l2.019,2.563a1.172,1.172,0,0,0,1.608.224l8.768-6.356a1.172,1.172,0,1,0-1.376-1.9Zm-1.929,7.759v3.774a1.172,1.172,0,0,1-1.172,1.172H42.6a1.172,1.172,0,0,1-1.172-1.172V56H34.67A1.172,1.172,0,0,1,33.5,54.823V33.517H29.514V33.7a2.067,2.067,0,0,1-2.064,2.064,1.836,1.836,0,0,0-1.3,3.132,2.064,2.064,0,0,1,0,2.919L24.231,43.74a2.065,2.065,0,0,1-2.92,0,1.836,1.836,0,0,0-3.132,1.3A2.067,2.067,0,0,1,16.115,47.1H13.4a2.067,2.067,0,0,1-2.064-2.064A1.835,1.835,0,0,0,8.2,43.74a2.065,2.065,0,0,1-2.919,0L3.361,41.819a2.064,2.064,0,0,1,0-2.919,1.783,1.783,0,0,0,.4-2,1.783,1.783,0,0,0-1.693-1.134A2.066,2.066,0,0,1,0,33.7V30.986a2.067,2.067,0,0,1,2.064-2.064,1.783,1.783,0,0,0,1.693-1.134,1.783,1.783,0,0,0-.4-2,2.064,2.064,0,0,1,0-2.919l1.921-1.921a2.064,2.064,0,0,1,2.92,0,1.836,1.836,0,0,0,3.132-1.3A2.067,2.067,0,0,1,13.4,17.588h2.717a2.067,2.067,0,0,1,2.064,2.064,1.836,1.836,0,0,0,3.132,1.3,2.064,2.064,0,0,1,2.919,0l1.921,1.921a2.064,2.064,0,0,1,0,2.919,1.836,1.836,0,0,0,1.3,3.132,2.067,2.067,0,0,1,2.064,2.064v.186H33.5V9.866A1.172,1.172,0,0,1,34.67,8.694h6.756V3.828A1.172,1.172,0,0,1,42.6,2.656H55.04A1.172,1.172,0,0,1,55.04,5H43.77v9.733h10.1v-2.6a1.172,1.172,0,1,1,2.344,0V15.9a1.172,1.172,0,0,1-1.172,1.172H42.6A1.172,1.172,0,0,1,41.426,15.9V11.038H35.842V31.173h5.585V26.307A1.172,1.172,0,0,1,42.6,25.135H55.04a1.172,1.172,0,0,1,0,2.344H43.77v9.733h10.1v-2.6a1.172,1.172,0,1,1,2.344,0v3.774a1.172,1.172,0,0,1-1.172,1.172H42.6a1.172,1.172,0,0,1-1.172-1.172V33.517H35.842V53.651h5.585V48.785A1.172,1.172,0,0,1,42.6,47.613H55.04a1.172,1.172,0,0,1,0,2.344H43.77V59.69h10.1v-2.6a1.172,1.172,0,1,1,2.344,0ZM27.171,31.257A4.181,4.181,0,0,1,24.3,24.336L22.766,22.8a4.181,4.181,0,0,1-6.921-2.867H13.669A4.181,4.181,0,0,1,6.749,22.8L5.21,24.336a4.106,4.106,0,0,1,.712,4.349,4.106,4.106,0,0,1-3.579,2.572v2.175A4.106,4.106,0,0,1,5.922,36a4.107,4.107,0,0,1-.712,4.349l1.538,1.538a4.18,4.18,0,0,1,6.921,2.867h2.175a4.181,4.181,0,0,1,6.921-2.867L24.3,40.353a4.181,4.181,0,0,1,2.867-6.921ZM48.962,8.388a1.172,1.172,0,1,0-1.841,1.45L49.139,12.4a1.172,1.172,0,0,0,1.608.224l8.768-6.356a1.172,1.172,0,1,0-1.376-1.9l-7.856,5.7Z" transform="translate(-7561 -10883.656)" fill="#ea526f"/>
  </g>
</svg>
