<svg xmlns="http://www.w3.org/2000/svg" width="100" height="100" viewBox="0 0 100 100">
  <g id="Grupo_80226" data-name="Grupo 80226" transform="translate(-248 -3678)">
    <circle id="Elipse_4712" data-name="Elipse 4712" cx="50" cy="50" r="50" transform="translate(248 3678)" fill="#b3eeef"/>
    <g id="Logistics" transform="translate(267 3698)">
      <path id="Trazado_113762" data-name="Trazado 113762" d="M57.692,10a4.754,4.754,0,0,0-4.748,4.748V31.394a4.971,4.971,0,0,0-5.65.958l-9.5,9.5a6.6,6.6,0,0,0-1.947,4.7v7.137h-1.9a.95.95,0,0,0-.95.95v5.7a.95.95,0,0,0,.95.95H56.742a.95.95,0,0,0,.95-.95v-5.7a.95.95,0,0,0-.95-.95h-1.9V51.23l4.816-4.816A9.433,9.433,0,0,0,62.441,39.7V14.748A4.754,4.754,0,0,0,57.692,10Zm-1.9,49.384H34.9v-3.8H55.793ZM60.541,39.7a7.548,7.548,0,0,1-2.225,5.373l-5.094,5.094a.95.95,0,0,0-.278.671v2.849h-15.2V46.549a4.718,4.718,0,0,1,1.391-3.358l9.5-9.5a3.08,3.08,0,0,1,4.355,4.355l-7.367,7.367a.95.95,0,1,0,1.343,1.343l7.367-7.367a4.975,4.975,0,0,0,.509-6.418V14.748a2.849,2.849,0,0,1,5.7,0Z" transform="translate(-1.66 -0.503)" fill="#ea526f"/>
      <path id="Trazado_113763" data-name="Trazado 113763" d="M31.61,35.017l15.2-8.547a.95.95,0,0,0,.484-.828V9.5a.975.975,0,0,0-.484-.828L31.61.122a.951.951,0,0,0-.931,0l-15.2,8.547A.979.979,0,0,0,15,9.5V25.642a.95.95,0,0,0,.484.828l15.2,8.547a.95.95,0,0,0,.931,0Zm.484-2.452V18.6l13.3-7.479V25.086Zm-.95-15.611L28.017,15.2,41.275,7.737,44.4,9.5ZM39.338,6.648,26.081,14.1l-3.129-1.759L36.21,4.888ZM21.961,13.969l3.172,1.783V20.22l-3.172-1.782Zm9.183-11.93L34.273,3.8,21.015,11.256,17.887,9.5ZM16.9,11.121,20.062,12.9v6.094a.95.95,0,0,0,.485.828l5.071,2.849a.95.95,0,0,0,1.415-.828V16.821L30.2,18.6V32.565L16.9,25.086Z" transform="translate(-0.755 0)" fill="#ea526f"/>
      <path id="Trazado_113764" data-name="Trazado 113764" d="M28.491,53.686h-1.9V46.549a6.6,6.6,0,0,0-1.947-4.7l-9.5-9.5a4.971,4.971,0,0,0-5.65-.958V14.748a4.748,4.748,0,0,0-9.5,0V39.7a9.433,9.433,0,0,0,2.782,6.716L7.6,51.23v2.456H5.7a.95.95,0,0,0-.95.95v5.7a.95.95,0,0,0,.95.95H28.491a.95.95,0,0,0,.95-.95v-5.7A.95.95,0,0,0,28.491,53.686ZM9.219,50.165,4.125,45.071A7.548,7.548,0,0,1,1.9,39.7V14.748a2.849,2.849,0,0,1,5.7,0V32.975a4.975,4.975,0,0,0,.509,6.418l7.367,7.367a.95.95,0,1,0,1.343-1.343L9.449,38.05A3.08,3.08,0,0,1,13.8,33.695l9.5,9.5a4.718,4.718,0,0,1,1.391,3.358v7.137H9.5V50.837a.95.95,0,0,0-.278-.671Zm18.322,9.219H6.648v-3.8H27.541Z" transform="translate(0 -0.503)" fill="#ea526f"/>
    </g>
  </g>
</svg>
