<svg xmlns="http://www.w3.org/2000/svg" width="100" height="100" viewBox="0 0 100 100">
  <g id="Grupo_80224" data-name="Grupo 80224" transform="translate(-750 -3678)">
    <circle id="Elipse_4733" data-name="Elipse 4733" cx="50" cy="50" r="50" transform="translate(750 3678)" fill="#b3eeef"/>
    <g id="Tracking_Monitor" data-name="Tracking Monitor" transform="translate(769 3700)">
      <path id="Trazado_113786" data-name="Trazado 113786" d="M49.95,11.9h1.9V24.245a.95.95,0,1,0,1.9,0V10.95A.949.949,0,0,0,52.8,10H49.95a.95.95,0,0,0,0,1.9Z" transform="translate(-2.465 -2.402)" fill="#ea526f"/>
      <path id="Trazado_113787" data-name="Trazado 113787" d="M34.189,51.384a2.852,2.852,0,0,1-2.849-2.849v-1.9h3.8a.95.95,0,1,0,0-1.9H1.9v-5.7h31.34a.95.95,0,1,0,0-1.9H13.3V16.245h6.648v7.6a.95.95,0,0,0,.95.95h9.5a.95.95,0,0,0,.95-.95v-7.6h6.648V26.692a.95.95,0,1,0,1.9,0V15.3a.949.949,0,0,0-.95-.95H12.346a.95.95,0,0,0-.95.95V37.139H8.547V11.5H42.736v13.3a.95.95,0,0,0,1.9,0V2.95a.949.949,0,0,0-.95-.95H7.6a.95.95,0,0,0-.95.95V37.139H1.9V11.5H3.8a.95.95,0,1,0,0-1.9H.95a.95.95,0,0,0-.95.95V45.686a.95.95,0,0,0,.95.95H19.944v1.9a2.852,2.852,0,0,1-2.849,2.849,3.8,3.8,0,0,0-3.8,3.8v2.849a.95.95,0,0,0,.95.95H37.038a.949.949,0,0,0,.95-.95V55.183a3.8,3.8,0,0,0-3.8-3.8ZM29.441,16.245v6.648h-7.6V16.245ZM8.547,3.9H42.736V9.6H8.547Zm13.3,44.636v-1.9h7.6v1.9a4.726,4.726,0,0,0,.952,2.849h-9.5a4.726,4.726,0,0,0,.952-2.849Zm14.245,8.547H15.2v-1.9a1.9,1.9,0,0,1,1.9-1.9H34.189a1.9,1.9,0,0,1,1.9,1.9Z" transform="translate(0 -2)" fill="#ea526f"/>
      <path id="Trazado_113788" data-name="Trazado 113788" d="M16.95,35a.95.95,0,1,0,0,1.9H21.7a.95.95,0,1,0,0-1.9Z" transform="translate(-0.805 -3.66)" fill="#ea526f"/>
      <path id="Trazado_113789" data-name="Trazado 113789" d="M27.4,32.95a.95.95,0,0,0-.95-.95h-9.5a.95.95,0,1,0,0,1.9h9.5A.95.95,0,0,0,27.4,32.95Z" transform="translate(-0.805 -3.509)" fill="#ea526f"/>
      <path id="Trazado_113790" data-name="Trazado 113790" d="M12.9,6h-.95a.95.95,0,1,0,0,1.9h.95a.95.95,0,1,0,0-1.9Z" transform="translate(-0.553 -2.201)" fill="#ea526f"/>
      <path id="Trazado_113791" data-name="Trazado 113791" d="M16.9,6h-.95a.95.95,0,1,0,0,1.9h.95a.95.95,0,1,0,0-1.9Z" transform="translate(-0.755 -2.201)" fill="#ea526f"/>
      <path id="Trazado_113792" data-name="Trazado 113792" d="M20.9,6h-.95a.95.95,0,1,0,0,1.9h.95a.95.95,0,1,0,0-1.9Z" transform="translate(-0.956 -2.201)" fill="#ea526f"/>
      <path id="Trazado_113793" data-name="Trazado 113793" d="M41.245,6H27.95a.95.95,0,1,0,0,1.9h13.3a.95.95,0,0,0,0-1.9Z" transform="translate(-1.358 -2.201)" fill="#ea526f"/>
      <path id="Trazado_113794" data-name="Trazado 113794" d="M57.3,40.648A6.648,6.648,0,1,0,50.648,47.3,6.648,6.648,0,0,0,57.3,40.648Zm-11.4,0A4.748,4.748,0,1,1,50.648,45.4,4.748,4.748,0,0,1,45.9,40.648Z" transform="translate(-2.213 -3.61)" fill="#ea526f"/>
      <path id="Trazado_113795" data-name="Trazado 113795" d="M4.95,43a.95.95,0,1,0,0,1.9h1.9a.95.95,0,1,0,0-1.9Z" transform="translate(-0.201 -4.063)" fill="#ea526f"/>
      <path id="Trazado_113796" data-name="Trazado 113796" d="M9.95,43a.95.95,0,1,0,0,1.9h9.5a.95.95,0,1,0,0-1.9Z" transform="translate(-0.453 -4.063)" fill="#ea526f"/>
      <path id="Trazado_113797" data-name="Trazado 113797" d="M55.094,58.39H52.666c3.246-3.345,10.026-11.155,10.026-18.044a12.346,12.346,0,0,0-24.692,0c0,6.889,6.781,14.7,10.026,18.044H45.6a.95.95,0,1,0,0,1.9h9.5a.95.95,0,0,0,0-1.9ZM50.346,29.9A10.459,10.459,0,0,1,60.793,40.346c0,6.888-8.082,15.35-10.447,17.677C47.981,55.7,39.9,47.241,39.9,40.346A10.459,10.459,0,0,1,50.346,29.9Z" transform="translate(-1.912 -3.308)" fill="#ea526f"/>
    </g>
  </g>
</svg>
