<svg xmlns="http://www.w3.org/2000/svg" width="100" height="100" viewBox="0 0 100 100">
  <g id="Grupo_80223" data-name="Grupo 80223" transform="translate(-1002 -3678)">
    <circle id="Elipse_4734" data-name="Elipse 4734" cx="50" cy="50" r="50" transform="translate(1002 3678)" fill="#b3eeef"/>
    <g id="Outline" transform="translate(1021 3696)">
      <path id="Trazado_114070" data-name="Trazado 114070" d="M244.4,224.871a3.162,3.162,0,0,0-3.936-2.123l-28.278,8.461a1.056,1.056,0,0,0-.42.242l-3.435,3.228a1.054,1.054,0,0,0,.54,1.807l4.644.811a1.057,1.057,0,0,0,.484-.028l22.945-6.865.1,2.171-7.291,2.181.6,2.02,8.079-2.417a1.054,1.054,0,0,0,.751-1.058l-.161-3.519,3.251-.973a3.162,3.162,0,0,0,2.123-3.936Zm-30.767,10.306-2.322-.406,1.718-1.614,4.811-1.439.6,2.02Zm6.831-2.044-.6-2.02,16.885-5.052.1,2.171Zm21.834-6.855a1.048,1.048,0,0,1-.626.51l-2.746.822-.1-2.171,2.241-.671a1.054,1.054,0,0,1,1.23,1.51Z" transform="translate(-183.754 -195.389)" fill="#ea526f"/>
      <path id="Trazado_114071" data-name="Trazado 114071" d="M63,240.866H45.083V225.054A1.054,1.054,0,0,0,44.029,224H25.054A1.054,1.054,0,0,0,24,225.054v33.733a1.054,1.054,0,0,0,1.054,1.054H63a1.054,1.054,0,0,0,1.054-1.054V241.921A1.054,1.054,0,0,0,63,240.866Zm-11.6,2.108h4.217v4.217H51.408ZM32.433,226.108H36.65v4.217H32.433Zm-6.325,0h4.217v5.271a1.054,1.054,0,0,0,1.054,1.054H37.7a1.054,1.054,0,0,0,1.054-1.054v-5.271h4.217v14.758H26.108Zm6.325,16.866H36.65v4.217H32.433Zm-6.325,0h4.217v5.271a1.054,1.054,0,0,0,1.054,1.054H37.7a1.054,1.054,0,0,0,1.054-1.054v-5.271h4.217v14.758H26.108ZM61.95,257.733H45.083V242.975H49.3v5.271a1.054,1.054,0,0,0,1.054,1.054h6.325a1.054,1.054,0,0,0,1.054-1.054v-5.271H61.95Z" transform="translate(-24 -196.592)" fill="#ea526f"/>
      <path id="Trazado_114072" data-name="Trazado 114072" d="M280,448h2.108v2.108H280Z" transform="translate(-246.267 -391.076)" fill="#ea526f"/>
      <path id="Trazado_114073" data-name="Trazado 114073" d="M136,448h2.108v2.108H136Z" transform="translate(-121.242 -391.076)" fill="#ea526f"/>
      <path id="Trazado_114074" data-name="Trazado 114074" d="M136,320h2.108v2.108H136Z" transform="translate(-121.242 -279.942)" fill="#ea526f"/>
      <path id="Trazado_114075" data-name="Trazado 114075" d="M138.108,24.433a2.111,2.111,0,0,1,2.108-2.108h6.325v2.108h-5.271a1.054,1.054,0,0,0-1.054,1.054V41.3h2.108V26.542h25.3V43.408h2.108V25.487a1.054,1.054,0,0,0-1.054-1.054h-5.271V22.325h6.325a2.111,2.111,0,0,1,2.108,2.108V42.354h2.108V24.433a4.221,4.221,0,0,0-4.217-4.217H159.487l.727-2.907A1.054,1.054,0,0,0,159.191,16h-8.433a1.054,1.054,0,0,0-1.023,1.31l.727,2.907H140.217A4.221,4.221,0,0,0,136,24.433V41.3h2.108Zm10.542-2.108h3.162a1.054,1.054,0,0,0,1.023-1.31l-.727-2.907h5.733l-.727,2.907a1.054,1.054,0,0,0,1.023,1.31H161.3v2.108H148.65Z" transform="translate(-121.242 -16)" fill="#ea526f"/>
      <path id="Trazado_114076" data-name="Trazado 114076" d="M352.433,345.487a2.111,2.111,0,0,1-2.108,2.108H344V349.7h6.325a4.221,4.221,0,0,0,4.217-4.217V336h-2.108Z" transform="translate(-301.834 -293.834)" fill="#ea526f"/>
      <path id="Trazado_114077" data-name="Trazado 114077" d="M350.325,351.379V344h-2.108v6.325H344v2.108h5.271A1.054,1.054,0,0,0,350.325,351.379Z" transform="translate(-301.834 -300.78)" fill="#ea526f"/>
      <path id="Trazado_114078" data-name="Trazado 114078" d="M206.325,113.054A1.054,1.054,0,0,0,205.271,112h-4.217A1.054,1.054,0,0,0,200,113.054v4.217a1.054,1.054,0,0,0,1.054,1.054h4.217a1.054,1.054,0,0,0,1.054-1.054Zm-2.108,3.162h-2.108v-2.108h2.108Z" transform="translate(-176.809 -99.35)" fill="#ea526f"/>
      <path id="Trazado_114079" data-name="Trazado 114079" d="M205.271,184h-4.217A1.054,1.054,0,0,0,200,185.054v4.217a1.054,1.054,0,0,0,1.054,1.054h4.217a1.054,1.054,0,0,0,1.054-1.054v-4.217A1.054,1.054,0,0,0,205.271,184Zm-1.054,4.217h-2.108v-2.108h2.108Z" transform="translate(-176.809 -161.863)" fill="#ea526f"/>
      <path id="Trazado_114080" data-name="Trazado 114080" d="M264,112h2.108v2.108H264Z" transform="translate(-232.375 -99.35)" fill="#ea526f"/>
      <path id="Trazado_114081" data-name="Trazado 114081" d="M264,144h12.65v2.108H264Z" transform="translate(-232.375 -127.134)" fill="#ea526f"/>
      <path id="Trazado_114082" data-name="Trazado 114082" d="M296,112h8.433v2.108H296Z" transform="translate(-260.159 -99.35)" fill="#ea526f"/>
      <path id="Trazado_114083" data-name="Trazado 114083" d="M264,184h2.108v2.108H264Z" transform="translate(-232.375 -161.863)" fill="#ea526f"/>
      <path id="Trazado_114084" data-name="Trazado 114084" d="M264,216h12.65v2.108H264Z" transform="translate(-232.375 -189.646)" fill="#ea526f"/>
      <path id="Trazado_114085" data-name="Trazado 114085" d="M296,184h8.433v2.108H296Z" transform="translate(-260.159 -161.863)" fill="#ea526f"/>
    </g>
  </g>
</svg>
