<svg xmlns="http://www.w3.org/2000/svg" width="100" height="100" viewBox="0 0 100 100">
  <g id="Grupo_960403" data-name="Grupo 960403" transform="translate(-211 -1188)">
    <circle id="Elipse_4717" data-name="Elipse 4717" cx="50" cy="50" r="50" transform="translate(211 1188)" fill="#b3eeef"/>
    <g id="gantt-chart" transform="translate(231 1208)">
      <path id="Trazado_114316" data-name="Trazado 114316" d="M56,0H4A4,4,0,0,0,0,4V56a4,4,0,0,0,4,4H56a4,4,0,0,0,4-4V4A4,4,0,0,0,56,0ZM4,2H56a2,2,0,0,1,2,2V8H2V4A2,2,0,0,1,4,2ZM56,58H4a2,2,0,0,1-2-2V10H58V56A2,2,0,0,1,56,58Z" fill="#ea526f"/>
      <path id="Trazado_114317" data-name="Trazado 114317" d="M5,6H6A1,1,0,0,0,6,4H5A1,1,0,0,0,5,6Z" fill="#ea526f"/>
      <path id="Trazado_114318" data-name="Trazado 114318" d="M10,6h1a1,1,0,0,0,0-2H10a1,1,0,0,0,0,2Z" fill="#ea526f"/>
      <path id="Trazado_114319" data-name="Trazado 114319" d="M15,6h1a1,1,0,0,0,0-2H15a1,1,0,0,0,0,2Z" fill="#ea526f"/>
      <path id="Trazado_114320" data-name="Trazado 114320" d="M49,6h6a1,1,0,0,0,0-2H49a1,1,0,0,0,0,2Z" fill="#ea526f"/>
      <path id="Trazado_114321" data-name="Trazado 114321" d="M55,13H5a1,1,0,0,0,0,2H8v4a4,4,0,0,0,0,8v4a4,4,0,0,0,0,8v4a4,4,0,0,0,0,8v3a1,1,0,0,0,2,0V50.444a3.965,3.965,0,0,0,0-6.888V38.444a3.965,3.965,0,0,0,0-6.888V26.444a3.965,3.965,0,0,0,0-6.888V15h5v5.78a2.964,2.964,0,0,0,0,4.44V54a1,1,0,0,0,2,0V26h5v6a3,3,0,0,0,0,6V54a1,1,0,0,0,2,0V38h5v6H28a3,3,0,0,0,0,6h1v4a1,1,0,0,0,2,0V50h5v4a1,1,0,0,0,2,0V50h5v4a1,1,0,0,0,2,0V50h5v4a1,1,0,0,0,2,0V50a3,3,0,1,0,0-6V15h3a1,1,0,0,0,0-2ZM8,49a2,2,0,1,1,2-2A2,2,0,0,1,8,49ZM8,37a2,2,0,1,1,2-2A2,2,0,0,1,8,37ZM8,25a2,2,0,1,1,2-2A2,2,0,0,1,8,25Zm30,7V25.816a2.982,2.982,0,0,0,0-5.632V15h5V32Zm-2-6v6H31V26ZM24,20V15h5v5Zm7-5h5v5H31ZM17,15h5v5H17Zm-1,8a1,1,0,0,1,1-1H37a1,1,0,0,1,0,2H17A1,1,0,0,1,16,23Zm8,3h5v6H24Zm-3,9a1,1,0,0,1,1-1H45a1,1,0,0,1,0,2H22A1,1,0,0,1,21,35Zm17,9V38h5v6Zm-7-6h5v6H31Zm22,9a1,1,0,0,1-1,1H28a1,1,0,0,1,0-2H52A1,1,0,0,1,53,47Zm-3-3H45V38a3,3,0,0,0,0-6V15h5Z" fill="#ea526f"/>
    </g>
  </g>
</svg>
