<svg xmlns="http://www.w3.org/2000/svg" width="100" height="100" viewBox="0 0 100 100">
  <g id="Grupo_80121" data-name="Grupo 80121" transform="translate(7188 10901)">
    <circle id="Elipse_4715" data-name="Elipse 4715" cx="50" cy="50" r="50" transform="translate(-7188 -10901)" fill="#b3eeef"/>
    <path id="target" d="M59.946,7.3a1.172,1.172,0,0,0-.91-.8l-4.689-.845L53.5.963A1.172,1.172,0,0,0,51.52.342L45.712,6.15A29.4,29.4,0,0,0,8.61,51.389,29.4,29.4,0,0,0,58.791,30.6a29.18,29.18,0,0,0-4.943-16.316l5.808-5.808a1.172,1.172,0,0,0,.29-1.179ZM33.915,30.6a4.525,4.525,0,1,1-2.263-3.913l-3.084,3.084a1.172,1.172,0,1,0,1.657,1.657l3.084-3.084a4.489,4.489,0,0,1,.606,2.256ZM33.345,25A6.873,6.873,0,1,0,35,26.654l3.565-3.565a4.186,4.186,0,0,0,3.241,6.427v2.176a4.181,4.181,0,0,0-2.867,6.921L37.4,40.15a4.182,4.182,0,0,0-6.921,2.867H28.308a4.18,4.18,0,0,0-6.921-2.867l-1.538-1.538a4.181,4.181,0,0,0-2.867-6.921V29.515a4.181,4.181,0,0,0,2.867-6.921l1.538-1.538a4.182,4.182,0,0,0,6.921-2.867h2.175a4.186,4.186,0,0,0,6.427,3.241Zm5.525-5.789a2.065,2.065,0,0,0-2.919,0,1.836,1.836,0,0,1-3.132-1.3,2.067,2.067,0,0,0-2.064-2.064H28.037a2.067,2.067,0,0,0-2.064,2.064,1.836,1.836,0,0,1-3.132,1.3,2.064,2.064,0,0,0-2.919,0L18,21.129a2.064,2.064,0,0,0,0,2.919,1.836,1.836,0,0,1-1.3,3.132,2.067,2.067,0,0,0-2.064,2.064v2.717A2.067,2.067,0,0,0,16.7,34.026,1.836,1.836,0,0,1,18,37.158a2.064,2.064,0,0,0,0,2.919L19.921,42a2.064,2.064,0,0,0,2.919,0,1.835,1.835,0,0,1,3.132,1.3,2.067,2.067,0,0,0,2.064,2.064h2.717A2.067,2.067,0,0,0,32.818,43.3,1.836,1.836,0,0,1,35.951,42a2.065,2.065,0,0,0,2.919,0l1.921-1.921a2.064,2.064,0,0,0,0-2.919,1.836,1.836,0,0,1,1.3-3.132,2.067,2.067,0,0,0,2.064-2.064V29.245a2.067,2.067,0,0,0-2.064-2.064,1.836,1.836,0,0,1-1.3-3.132,2.064,2.064,0,0,0,0-2.919L40.659,21l2.33-2.33a18.124,18.124,0,1,1-1.657-1.657L39,19.34ZM56.448,30.6A27.048,27.048,0,1,1,44.019,7.843l-.465.465a1.172,1.172,0,0,0-.325,1.037l.881,4.887L42.992,15.35a20.467,20.467,0,1,0,1.657,1.657l1.119-1.119,4.887.881a1.173,1.173,0,0,0,1.037-.325l.465-.465A26.852,26.852,0,0,1,56.448,30.6ZM50.467,14.354l-4.086-.736-.736-4.086,5.948-5.948.592,3.285a1.172,1.172,0,0,0,.945.945l3.285.592Z" transform="translate(-7168 -10880.999)" fill="#ea526f"/>
  </g>
</svg>
