<svg xmlns="http://www.w3.org/2000/svg" width="100" height="100" viewBox="0 0 100 100">
  <g id="Grupo_80125" data-name="Grupo 80125" transform="translate(6797 10901)">
    <circle id="Elipse_4716" data-name="Elipse 4716" cx="50" cy="50" r="50" transform="translate(-6797 -10901)" fill="#b3eeef"/>
    <path id="time-management" d="M18.007,17.1,25.745,11.5a1.172,1.172,0,0,1,1.376,1.9l-8.65,6.27a1.172,1.172,0,0,1-1.608-.224l-1.991-2.529a1.172,1.172,0,1,1,1.841-1.45Zm4.689.886a1.172,1.172,0,0,0-1.172,1.172v2.551h-9.93v-9.57H22.7a1.172,1.172,0,1,0,0-2.344H10.423a1.172,1.172,0,0,0-1.172,1.172V22.885a1.172,1.172,0,0,0,1.172,1.172H22.7a1.172,1.172,0,0,0,1.172-1.172V19.162A1.172,1.172,0,0,0,22.7,17.99ZM21.447,34.729H10.423a1.172,1.172,0,0,0,0,2.344H21.447a1.172,1.172,0,0,0,0-2.344Zm0,6.553H10.423a1.172,1.172,0,0,0,0,2.344H21.447a1.172,1.172,0,0,0,0-2.344Zm0,6.553H10.423a1.172,1.172,0,0,0,0,2.344H21.447a1.172,1.172,0,1,0,0-2.344ZM60,33.462V56.191A3.813,3.813,0,0,1,56.191,60H1.172A1.172,1.172,0,0,1,0,58.828V1.172A1.172,1.172,0,0,1,1.172,0H31.828a1.172,1.172,0,0,1,.816.331L43.914,11.259a1.172,1.172,0,0,1,.356.841V26.619h.523a1.172,1.172,0,0,1,1.172,1.172v1.862h2.963V27.791A1.172,1.172,0,0,1,50.1,26.619h3.389a1.172,1.172,0,0,1,1.172,1.172v1.862h1.53A3.813,3.813,0,0,1,60,33.462Zm-8.728-.833h1.045V28.963H51.272Zm-6.479,2.344H41.4A1.172,1.172,0,0,1,40.232,33.8V32H37.269v1.8A1.172,1.172,0,0,1,36.1,34.973H32.708A1.172,1.172,0,0,1,31.537,33.8V32h-1.53a1.467,1.467,0,0,0-1.465,1.465V35.5H57.656V33.462A1.467,1.467,0,0,0,56.191,32h-1.53v1.8a1.172,1.172,0,0,1-1.172,1.172H50.1A1.172,1.172,0,0,1,48.928,33.8V32H45.965v1.8a1.172,1.172,0,0,1-1.172,1.172ZM34.925,32.63V28.963H33.88V32.63Zm7.651-3.667V32.63h1.045V28.963ZM33,10.928h7.207L33,3.941ZM2.344,57.656H26.491a3.788,3.788,0,0,1-.293-1.465V33.462a3.813,3.813,0,0,1,3.809-3.809h1.53V27.791a1.172,1.172,0,0,1,1.172-1.172H36.1a1.172,1.172,0,0,1,1.172,1.172v1.862h2.963V27.791A1.172,1.172,0,0,1,41.4,26.619h.523V13.272h-10.1A1.172,1.172,0,0,1,30.656,12.1V2.344H2.344Zm55.312-1.465V37.84H28.541V56.191a1.467,1.467,0,0,0,1.465,1.465H56.191a1.467,1.467,0,0,0,1.465-1.465Zm-5.781-9.2v1.521A1.673,1.673,0,0,1,50.2,50.18a.512.512,0,0,0-.361.873,1.671,1.671,0,0,1,0,2.364l-1.075,1.075a1.673,1.673,0,0,1-2.364,0,.512.512,0,0,0-.873.361,1.673,1.673,0,0,1-1.671,1.671H42.338a1.673,1.673,0,0,1-1.671-1.671.511.511,0,0,0-.873-.361,1.674,1.674,0,0,1-2.364,0l-1.076-1.076a1.671,1.671,0,0,1,0-2.364.512.512,0,0,0-.362-.873,1.673,1.673,0,0,1-1.671-1.671V46.988a1.673,1.673,0,0,1,1.671-1.672.512.512,0,0,0,.362-.873,1.671,1.671,0,0,1,0-2.364L37.43,41a1.671,1.671,0,0,1,2.364,0,.512.512,0,0,0,.873-.362,1.673,1.673,0,0,1,1.671-1.671h1.521a1.673,1.673,0,0,1,1.671,1.671A.512.512,0,0,0,46.4,41a1.671,1.671,0,0,1,2.364,0l1.075,1.075a1.672,1.672,0,0,1,0,2.364.512.512,0,0,0,.361.873,1.673,1.673,0,0,1,1.671,1.672Zm-2.344.593a2.859,2.859,0,0,1-1.766-4.262l-.237-.237a2.859,2.859,0,0,1-4.262-1.766h-.335a2.859,2.859,0,0,1-4.262,1.766l-.237.237a2.859,2.859,0,0,1-1.766,4.262v.335a2.859,2.859,0,0,1,1.766,4.263l.237.237a2.857,2.857,0,0,1,4.263,1.766h.335a2.858,2.858,0,0,1,4.262-1.766l.237-.237a2.859,2.859,0,0,1,1.766-4.263Zm-2.075.168A4.357,4.357,0,1,1,43.1,43.39,4.363,4.363,0,0,1,47.456,47.748Zm-2.344,0A2.014,2.014,0,1,0,43.1,49.762,2.016,2.016,0,0,0,45.112,47.748ZM21.447,28.176H10.423a1.172,1.172,0,1,0,0,2.344H21.447a1.172,1.172,0,0,0,0-2.344Z" transform="translate(-6777 -10881)" fill="#ea526f"/>
  </g>
</svg>
