<svg xmlns="http://www.w3.org/2000/svg" width="100" height="100" viewBox="0 0 100 100">
  <g id="Grupo_893563" data-name="Grupo 893563" transform="translate(-220 -2103)">
    <circle id="Elipse_4712" data-name="Elipse 4712" cx="50" cy="50" r="50" transform="translate(220 2103)" fill="#b3eeef"/>
    <g id="_012-scheme" data-name="012-scheme" transform="translate(221 2104)">
      <g id="Grupo_893320" data-name="Grupo 893320" transform="translate(1.438 1.438)">
        <path id="Trazado_704721" data-name="Trazado 704721" d="M210.168,360.284a1.4,1.4,0,0,1,1.4,1.4v24.8a1.4,1.4,0,0,1-1.4,1.4h-24.8a1.4,1.4,0,0,1-1.4-1.4v-24.8a1.4,1.4,0,0,1,1.4-1.4Z" transform="translate(-150.366 -292.63)" fill="#cfeffc"/>
        <path id="Trazado_704722" data-name="Trazado 704722" d="M34.946,360.284a1.4,1.4,0,0,1,1.4,1.4v24.8a1.4,1.4,0,0,1-1.4,1.4h-24.8a1.4,1.4,0,0,1-1.4-1.4v-24.8a1.4,1.4,0,0,1,1.4-1.4Z" transform="translate(-8.747 -292.63)" fill="#fbe88c"/>
        <path id="Trazado_704723" data-name="Trazado 704723" d="M385.237,360.284a1.4,1.4,0,0,1,1.4,1.4v24.8a1.4,1.4,0,0,1-1.4,1.4h-24.8a1.4,1.4,0,0,1-1.4-1.4v-24.8a1.4,1.4,0,0,1,1.4-1.4Z" transform="translate(-291.862 -292.63)" fill="#fbe88c"/>
        <path id="Trazado_704724" data-name="Trazado 704724" d="M193.613,384.7a4.721,4.721,0,0,1-4.721-4.721v-19.7h-3.527a1.4,1.4,0,0,0-1.4,1.4v24.8a1.4,1.4,0,0,0,1.4,1.4h24.8a1.4,1.4,0,0,0,1.4-1.4V384.7Z" transform="translate(-150.366 -292.63)" fill="#a9e4f9"/>
        <path id="Trazado_704725" data-name="Trazado 704725" d="M17.7,384.7a4.027,4.027,0,0,1-4.027-4.027V360.284H10.144a1.4,1.4,0,0,0-1.4,1.4v24.8a1.4,1.4,0,0,0,1.4,1.4h24.8a1.4,1.4,0,0,0,1.4-1.4V384.7Z" transform="translate(-8.747 -292.63)" fill="#fbe372"/>
        <path id="Trazado_704726" data-name="Trazado 704726" d="M368.4,384.7a4.442,4.442,0,0,1-4.442-4.442V360.284h-3.527a1.4,1.4,0,0,0-1.4,1.4v24.8a1.4,1.4,0,0,0,1.4,1.4h24.8a1.4,1.4,0,0,0,1.4-1.4V384.7Z" transform="translate(-291.862 -292.63)" fill="#fbe372"/>
        <g id="Grupo_893319" data-name="Grupo 893319" transform="translate(8.134)">
          <path id="Trazado_704727" data-name="Trazado 704727" d="M183.191,31.363H141.6a1.4,1.4,0,0,1-1.4-1.4V8.9a1.4,1.4,0,0,1,1.4-1.4h41.587a1.4,1.4,0,0,1,1.4,1.4V29.966A1.4,1.4,0,0,1,183.191,31.363Z" transform="translate(-123.131 -7.5)" fill="#ee878a"/>
          <path id="Trazado_704728" data-name="Trazado 704728" d="M150.681,27.062a2.834,2.834,0,0,1-2.834-2.834V7.5H141.6a1.4,1.4,0,0,0-1.4,1.4V29.966a1.4,1.4,0,0,0,1.4,1.4h41.587a1.4,1.4,0,0,0,1.4-1.4v-2.9H150.681Z" transform="translate(-123.131 -7.5)" fill="#ec6e73"/>
          <path id="Trazado_704729" data-name="Trazado 704729" d="M83.5,179.552a1.4,1.4,0,0,1,1.4,1.4v22.542a1.4,1.4,0,0,1-1.4,1.4H52.559a1.4,1.4,0,0,1-1.4-1.4V180.949a1.4,1.4,0,0,1,1.4-1.4Z" transform="translate(-51.162 -146.557)" fill="#9de5d1"/>
          <path id="Trazado_704730" data-name="Trazado 704730" d="M316.941,179.552a1.4,1.4,0,0,1,1.4,1.4v22.542a1.4,1.4,0,0,1-1.4,1.4H286a1.4,1.4,0,0,1-1.4-1.4V180.949a1.4,1.4,0,0,1,1.4-1.4Z" transform="translate(-239.834 -146.557)" fill="#cfeffc"/>
          <path id="Trazado_704731" data-name="Trazado 704731" d="M61.966,199.42a4.211,4.211,0,0,1-4.211-4.211V179.551h-5.2a1.4,1.4,0,0,0-1.4,1.4V203.49a1.4,1.4,0,0,0,1.4,1.4H83.5a1.4,1.4,0,0,0,1.4-1.4v-4.07H61.966Z" transform="translate(-51.162 -146.556)" fill="#82dec5"/>
          <path id="Trazado_704732" data-name="Trazado 704732" d="M295.257,199.421a4.063,4.063,0,0,1-4.063-4.063V179.552H286a1.4,1.4,0,0,0-1.4,1.4v22.542a1.4,1.4,0,0,0,1.4,1.4h30.943a1.4,1.4,0,0,0,1.4-1.4v-4.07Z" transform="translate(-239.834 -146.557)" fill="#a9e4f9"/>
        </g>
      </g>
      <g id="Grupo_893321" data-name="Grupo 893321" transform="translate(0 0)">
        <path id="Trazado_704733" data-name="Trazado 704733" d="M135.543,26.739h3.071v8.352l-.232-.232a1.438,1.438,0,0,0-2.034,2.034l2.54,2.54a1.646,1.646,0,0,0,2.328,0l2.54-2.54a1.438,1.438,0,0,0-2.034-2.034l-.232.232V26.739h29.662v8.352l-.232-.232a1.438,1.438,0,0,0-2.034,2.034l2.54,2.54a1.646,1.646,0,0,0,2.328,0l2.54-2.54a1.438,1.438,0,0,0-2.034-2.034l-.232.232V26.739h3.1a2.838,2.838,0,0,0,2.835-2.835V2.835A2.839,2.839,0,0,0,177.13,0h-9.278a1.438,1.438,0,0,0,0,2.877h9.237V23.863h-41.5V2.877h26.138a1.438,1.438,0,1,0,0-2.877H135.543a2.838,2.838,0,0,0-2.835,2.835V23.9A2.838,2.838,0,0,0,135.543,26.739Z" transform="translate(-107.497 0)"/>
        <path id="Trazado_704734" data-name="Trazado 704734" d="M46.5,200.264h5.516V208.3l-.232-.232a1.438,1.438,0,0,0-2.034,2.034l2.54,2.54a1.646,1.646,0,0,0,2.328,0l2.54-2.54a1.438,1.438,0,0,0-2.034-2.034l-.232.232v-8.034H61.5a1.438,1.438,0,1,0,0-2.877H46.539V174.929H61.033a1.438,1.438,0,1,0,0-2.877H46.5a2.838,2.838,0,0,0-2.835,2.835v22.542A2.838,2.838,0,0,0,46.5,200.264Z" transform="translate(-35.528 -139.057)"/>
        <path id="Trazado_704735" data-name="Trazado 704735" d="M204.106,352.784h-5.159a1.438,1.438,0,0,0,0,2.877h5.118V380.38H179.346V355.661h4.9a1.438,1.438,0,1,0,0-2.877H179.3a2.838,2.838,0,0,0-2.835,2.835v24.8a2.838,2.838,0,0,0,2.835,2.835h24.8a2.838,2.838,0,0,0,2.835-2.835v-24.8A2.838,2.838,0,0,0,204.106,352.784Z" transform="translate(-142.866 -285.13)"/>
        <path id="Trazado_704736" data-name="Trazado 704736" d="M177.852,200.263V208.3l-.232-.232a1.438,1.438,0,0,0-2.034,2.034l2.54,2.54a1.646,1.646,0,0,0,2.328,0L183,210.1a1.438,1.438,0,0,0-2.034-2.034l-.232.232v-8.034h28.024V208.3l-.232-.232a1.438,1.438,0,0,0-2.034,2.034l2.54,2.54a1.646,1.646,0,0,0,2.328,0l2.54-2.54a1.438,1.438,0,1,0-2.034-2.034l-.232.232v-8.034h5.516a2.838,2.838,0,0,0,2.835-2.835V174.886a2.838,2.838,0,0,0-2.835-2.835H202.611a1.438,1.438,0,1,0,0,2.877h14.494v22.459h-30.86V174.928h2.265a1.438,1.438,0,0,0,0-2.877H186.2a2.838,2.838,0,0,0-2.835,2.835v22.5h-8.154v-22.5a2.838,2.838,0,0,0-2.835-2.835h-2.308a1.438,1.438,0,1,0,0,2.877h2.265v22.459h-9.772a1.438,1.438,0,1,0,0,2.877h15.287Z" transform="translate(-130.466 -139.056)"/>
        <path id="Trazado_704737" data-name="Trazado 704737" d="M28.884,352.784H26.523a1.438,1.438,0,1,0,0,2.877h2.32V380.38H4.124V355.661h7.694a1.438,1.438,0,1,0,0-2.877H4.082a2.838,2.838,0,0,0-2.835,2.835v24.8a2.838,2.838,0,0,0,2.835,2.835h24.8a2.838,2.838,0,0,0,2.835-2.835v-24.8A2.838,2.838,0,0,0,28.884,352.784Z" transform="translate(-1.247 -285.13)"/>
        <path id="Trazado_704738" data-name="Trazado 704738" d="M379.175,352.784H371.44a1.438,1.438,0,1,0,0,2.877h7.694V380.38H354.415V355.661h2.32a1.438,1.438,0,0,0,0-2.877h-2.361a2.838,2.838,0,0,0-2.835,2.835v24.8a2.838,2.838,0,0,0,2.835,2.835h24.8a2.838,2.838,0,0,0,2.835-2.835v-24.8A2.838,2.838,0,0,0,379.175,352.784Z" transform="translate(-284.362 -285.13)"/>
      </g>
    </g>
  </g>
</svg>
