<svg xmlns="http://www.w3.org/2000/svg" width="100" height="100" viewBox="0 0 100 100">
  <g id="Grupo_893564" data-name="Grupo 893564" transform="translate(-850 -2103)">
    <circle id="Elipse_4736" data-name="Elipse 4736" cx="50" cy="50" r="50" transform="translate(850 2103)" fill="#b3eeef"/>
    <g id="_022-team" data-name="022-team" transform="translate(851 2104)">
      <g id="Grupo_893381" data-name="Grupo 893381" transform="translate(1.121 1.438)">
        <path id="Trazado_704906" data-name="Trazado 704906" d="M339.691,165.969a17.513,17.513,0,0,0-9.032,32.515l3.652-1.014h12.768l1.8.918a17.512,17.512,0,0,0-9.188-32.419Z" transform="translate(-261.516 -135.638)" fill="#9de5d1"/>
        <path id="Trazado_704907" data-name="Trazado 704907" d="M182.024,7.809a17.513,17.513,0,0,0-9.032,32.515l2.739-1.689,12.834.171,2.648,1.422a17.512,17.512,0,0,0-9.188-32.419Z" transform="translate(-134.085 -7.809)" fill="#cfeffc"/>
        <ellipse id="Elipse_4778" data-name="Elipse 4778" cx="11.922" cy="12.219" rx="11.922" ry="12.219" transform="translate(36.095 5.292)" fill="#a9e4f9"/>
        <g id="Grupo_893380" data-name="Grupo 893380" transform="translate(0 5.753)">
          <g id="Grupo_893375" data-name="Grupo 893375" transform="translate(38.906 9.855)">
            <path id="Trazado_704908" data-name="Trazado 704908" d="M226.943,106.01a17.524,17.524,0,0,1-18.22.1V104.1a5.319,5.319,0,0,1,2.5-4.51l3.4-2.129V89.2h6.4v8.262l3.4,2.129a5.321,5.321,0,0,1,2.5,4.51Z" transform="translate(-208.723 -89.199)" fill="#f9f7f7"/>
          </g>
          <path id="Trazado_704909" data-name="Trazado 704909" d="M221.021,90.866V89.2h-6.4v8.262l-3.4,2.129a5.319,5.319,0,0,0-2.5,4.51v2.006a17.431,17.431,0,0,0,2.565,1.273v-1.612a5.319,5.319,0,0,1,2.5-4.51l2.276-1.425a2.4,2.4,0,0,0,1.124-2.03.373.373,0,0,1,.383-.375q.126,0,.253,0a9.956,9.956,0,0,0,3.2-.528V93.315h-3.835V90.866Z" transform="translate(-169.817 -79.344)" fill="#f2eae7"/>
          <ellipse id="Elipse_4779" data-name="Elipse 4779" cx="8.084" cy="8.084" rx="8.084" ry="8.084" transform="translate(39.921)" fill="#f9f7f7"/>
          <path id="Trazado_704910" data-name="Trazado 704910" d="M217.387,45.894a8.479,8.479,0,0,1,5.733-8.02,8.18,8.18,0,0,0-1.023-.064,8.084,8.084,0,0,0,0,16.169,8.18,8.18,0,0,0,1.023-.064A8.48,8.48,0,0,1,217.387,45.894Z" transform="translate(-174.092 -37.81)" fill="#f2eae7"/>
          <path id="Trazado_704911" data-name="Trazado 704911" d="M23.356,165.677a17.513,17.513,0,0,0-9.032,32.515l3.3-1.718h13.4l1.519,1.623a17.512,17.512,0,0,0-9.188-32.419Z" transform="translate(-5.845 -141.156)" fill="#fcf0b6"/>
          <ellipse id="Elipse_4780" data-name="Elipse 4780" cx="11.922" cy="12.219" rx="11.922" ry="12.219" transform="translate(5.667 29.813)" fill="#fbe372"/>
          <g id="Grupo_893376" data-name="Grupo 893376" transform="translate(8.478 40.13)">
            <path id="Trazado_704912" data-name="Trazado 704912" d="M68.275,263.878a17.524,17.524,0,0,1-18.22.1v-2.006a5.319,5.319,0,0,1,2.5-4.51l3.4-2.129v-8.262h6.4v8.262l3.4,2.129a5.321,5.321,0,0,1,2.5,4.51Z" transform="translate(-50.055 -247.067)" fill="#f9f7f7"/>
          </g>
          <path id="Trazado_704913" data-name="Trazado 704913" d="M62.353,248.733v-1.667h-6.4v8.262l-3.4,2.129a5.319,5.319,0,0,0-2.5,4.51v2.006a17.436,17.436,0,0,0,2.565,1.273v-1.612a5.319,5.319,0,0,1,2.5-4.51l2.276-1.425a2.4,2.4,0,0,0,1.124-2.03.373.373,0,0,1,.383-.375q.126,0,.253,0a9.956,9.956,0,0,0,3.2-.528v-3.588H58.519v-2.449Z" transform="translate(-41.577 -206.936)" fill="#f2eae7"/>
          <ellipse id="Elipse_4781" data-name="Elipse 4781" cx="8.084" cy="8.084" rx="8.084" ry="8.084" transform="translate(9.493 30.275)" fill="#f9f7f7"/>
          <path id="Trazado_704914" data-name="Trazado 704914" d="M58.72,203.761a8.479,8.479,0,0,1,5.733-8.02,8.178,8.178,0,0,0-1.023-.064,8.084,8.084,0,1,0,0,16.169,8.178,8.178,0,0,0,1.023-.064A8.479,8.479,0,0,1,58.72,203.761Z" transform="translate(-45.853 -165.402)" fill="#f2eae7"/>
          <g id="XMLID_198_" transform="translate(30.428 54.771)">
            <g id="Grupo_893377" data-name="Grupo 893377">
              <path id="Trazado_704915" data-name="Trazado 704915" d="M172.991,355.927a17.524,17.524,0,1,1,9.032,2.506A17.5,17.5,0,0,1,172.991,355.927Z" transform="translate(-164.513 -323.412)" fill="#f09ea2"/>
            </g>
          </g>
          <ellipse id="Elipse_4782" data-name="Elipse 4782" cx="11.922" cy="12.219" rx="11.922" ry="12.219" transform="translate(36.095 60.063)" fill="#ee878a"/>
          <g id="Grupo_893378" data-name="Grupo 893378" transform="translate(38.906 70.379)">
            <path id="Trazado_704916" data-name="Trazado 704916" d="M226.943,421.613a17.524,17.524,0,0,1-18.22.1V419.7a5.319,5.319,0,0,1,2.5-4.51l3.4-2.129V404.8h6.4v8.262l3.4,2.129a5.322,5.322,0,0,1,2.5,4.51Z" transform="translate(-208.723 -404.802)" fill="#f9f7f7"/>
          </g>
          <path id="Trazado_704917" data-name="Trazado 704917" d="M221.021,406.469V404.8h-6.4v8.262l-3.4,2.129a5.319,5.319,0,0,0-2.5,4.51v2.006a17.441,17.441,0,0,0,2.565,1.273V421.37a5.319,5.319,0,0,1,2.5-4.51l2.276-1.425a2.4,2.4,0,0,0,1.124-2.03.373.373,0,0,1,.383-.375q.126,0,.253,0a9.955,9.955,0,0,0,3.2-.528v-3.588h-3.835v-2.449h3.835Z" transform="translate(-169.817 -334.423)" fill="#f2eae7"/>
          <ellipse id="Elipse_4783" data-name="Elipse 4783" cx="8.084" cy="8.084" rx="8.084" ry="8.084" transform="translate(39.921 60.524)" fill="#f9f7f7"/>
          <path id="Trazado_704918" data-name="Trazado 704918" d="M217.387,361.5a8.479,8.479,0,0,1,5.733-8.02,8.189,8.189,0,0,0-1.023-.064,8.084,8.084,0,0,0,0,16.169,8.177,8.177,0,0,0,1.023-.064A8.479,8.479,0,0,1,217.387,361.5Z" transform="translate(-174.092 -292.889)" fill="#f2eae7"/>
          <ellipse id="Elipse_4784" data-name="Elipse 4784" cx="11.922" cy="12.219" rx="11.922" ry="12.219" transform="translate(66.331 29.87)" fill="#82dec5"/>
          <g id="Grupo_893379" data-name="Grupo 893379" transform="translate(69.143 40.186)">
            <path id="Trazado_704919" data-name="Trazado 704919" d="M384.61,264.171a17.524,17.524,0,0,1-18.22.1v-2.006a5.319,5.319,0,0,1,2.5-4.51l3.4-2.129V247.36h6.4v8.262l3.4,2.129a5.321,5.321,0,0,1,2.5,4.51Z" transform="translate(-366.39 -247.36)" fill="#f9f7f7"/>
          </g>
          <path id="Trazado_704920" data-name="Trazado 704920" d="M378.688,249.026v-1.667h-6.4v8.262l-3.4,2.129a5.319,5.319,0,0,0-2.5,4.51v2.006a17.428,17.428,0,0,0,2.565,1.273v-1.612a5.319,5.319,0,0,1,2.5-4.51l2.276-1.425a2.4,2.4,0,0,0,1.124-2.03.373.373,0,0,1,.383-.375q.126,0,.253,0a9.956,9.956,0,0,0,3.2-.528v-3.588h-3.834v-2.449h3.834Z" transform="translate(-297.247 -207.173)" fill="#f2eae7"/>
          <ellipse id="Elipse_4785" data-name="Elipse 4785" cx="8.084" cy="8.084" rx="8.084" ry="8.084" transform="translate(70.157 30.331)" fill="#f9f7f7"/>
          <path id="Trazado_704921" data-name="Trazado 704921" d="M375.055,204.054a8.479,8.479,0,0,1,5.733-8.02,8.181,8.181,0,0,0-1.023-.064,8.084,8.084,0,1,0,0,16.169,8.178,8.178,0,0,0,1.023-.064A8.479,8.479,0,0,1,375.055,204.054Z" transform="translate(-301.524 -165.639)" fill="#f2eae7"/>
        </g>
      </g>
      <path id="Trazado_704922" data-name="Trazado 704922" d="M98.311,49.677A18.981,18.981,0,0,0,83.261,31.133a38.8,38.8,0,0,0-15.63-15.64A18.864,18.864,0,0,0,65.247,9.4a1.438,1.438,0,0,0-2.456,1.5,16.057,16.057,0,0,1-3.186,20.47,6.7,6.7,0,0,0-1.1-2.9,13.2,13.2,0,1,0-18.808.08,6.71,6.71,0,0,0-1.059,2.93,16.067,16.067,0,0,1,20.4-24.823A1.438,1.438,0,1,0,60.819,4.4,18.749,18.749,0,0,0,49.06.309,18.981,18.981,0,0,0,30.487,15.493,38.79,38.79,0,0,0,14.833,31.18a18.95,18.95,0,0,0,0,36.993,38.781,38.781,0,0,0,15.8,15.771,18.95,18.95,0,0,0,36.868,0A38.784,38.784,0,0,0,83.265,68.221,18.981,18.981,0,0,0,98.311,49.677ZM56.419,26.483l-2.655-1.662V23.9a9.528,9.528,0,0,0,4.885-8.313c0-.047,0-.094,0-.142a10.3,10.3,0,0,1-2.228,11.039ZM42.48,15.585a6.646,6.646,0,1,1,6.646,6.646A6.654,6.654,0,0,1,42.48,15.585Zm-3.739,3.673a10.255,10.255,0,0,1,.876-4.158c-.008.161-.014.322-.014.485A9.528,9.528,0,0,0,44.489,23.9v.924l-2.726,1.706-.011.007a10.267,10.267,0,0,1-3.011-7.277Zm2.725,13a3.861,3.861,0,0,1,1.823-3.291l3.4-2.128a1.438,1.438,0,0,0,.675-1.219v-.676a9.432,9.432,0,0,0,3.522,0v.676a1.439,1.439,0,0,0,.675,1.219l3.4,2.128a3.86,3.86,0,0,1,1.823,3.291v1.089a16.039,16.039,0,0,1-15.32.073V32.257ZM2.877,49.677A16.072,16.072,0,1,1,29.495,61.79a6.7,6.7,0,0,0-1.1-2.9,13.2,13.2,0,1,0-18.808.079A6.707,6.707,0,0,0,8.525,61.9,16.037,16.037,0,0,1,2.877,49.677Zm8.478,14.161V62.676a3.861,3.861,0,0,1,1.823-3.291l3.4-2.128a1.438,1.438,0,0,0,.675-1.219v-.676a9.431,9.431,0,0,0,3.522,0v.676a1.438,1.438,0,0,0,.675,1.219l3.4,2.129a3.86,3.86,0,0,1,1.823,3.291v1.089a16.038,16.038,0,0,1-15.32.073ZM26.308,56.9l-2.655-1.662v-.924A9.528,9.528,0,0,0,28.538,46c0-.047,0-.094,0-.141A10.3,10.3,0,0,1,26.308,56.9ZM12.369,46a6.646,6.646,0,1,1,6.646,6.646A6.654,6.654,0,0,1,12.369,46Zm2.008,8.313v.924l-2.726,1.706-.011.007A10.3,10.3,0,0,1,9.506,45.521c-.008.16-.014.321-.014.483A9.529,9.529,0,0,0,14.378,54.317Zm27.089,39.4V92.552a3.86,3.86,0,0,1,1.823-3.291l3.4-2.128a1.438,1.438,0,0,0,.675-1.219v-.676a9.432,9.432,0,0,0,3.522,0v.676a1.438,1.438,0,0,0,.675,1.219l3.4,2.129a3.86,3.86,0,0,1,1.823,3.291v1.089a16.039,16.039,0,0,1-15.32.073Zm14.953-6.936-2.655-1.662v-.924a9.528,9.528,0,0,0,4.885-8.313c0-.049,0-.1,0-.145a10.3,10.3,0,0,1-2.227,11.043ZM49.126,69.234A6.646,6.646,0,1,1,42.48,75.88,6.654,6.654,0,0,1,49.126,69.234ZM59.605,91.666a6.7,6.7,0,0,0-1.1-2.9,13.194,13.194,0,1,0-22.639-9.209c0,.268.009.544.029.846a1.438,1.438,0,0,0,2.871-.183c-.015-.24-.023-.456-.023-.663a10.26,10.26,0,0,1,.876-4.158c-.008.161-.014.322-.014.485a9.528,9.528,0,0,0,4.885,8.313v.924l-2.726,1.706,0,0a10.374,10.374,0,0,1-1.147-1.358,1.438,1.438,0,0,0-2.354,1.653A13.3,13.3,0,0,0,39.7,88.84a6.709,6.709,0,0,0-1.06,2.932,16.073,16.073,0,1,1,20.97-.106ZM86.665,56.95l-.006,0-2.726-1.706v-.924A9.528,9.528,0,0,0,88.819,46c0-.162-.006-.323-.014-.484a10.283,10.283,0,0,1-2.14,11.43ZM72.65,46A6.646,6.646,0,1,1,79.3,52.651,6.654,6.654,0,0,1,72.65,46Zm2.008,8.313v.924L72,56.9a10.3,10.3,0,0,1-2.227-11.044c0,.049,0,.1,0,.146A9.529,9.529,0,0,0,74.658,54.317Zm-3.023,8.359a3.86,3.86,0,0,1,1.823-3.291l3.4-2.128a1.438,1.438,0,0,0,.675-1.219v-.676a9.431,9.431,0,0,0,3.522,0v.676a1.438,1.438,0,0,0,.675,1.219l3.4,2.129a3.86,3.86,0,0,1,1.823,3.291v1.162a16.095,16.095,0,0,1-15.321-.057v-1.1Zm18.15-.78a6.71,6.71,0,0,0-1.059-2.93,13.2,13.2,0,1,0-18.808-.079,6.7,6.7,0,0,0-1.106,2.929,16.087,16.087,0,0,1-4.333-6.061,1.438,1.438,0,1,0-2.663,1.089A18.886,18.886,0,0,0,79.363,68.626c.114,0,.227,0,.34,0A35.859,35.859,0,0,1,67.991,80.329c.01-.258.017-.516.017-.776a18.949,18.949,0,0,0-37.9,0c0,.259.007.516.017.773A36.569,36.569,0,0,1,18.419,68.618c.176,0,.352.008.529.008a18.949,18.949,0,1,0,0-37.9q-.266,0-.529.008a35.869,35.869,0,0,1,11.694-11.7c0,.074,0,.147,0,.221a18.949,18.949,0,0,0,37.9,0c0-.072,0-.145,0-.217A35.868,35.868,0,0,1,79.7,30.733c-.112,0-.223,0-.335,0A18.97,18.97,0,0,0,60.414,49.677c0,.216,0,.431.012.645a1.438,1.438,0,0,0,2.875-.1c-.006-.182-.01-.364-.01-.548A16.072,16.072,0,1,1,89.786,61.9Z" transform="translate(0 -0.309)"/>
    </g>
  </g>
</svg>
