<svg xmlns="http://www.w3.org/2000/svg" width="100" height="100" viewBox="0 0 100 100">
  <g id="Grupo_893566" data-name="Grupo 893566" transform="translate(-216 -2403)">
    <circle id="Elipse_4738" data-name="Elipse 4738" cx="50" cy="50" r="50" transform="translate(216 2403)" fill="#b3eeef"/>
    <g id="_042-team" data-name="042-team" transform="translate(217 2409)">
      <g id="Grupo_893512" data-name="Grupo 893512" transform="translate(1.399 0.885)">
        <path id="Trazado_705495" data-name="Trazado 705495" d="M167.925,33.221a20.76,20.76,0,0,0-10.217,38.834l3.09-2.324h14.971l2.558,2.225a20.765,20.765,0,0,0-10.4-38.735Z" transform="translate(-120.339 -33.221)" fill="#ee878a"/>
        <path id="Trazado_705496" data-name="Trazado 705496" d="M160.911,68.986A20.755,20.755,0,0,1,171.59,33.543,20.766,20.766,0,0,0,157.7,72.059Z" transform="translate(-120.339 -33.222)" fill="#ec6e73"/>
        <g id="Grupo_893511" data-name="Grupo 893511" transform="translate(0 8.634)">
          <g id="XMLID_248_" transform="translate(37.365 10.003)">
            <g id="Grupo_893508" data-name="Grupo 893508">
              <path id="Trazado_705497" data-name="Trazado 705497" d="M222.757,150.5a20.784,20.784,0,0,1-20.622.1l.069-2.378a5.981,5.981,0,0,1,2.808-5.069l3.822-2.393V130.408h7.191v10.359l3.822,2.393a5.974,5.974,0,0,1,2.808,5.069Z" transform="translate(-202.135 -130.408)" fill="#f9f7f7"/>
            </g>
          </g>
          <path id="Trazado_705498" data-name="Trazado 705498" d="M210.331,157.729V159h-1.5v3.845l-3.822,2.393a5.981,5.981,0,0,0-2.808,5.069l-.069,2.378a24.606,24.606,0,0,0,2.5,1.2l.08-2.47a5.981,5.981,0,0,1,2.808-5.069l3.368-2.109a.969.969,0,0,0,.455-.821.967.967,0,0,1,.983-.965h.1a10.837,10.837,0,0,0,3.595-.613v-4.118Z" transform="translate(-164.77 -142.486)" fill="#f2eae7"/>
          <ellipse id="Elipse_4803" data-name="Elipse 4803" cx="9.086" cy="9.086" rx="9.086" ry="9.086" transform="translate(38.574)" fill="#f9f7f7"/>
          <path id="Trazado_705499" data-name="Trazado 705499" d="M211.714,87.331a9.094,9.094,0,0,1,7.456-8.938,9.2,9.2,0,0,0-1.641-.148,9.086,9.086,0,1,0,1.638,18.025A9.091,9.091,0,0,1,211.714,87.331Z" transform="translate(-169.869 -78.245)" fill="#f2eae7"/>
          <path id="Trazado_705500" data-name="Trazado 705500" d="M315.14,266.364a20.054,20.054,0,0,0-9.87,37.513l2.985-2.245h14.461l2.471,2.149a20.058,20.058,0,0,0-10.048-37.417Z" transform="translate(-239.894 -230.288)" fill="#cfeffc"/>
          <path id="Trazado_705501" data-name="Trazado 705501" d="M308.366,300.912a20.049,20.049,0,0,1,10.316-34.237,20.06,20.06,0,0,0-13.414,37.2Z" transform="translate(-239.894 -230.289)" fill="#a9e4f9"/>
          <g id="XMLID_250_" transform="translate(65.373 54.08)">
            <g id="Grupo_893509" data-name="Grupo 893509" transform="translate(0 0)">
              <path id="Trazado_705502" data-name="Trazado 705502" d="M368.107,379.657a20.076,20.076,0,0,1-19.921.1l.067-2.3a5.777,5.777,0,0,1,2.712-4.9l3.692-2.312V360.244H361.6v10.007l3.692,2.312a5.77,5.77,0,0,1,2.712,4.9Z" transform="translate(-348.186 -360.244)" fill="#f9f7f7"/>
            </g>
          </g>
          <path id="Trazado_705503" data-name="Trazado 705503" d="M356.1,386.636v1.231h-1.446v3.714l-3.692,2.312a5.777,5.777,0,0,0-2.712,4.9l-.067,2.3a23.706,23.706,0,0,0,2.414,1.163l.077-2.386a5.778,5.778,0,0,1,2.712-4.9l3.253-2.037a.936.936,0,0,0,.439-.793.934.934,0,0,1,.949-.932h.1a10.466,10.466,0,0,0,3.472-.592v-3.978Z" transform="translate(-282.812 -327.495)" fill="#f2eae7"/>
          <ellipse id="Elipse_4804" data-name="Elipse 4804" cx="8.777" cy="8.777" rx="8.777" ry="8.777" transform="translate(66.542 44.417)" fill="#f9f7f7"/>
          <path id="Trazado_705504" data-name="Trazado 705504" d="M357.438,318.633a8.784,8.784,0,0,1,7.2-8.634,8.884,8.884,0,0,0-1.585-.143,8.777,8.777,0,1,0,1.582,17.412A8.782,8.782,0,0,1,357.438,318.633Z" transform="translate(-287.737 -265.439)" fill="#f2eae7"/>
          <path id="Trazado_705505" data-name="Trazado 705505" d="M27.354,265.364a20.054,20.054,0,0,0-9.87,37.513l2.985-2.245H34.931L37.4,302.78a20.058,20.058,0,0,0-10.048-37.417Z" transform="translate(-7.297 -229.48)" fill="#9de5d1"/>
          <path id="Trazado_705506" data-name="Trazado 705506" d="M20.58,299.912A20.049,20.049,0,0,1,30.9,265.675a20.06,20.06,0,0,0-13.414,37.2Z" transform="translate(-7.298 -229.481)" fill="#82dec5"/>
          <g id="XMLID_251_" transform="translate(10.184 53.888)">
            <g id="Grupo_893510" data-name="Grupo 893510" transform="translate(0 0)">
              <path id="Trazado_705507" data-name="Trazado 705507" d="M80.321,378.657a20.076,20.076,0,0,1-19.921.1l.067-2.3a5.777,5.777,0,0,1,2.712-4.9l3.692-2.312V359.244h6.947v10.007l3.692,2.312a5.77,5.77,0,0,1,2.712,4.9Z" transform="translate(-60.4 -359.244)" fill="#f9f7f7"/>
            </g>
          </g>
          <path id="Trazado_705508" data-name="Trazado 705508" d="M68.317,385.635v1.231H66.871v3.714l-3.692,2.312a5.777,5.777,0,0,0-2.712,4.9l-.067,2.3a23.71,23.71,0,0,0,2.414,1.163l.077-2.386a5.777,5.777,0,0,1,2.712-4.9l3.253-2.037a.936.936,0,0,0,.439-.793.934.934,0,0,1,.949-.932h.1a10.467,10.467,0,0,0,3.472-.592v-3.978h-5.5Z" transform="translate(-50.216 -326.686)" fill="#f2eae7"/>
          <ellipse id="Elipse_4805" data-name="Elipse 4805" cx="8.777" cy="8.777" rx="8.777" ry="8.777" transform="translate(11.352 44.225)" fill="#f9f7f7"/>
          <path id="Trazado_705509" data-name="Trazado 705509" d="M69.652,317.633a8.784,8.784,0,0,1,7.2-8.634,8.884,8.884,0,0,0-1.585-.143,8.777,8.777,0,1,0,1.582,17.412A8.782,8.782,0,0,1,69.652,317.633Z" transform="translate(-55.14 -264.631)" fill="#f2eae7"/>
        </g>
      </g>
      <path id="Trazado_705510" data-name="Trazado 705510" d="M76.522,72.51A21.669,21.669,0,0,0,57.274,84.26L50.6,80.814V71.847A21.645,21.645,0,0,0,65.533,36.182a1.438,1.438,0,0,0-2.185,1.871,18.756,18.756,0,0,1-2.812,27.062,7.213,7.213,0,0,0-3.395-5.737L54.1,57.473V56.31a10.282,10.282,0,1,0-9.877,0v1.163l-3.045,1.906a7.212,7.212,0,0,0-3.4,5.846,18.767,18.767,0,0,1,21.244-30.9,1.438,1.438,0,0,0,1.525-2.439A21.647,21.647,0,1,0,47.719,71.856v8.957l-6.793,3.505A21.649,21.649,0,0,0,.845,100.163a1.438,1.438,0,1,0,2.764-.8A18.774,18.774,0,1,1,33.1,109.018a7.213,7.213,0,0,0-3.395-5.737l-3.045-1.906v-1.163a10.282,10.282,0,1,0-9.876,0v1.163l-3.045,1.906a7.212,7.212,0,0,0-3.4,5.85A18.8,18.8,0,0,1,6.2,104.823a1.438,1.438,0,0,0-2.366,1.637A21.647,21.647,0,0,0,42.065,86.969l7.092-3.66,6.969,3.6a21.647,21.647,0,1,0,20.4-14.4ZM14.314,91.2A7.406,7.406,0,1,1,21.72,98.6,7.414,7.414,0,0,1,14.314,91.2Zm-1.11,19.72v-1.482a4.357,4.357,0,0,1,2.058-3.715l3.721-2.328a1.438,1.438,0,0,0,.675-1.219v-.9a10.326,10.326,0,0,0,4.123,0v.9a1.438,1.438,0,0,0,.675,1.219l3.721,2.328a4.357,4.357,0,0,1,2.058,3.715v1.41a18.737,18.737,0,0,1-17.03.072ZM41.751,47.294A7.406,7.406,0,1,1,49.157,54.7,7.414,7.414,0,0,1,41.751,47.294ZM40.642,65.532A4.357,4.357,0,0,1,42.7,61.817l3.721-2.328a1.438,1.438,0,0,0,.675-1.219v-.9a10.326,10.326,0,0,0,4.123,0v.9a1.438,1.438,0,0,0,.675,1.219l3.721,2.328a4.357,4.357,0,0,1,2.058,3.715v1.41a18.744,18.744,0,0,1-17.03.074V65.532Zm27.292,45.313v-1.41a4.357,4.357,0,0,1,2.058-3.715l3.721-2.328a1.438,1.438,0,0,0,.675-1.219v-.9a10.326,10.326,0,0,0,4.123,0v.9a1.438,1.438,0,0,0,.675,1.219l3.721,2.328a4.357,4.357,0,0,1,2.058,3.715v1.483a18.744,18.744,0,0,1-17.03-.074Zm19.9-1.717a7.212,7.212,0,0,0-3.4-5.846l-3.045-1.906v-1.163a10.277,10.277,0,0,0,4.8-12.306,1.438,1.438,0,1,0-2.725.92,7.406,7.406,0,1,1-3.253-4.007,1.438,1.438,0,0,0,1.465-2.476,10.281,10.281,0,1,0-10.166,17.869v1.163l-3.045,1.906a7.213,7.213,0,0,0-3.395,5.737,18.77,18.77,0,1,1,22.76.109Z" transform="translate(0 -28.607)"/>
    </g>
  </g>
</svg>
