<svg xmlns="http://www.w3.org/2000/svg" width="100" height="100" viewBox="0 0 100 100">
  <g id="Grupo_893565" data-name="Grupo 893565" transform="translate(-869 -2412)">
    <circle id="Elipse_4737" data-name="Elipse 4737" cx="50" cy="50" r="50" transform="translate(869 2412)" fill="#b3eeef"/>
    <g id="_016-presentation" data-name="016-presentation" transform="translate(873 2412)">
      <g id="Grupo_893342" data-name="Grupo 893342" transform="translate(1.438 1.438)">
        <path id="Trazado_704793" data-name="Trazado 704793" d="M34.817,21.633h84.906V85.574H34.817Z" transform="translate(-31.93 -18.923)" fill="#f9f7f7"/>
        <path id="Trazado_704794" data-name="Trazado 704794" d="M119.723,29.5V21.633H34.817V85.574h84.906V77.711h-70.2a5.189,5.189,0,0,1-5.189-5.189V34.685A5.189,5.189,0,0,1,49.524,29.5Z" transform="translate(-31.93 -18.923)" fill="#f2eae7"/>
        <path id="Trazado_704795" data-name="Trazado 704795" d="M356.532,374.437l-6.17-24.569-1.479-4.583-7.013.315,1.153,4.269,6.313,25.138a1.168,1.168,0,0,0,1.133.884H355.4A1.168,1.168,0,0,0,356.532,374.437Z" transform="translate(-280.099 -280.506)" fill="#e1dee2"/>
        <path id="Trazado_704796" data-name="Trazado 704796" d="M102.246,343.482l-1.174,4.929L94.9,372.98a1.168,1.168,0,0,0,1.133,1.452h4.931a1.168,1.168,0,0,0,1.133-.883l6.313-25.138,1.779-4.929Z" transform="translate(-80.464 -279.05)" fill="#e1dee2"/>
        <g id="Grupo_893341" data-name="Grupo 893341">
          <path id="Trazado_704797" data-name="Trazado 704797" d="M350.362,349.867l-1.479-4.583-7.013.315,1.153,4.269.722,2.877h7.339Z" transform="translate(-280.099 -280.506)" fill="#cac5cb"/>
          <path id="Trazado_704798" data-name="Trazado 704798" d="M124.181,348.411l-.722,2.877H130.8l.722-2.877,1.779-4.929h-7.944Z" transform="translate(-103.573 -279.05)" fill="#cac5cb"/>
          <path id="Trazado_704799" data-name="Trazado 704799" d="M108.967,334.052H21.237a1.475,1.475,0,0,0-1.475,1.475v3.788a1.475,1.475,0,0,0,1.475,1.475h87.73a1.475,1.475,0,0,0,1.475-1.475v-3.788A1.475,1.475,0,0,0,108.967,334.052Z" transform="translate(-19.762 -271.428)" fill="#b3adb5"/>
          <path id="Trazado_704800" data-name="Trazado 704800" d="M108.967,7.5H21.237a1.475,1.475,0,0,0-1.475,1.475v3.788a1.475,1.475,0,0,0,1.475,1.475h87.73a1.475,1.475,0,0,0,1.475-1.475V8.975A1.475,1.475,0,0,0,108.967,7.5Z" transform="translate(-19.762 -7.5)" fill="#b3adb5"/>
          <path id="Trazado_704801" data-name="Trazado 704801" d="M108.64,229.827h-5.42a.947.947,0,0,0-.947.947v11.613h7.315V230.774A.948.948,0,0,0,108.64,229.827Z" transform="translate(-86.45 -187.191)" fill="#9de5d1"/>
          <path id="Trazado_704802" data-name="Trazado 704802" d="M176.488,138.736h-5.42a.947.947,0,0,0-.947.947v29.082h7.315V139.683A.948.948,0,0,0,176.488,138.736Z" transform="translate(-141.286 -113.569)" fill="#fbe88c"/>
          <path id="Trazado_704803" data-name="Trazado 704803" d="M244.336,200.235h-5.42a.947.947,0,0,0-.947.947V218.47h7.315V201.182A.948.948,0,0,0,244.336,200.235Z" transform="translate(-196.123 -163.274)" fill="#9de5d1"/>
          <path id="Trazado_704804" data-name="Trazado 704804" d="M312.185,76.7h-5.42a.947.947,0,0,0-.947.947v40.978h7.315V77.646A.948.948,0,0,0,312.185,76.7Z" transform="translate(-250.96 -63.429)" fill="#fbe88c"/>
          <path id="Trazado_704805" data-name="Trazado 704805" d="M380.033,148.466h-5.42a.947.947,0,0,0-.947.947v27.216h7.315V149.414A.948.948,0,0,0,380.033,148.466Z" transform="translate(-305.797 -121.433)" fill="#9de5d1"/>
        </g>
      </g>
      <g id="Grupo_893343" data-name="Grupo 893343" transform="translate(0 0)">
        <path id="Trazado_704806" data-name="Trazado 704806" d="M105.819,6.7V2.913A2.916,2.916,0,0,0,102.905,0H15.175a2.916,2.916,0,0,0-2.913,2.913V6.7a2.916,2.916,0,0,0,2.887,2.912V62.625a2.916,2.916,0,0,0-2.887,2.912v3.788a2.916,2.916,0,0,0,2.913,2.913h17.29L26.744,95.019a2.606,2.606,0,0,0,2.528,3.241H34.2a2.6,2.6,0,0,0,2.528-1.971l3.116-12.406H78.427l3.116,12.406a2.6,2.6,0,0,0,2.528,1.971H89a2.606,2.606,0,0,0,2.528-3.241L85.808,72.237h17.1a2.916,2.916,0,0,0,2.913-2.913V65.536a2.916,2.916,0,0,0-2.887-2.912V9.613A2.916,2.916,0,0,0,105.819,6.7Zm-5.764,55.923H18.026V9.614h82.029ZM15.139,2.913a.037.037,0,0,1,.037-.037h87.73a.037.037,0,0,1,.037.037V6.7a.037.037,0,0,1-.037.037H15.175a.037.037,0,0,1-.037-.037Zm18.853,92.47H29.618l5.812-23.145H39.8Zm54.662,0H84.281L78.469,72.238h4.373Zm14.288-26.058a.037.037,0,0,1-.036.037H68.558a1.438,1.438,0,1,0,0,2.877H75.5l2.2,8.767H40.568l2.2-8.767H62.428a1.438,1.438,0,0,0,0-2.877H15.175a.036.036,0,0,1-.036-.037V65.537a.037.037,0,0,1,.036-.037h87.73a.036.036,0,0,1,.036.037v3.788Z" transform="translate(-12.262 0)"/>
        <path id="Trazado_704807" data-name="Trazado 704807" d="M59.5,116.31a1.438,1.438,0,1,0,1.945-2.119L61.238,114h66.818l-.206.189a1.438,1.438,0,0,0,1.945,2.119l2.769-2.541a1.634,1.634,0,0,0,0-2.413l-2.768-2.54a1.438,1.438,0,1,0-1.945,2.119l.206.189h-2.223V85.348a2.388,2.388,0,0,0-2.386-2.386h-5.42a2.388,2.388,0,0,0-2.386,2.386v25.777h-2.82V85.263a1.438,1.438,0,1,0-2.877,0v25.862h-4.438V72.076h4.438v7.058a1.438,1.438,0,0,0,2.877,0V71.585a2.388,2.388,0,0,0-2.386-2.386h-5.42a2.388,2.388,0,0,0-2.386,2.386v39.54H99.81V95.275a2.388,2.388,0,0,0-2.386-2.386H92a2.388,2.388,0,0,0-2.386,2.386v15.849H86.8V83.482A2.388,2.388,0,0,0,84.413,81.1h-5.42a2.388,2.388,0,0,0-2.386,2.386v16.606a1.438,1.438,0,1,0,2.877,0V83.973h4.438v27.152H79.484v-4.908a1.438,1.438,0,1,0-2.877,0v4.908h-2.82V100.95A2.388,2.388,0,0,0,71.4,98.564h-5.42A2.388,2.388,0,0,0,63.6,100.95v10.175H61.238l.206-.189a1.438,1.438,0,1,0-1.945-2.119l-2.768,2.54a1.634,1.634,0,0,0,0,2.413Zm59.019-30.471h4.438v25.286h-4.438ZM92.5,95.766h4.438v15.358H92.5Zm-26.023,5.675h4.438v9.684H66.473Z" transform="translate(-47.773 -55.929)"/>
      </g>
    </g>
  </g>
</svg>
