<svg xmlns="http://www.w3.org/2000/svg" width="100" height="100" viewBox="0 0 100 100">
  <g id="Grupo_80119" data-name="Grupo 80119" transform="translate(-209 -1333)">
    <circle id="Elipse_4717" data-name="Elipse 4717" cx="50" cy="50" r="50" transform="translate(209 1333)" fill="#b3eeef"/>
    <path id="project-management" d="M56.457,28.859H54.623v-.565a2.087,2.087,0,0,0-2.086-2.083H51.264a2.087,2.087,0,0,0-2.086,2.083v.565h-4.77v-.565a2.087,2.087,0,0,0-1.854-2.069V.94A.937.937,0,0,0,41.617,0H.955A.937.937,0,0,0,.018.94V59.07a.937.937,0,0,0,.937.937h55.5a3.458,3.458,0,0,0,3.561-3.335V32.191a3.456,3.456,0,0,0-3.561-3.332Zm-5.4-.565a.214.214,0,0,1,.212-.209h1.272a.214.214,0,0,1,.213.209v3.7a.214.214,0,0,1-.213.209H51.264a.214.214,0,0,1-.212-.209Zm-1.874,2.438v1.259a2.087,2.087,0,0,0,2.086,2.083h1.272a2.087,2.087,0,0,0,2.086-2.083V30.732h1.834a1.587,1.587,0,0,1,1.687,1.458v3.432h-32.4V32.191a1.587,1.587,0,0,1,1.688-1.458h1.312v1.259a2.087,2.087,0,0,0,2.086,2.083h1.272a2.087,2.087,0,0,0,2.086-2.083V30.732h4.77v1.259a2.087,2.087,0,0,0,2.086,2.083h1.272a2.087,2.087,0,0,0,2.086-2.083V30.732ZM30.621,31.991v-3.7a.214.214,0,0,1,.212-.209h1.272a.214.214,0,0,1,.212.209v3.7a.214.214,0,0,1-.212.209H30.834A.214.214,0,0,1,30.621,31.991Zm11.7-3.907a.214.214,0,0,1,.213.209v3.7a.214.214,0,0,1-.213.209H41.049a.214.214,0,0,1-.213-.209v-3.7a.214.214,0,0,1,.213-.209ZM1.892,1.877H40.68V26.246a2.086,2.086,0,0,0-1.717,2.048v.565h-4.77v-.565a2.087,2.087,0,0,0-2.086-2.083H30.834a2.087,2.087,0,0,0-2.086,2.083v.565H27.435a3.456,3.456,0,0,0-3.561,3.332v24.48a3.144,3.144,0,0,0,.361,1.462H1.892ZM56.457,58.133H27.435a1.608,1.608,0,0,1-1.688-1.462V37.5h32.4V56.671a1.589,1.589,0,0,1-1.687,1.462ZM35.4,40.369h-4.81a.937.937,0,0,0-.937.937v4.807a.937.937,0,0,0,.937.937H35.4a.937.937,0,0,0,.937-.937V41.306A.937.937,0,0,0,35.4,40.369Zm-.937,4.807H31.525V42.243h2.937Zm9.807-4.807H39.461a.937.937,0,0,0-.937.937v4.807a.937.937,0,0,0,.937.937h4.807a.937.937,0,0,0,.937-.937V41.306A.937.937,0,0,0,44.268,40.369Zm-.937,4.807H40.4V42.243h2.933Zm-7.933,3.4h-4.81a.937.937,0,0,0-.937.937v4.807a.937.937,0,0,0,.937.937H35.4a.937.937,0,0,0,.937-.937V49.515A.937.937,0,0,0,35.4,48.578Zm-.937,4.807H31.525V50.452h2.937Zm9.807-4.807H39.461a.937.937,0,0,0-.937.937v4.807a.937.937,0,0,0,.937.937h4.807a.937.937,0,0,0,.937-.937V49.515A.937.937,0,0,0,44.268,48.578Zm-.937,4.807H40.4V50.452h2.933Zm9.976-13.016H48.5a.937.937,0,0,0-.937.937v4.807a.937.937,0,0,0,.937.937h4.81a.937.937,0,0,0,.937-.937V41.306A.937.937,0,0,0,53.307,40.369Zm-.937,4.807H49.434V42.243h2.937Zm.937,3.4H48.5a.937.937,0,0,0-.937.937v4.807a.937.937,0,0,0,.937.937h4.81a.937.937,0,0,0,.937-.937V49.515A.937.937,0,0,0,53.307,48.578Zm-.937,4.807H49.434V50.452h2.937ZM5.768,16.759V6.69a.937.937,0,0,1,.937-.937H17.592a.937.937,0,1,1,0,1.874H7.642v8.2h9.013V12.972l-1.742,1.582a.937.937,0,0,1-1.292-.031L11.485,12.39a.937.937,0,0,1,1.324-1.326l1.5,1.5,4.522-4.1A.937.937,0,0,1,20.1,9.849l-1.566,1.422v5.489a.937.937,0,0,1-.937.937H6.705a.937.937,0,0,1-.937-.937Zm0,18.278V24.972a.937.937,0,0,1,.937-.937H17.592a.937.937,0,1,1,0,1.874H7.642V34.1h9.013V31.253l-1.742,1.582A.937.937,0,0,1,13.62,32.8l-2.136-2.136a.937.937,0,0,1,1.325-1.325l1.5,1.5,4.522-4.1A.937.937,0,0,1,20.1,28.13l-1.566,1.422v5.486a.937.937,0,0,1-.937.937H6.705a.937.937,0,0,1-.937-.937ZM20.159,45.089a.937.937,0,0,1-.065,1.323l-1.566,1.42v5.487a.937.937,0,0,1-.937.937H6.705a.937.937,0,0,1-.937-.937V43.253a.937.937,0,0,1,.937-.937H17.592a.937.937,0,1,1,0,1.874H7.642v8.192h9.013v-2.85l-1.743,1.581a.937.937,0,0,1-1.291-.031l-2.136-2.133a.937.937,0,1,1,1.324-1.326l1.505,1.5,4.522-4.1a.937.937,0,0,1,1.323.065Zm3.714-38.4a.937.937,0,0,1,.937-.937H36.993a.937.937,0,0,1,0,1.874H24.811a.937.937,0,0,1-.937-.937Zm0,5.033a.937.937,0,0,1,.937-.937H36.993a.937.937,0,0,1,0,1.874H24.811a.937.937,0,0,1-.937-.937Z" transform="translate(228.982 1352.997)" fill="#ea526f"/>
  </g>
</svg>
