<svg xmlns="http://www.w3.org/2000/svg" width="70.064" height="69.337" viewBox="0 0 70.064 69.337">
  <path id="_001-project_management" data-name="001-project management" d="M69.8,31.213a1.368,1.368,0,0,1-.3,1.911L59.26,40.547a1.368,1.368,0,0,1-1.878-.261l-2.357-2.993a1.368,1.368,0,0,1,2.15-1.693l1.544,1.96,9.174-6.651A1.369,1.369,0,0,1,69.8,31.213ZM25.246,37.325a8.014,8.014,0,1,1-8.014-8.014,8.023,8.023,0,0,1,8.014,8.014Zm-2.737,0A5.277,5.277,0,1,0,17.233,42.6a5.283,5.283,0,0,0,5.277-5.277ZM67.892,57.157l-9.174,6.651-1.544-1.96a1.368,1.368,0,1,0-2.15,1.693l2.357,2.993a1.368,1.368,0,0,0,1.878.261L69.5,59.373a1.369,1.369,0,1,0-1.606-2.216ZM65.64,66.218v4.407a1.368,1.368,0,0,1-1.368,1.368H49.743a1.368,1.368,0,0,1-1.368-1.368V64.942h-7.89a1.368,1.368,0,0,1-1.368-1.368V38.693H34.465v.218a2.413,2.413,0,0,1-2.411,2.41,2.144,2.144,0,0,0-1.515,3.658,2.411,2.411,0,0,1,0,3.409L28.3,50.632a2.411,2.411,0,0,1-3.409,0,2.144,2.144,0,0,0-3.658,1.515,2.413,2.413,0,0,1-2.411,2.41H15.646a2.413,2.413,0,0,1-2.41-2.41,2.143,2.143,0,0,0-3.658-1.515,2.411,2.411,0,0,1-3.409,0L3.925,48.388a2.411,2.411,0,0,1,0-3.409,2.082,2.082,0,0,0,.462-2.334A2.082,2.082,0,0,0,2.41,41.321,2.413,2.413,0,0,1,0,38.911V35.738A2.413,2.413,0,0,1,2.41,33.328,2.082,2.082,0,0,0,4.387,32a2.082,2.082,0,0,0-.462-2.334,2.411,2.411,0,0,1,0-3.409l2.243-2.243a2.411,2.411,0,0,1,3.409,0A2.144,2.144,0,0,0,13.236,22.5a2.413,2.413,0,0,1,2.411-2.41h3.173a2.413,2.413,0,0,1,2.411,2.41,2.144,2.144,0,0,0,3.658,1.515,2.411,2.411,0,0,1,3.409,0l2.244,2.244a2.411,2.411,0,0,1,0,3.409,2.144,2.144,0,0,0,1.515,3.658,2.413,2.413,0,0,1,2.411,2.41v.218h4.652V11.076a1.368,1.368,0,0,1,1.368-1.368h7.89V4.025a1.368,1.368,0,0,1,1.368-1.368H64.272a1.368,1.368,0,0,1,0,2.737H51.112V16.758H62.9V13.72a1.368,1.368,0,0,1,2.737,0v4.406a1.368,1.368,0,0,1-1.368,1.368H49.743a1.368,1.368,0,0,1-1.368-1.368V12.444H41.854V35.956h6.521V30.274a1.368,1.368,0,0,1,1.368-1.368H64.272a1.368,1.368,0,1,1,0,2.737H51.112V43.007H62.9V39.969a1.368,1.368,0,0,1,2.737,0v4.406a1.368,1.368,0,0,1-1.368,1.368H49.743a1.368,1.368,0,0,1-1.368-1.368V38.693H41.854V62.205h6.521V56.523a1.368,1.368,0,0,1,1.368-1.368H64.272a1.368,1.368,0,1,1,0,2.737H51.112V69.256H62.9V66.218a1.368,1.368,0,1,1,2.737,0ZM31.728,36.054a4.883,4.883,0,0,1-3.347-8.082l-1.8-1.8A4.883,4.883,0,0,1,18.5,22.829h-2.54a4.883,4.883,0,0,1-8.082,3.347l-1.8,1.8a4.8,4.8,0,0,1,.832,5.079,4.8,4.8,0,0,1-4.179,3v2.54a4.8,4.8,0,0,1,4.179,3,4.8,4.8,0,0,1-.832,5.079l1.8,1.8a4.881,4.881,0,0,1,8.082,3.347H18.5a4.883,4.883,0,0,1,8.081-3.347l1.8-1.8a4.883,4.883,0,0,1,3.347-8.081ZM57.174,9.35a1.368,1.368,0,1,0-2.15,1.693l2.357,2.993a1.368,1.368,0,0,0,1.878.261L69.5,6.876a1.368,1.368,0,0,0-1.606-2.216L58.718,11.31Z" transform="translate(0 -2.656)" fill="#ea526f"/>
</svg>
