<svg xmlns="http://www.w3.org/2000/svg" width="64.846" height="70.064" viewBox="0 0 64.846 70.064">
  <path id="_004-growth" data-name="004-growth" d="M81.586,50.336a1.859,1.859,0,0,1-1.314-3.171,2.326,2.326,0,0,0,0-3.29l-2.061-2.061a2.326,2.326,0,0,0-3.29,0,1.8,1.8,0,0,1-.936.515V13.512a1.368,1.368,0,0,0-1.368-1.368h-9.3a1.368,1.368,0,0,0-1.368,1.368V42.329a1.8,1.8,0,0,1-.936-.515,2.306,2.306,0,0,0-1.321-.656V25.309a1.368,1.368,0,0,0-1.368-1.368h-9.3a1.368,1.368,0,0,0-1.368,1.368V55.657a1.368,1.368,0,0,0,1.368,1.368h3.508a2.321,2.321,0,0,0,1.817.878,1.859,1.859,0,0,1,1.314,3.171,2.326,2.326,0,0,0,0,3.29l2.061,2.062a2.329,2.329,0,0,0,3.289,0,1.858,1.858,0,0,1,3.171,1.314,2.329,2.329,0,0,0,2.326,2.326h2.915a2.329,2.329,0,0,0,2.326-2.326,1.859,1.859,0,0,1,3.171-1.313,2.329,2.329,0,0,0,3.29,0l2.061-2.061a2.326,2.326,0,0,0,0-3.29A1.859,1.859,0,0,1,81.586,57.9a2.329,2.329,0,0,0,2.326-2.326V52.662A2.329,2.329,0,0,0,81.586,50.336ZM71.249,14.88V39.062a2.321,2.321,0,0,0-1.824-.888H66.509a2.321,2.321,0,0,0-1.824.888V14.88ZM52.022,52.662v1.626H50.391V26.678h6.564v15.9l-1.293,1.293a2.326,2.326,0,0,0,0,3.29,1.859,1.859,0,0,1-1.314,3.171A2.329,2.329,0,0,0,52.022,52.662Zm29.153,2.521a4.6,4.6,0,0,0-3.116,7.523l-1.5,1.5a4.6,4.6,0,0,0-7.523,3.116H66.9a4.6,4.6,0,0,0-7.523-3.116l-1.5-1.5a4.6,4.6,0,0,0-3.116-7.523V53.055a4.6,4.6,0,0,0,3.116-7.523l1.5-1.5A4.6,4.6,0,0,0,66.9,40.911h2.128a4.6,4.6,0,0,0,7.523,3.116l1.5,1.5a4.6,4.6,0,0,0,3.116,7.523ZM67.967,46.645a7.475,7.475,0,1,0,7.475,7.475A7.483,7.483,0,0,0,67.967,46.645Zm0,12.212A4.738,4.738,0,1,1,72.7,54.119,4.743,4.743,0,0,1,67.967,58.857ZM23.693,18.424a1.368,1.368,0,0,1,.214-1.923L36.248,6.63a1.368,1.368,0,0,1,1.5-.138l14.028,7.5L65.311,2.942l-2.278-.21A1.368,1.368,0,1,1,63.284.007l5.7.525a1.368,1.368,0,0,1,1.19,1.741L68.57,7.862a1.368,1.368,0,1,1-2.63-.756l.43-1.5L52.8,16.689a1.368,1.368,0,0,1-1.511.147L37.253,9.331,25.616,18.638a1.368,1.368,0,0,1-1.923-.214Zm6.043,11.489h-9.3a1.368,1.368,0,0,0-1.368,1.368V55.657a1.368,1.368,0,0,0,1.368,1.368h9.3A1.368,1.368,0,0,0,31.1,55.657V31.281A1.368,1.368,0,0,0,29.735,29.913ZM28.367,54.288H21.8V32.65h6.564ZM44.029,18.36h-9.3a1.368,1.368,0,0,0-1.368,1.368V55.657a1.368,1.368,0,0,0,1.368,1.368h9.3A1.368,1.368,0,0,0,45.4,55.657V19.729A1.368,1.368,0,0,0,44.029,18.36ZM42.661,54.288H36.1V21.1h6.564Z" transform="translate(-19.066 -0.001)" fill="#ea526f"/>
</svg>
