<svg xmlns="http://www.w3.org/2000/svg" xmlns:xlink="http://www.w3.org/1999/xlink" width="295" height="139" viewBox="0 0 295 139">
  <defs>
    <clipPath id="clip-path">
      <rect id="Rectángulo_34038" data-name="Rectángulo 34038" width="295" height="139" fill="none"/>
    </clipPath>
  </defs>
  <g id="Grupo_893583" data-name="Grupo 893583" transform="translate(49.065 0.003)">
    <g id="Grupo_893583-2" data-name="Grupo 893583" transform="translate(-49.065 -0.003)" clip-path="url(#clip-path)">
      <path id="Trazado_705806" data-name="Trazado 705806" d="M142.542,81.567c19.161,0,52.362,10.839,66.8,19.28,10.471,6.122,13.813,26.2,13.813,47.083,0,36.651-40.859,49.93-85.383,49.93s-82.514-20.328-69.258-56.882,29.5-59.411,74.023-59.411" transform="translate(-15.084 -76.656)" fill="#b3eeef" fill-rule="evenodd"/>
      <path id="Trazado_705873" data-name="Trazado 705873" d="M142.542,81.567c19.161,0,52.362,10.839,66.8,19.28,10.471,6.122,13.813,26.2,13.813,47.083,0,36.651-40.859,49.93-85.383,49.93s-82.514-20.328-69.258-56.882,29.5-59.411,74.023-59.411" transform="translate(67.524 -76.656)" fill="#b3eeef" fill-rule="evenodd"/>
      <path id="Trazado_705874" data-name="Trazado 705874" d="M120.466,81.567c13.646,0,37.291,7.719,47.577,13.731,7.457,4.36,9.838,18.661,9.838,33.531,0,26.1-29.1,35.559-60.808,35.559s-58.765-14.477-49.324-40.51,21.009-42.311,52.717-42.311" transform="translate(-65.842 -43.185)" fill="#b3eeef" fill-rule="evenodd"/>
      <path id="Trazado_705807" data-name="Trazado 705807" d="M721.755,193.607h77.258c6.032,0,10.966,4.325,10.966,9.608v93.048c0,5.283-4.934,9.605-10.966,9.605H721.755c-6.03,0-10.966-4.322-10.966-9.605V203.215c0-5.283,4.937-9.608,10.966-9.608" transform="translate(-615.716 -181.951)" fill="#6bb7bf" fill-rule="evenodd"/>
      <path id="Trazado_705808" data-name="Trazado 705808" d="M763.789,238.729h77.257c4.325,0,7.865,3.1,7.865,6.892v93.048c0,3.79-3.54,6.891-7.865,6.891H763.789c-4.325,0-7.865-3.1-7.865-6.891V245.621c0-3.79,3.54-6.892,7.865-6.892" transform="translate(-657.75 -224.357)" fill="#c7dcf5" fill-rule="evenodd"/>
      <path id="Trazado_705809" data-name="Trazado 705809" d="M782.168,235.168l76.647-5.287,8.6,95.693-76.649,5.287Z" transform="translate(-682.191 -216.041)" fill="#fff" fill-rule="evenodd"/>
      <path id="Trazado_705810" data-name="Trazado 705810" d="M884.539,340.125l66.208-4.844.7,7.772L885.235,347.9Z" transform="translate(-777.528 -315.096)" fill="#c7dcf5" fill-rule="evenodd"/>
      <path id="Trazado_705811" data-name="Trazado 705811" d="M907.026,582.993l61.072-4.31a1.521,1.521,0,0,1,1.567,1.177,1.389,1.389,0,0,1-1.34,1.374l-61.072,4.31c-.8.053-1.821-.507-1.567-1.173v0c.254-.667.538-1.318,1.34-1.374m.407,4.544,42.138-3a1.419,1.419,0,0,1,1.572,1.173,1.354,1.354,0,0,1-1.343,1.378l-42.138,3a1.415,1.415,0,0,1-1.568-1.174,1.347,1.347,0,0,1,1.339-1.374" transform="translate(-797.185 -543.841)" fill="#c7dcf5" fill-rule="evenodd"/>
      <path id="Trazado_705812" data-name="Trazado 705812" d="M913.548,843.235l8.734-.6.686,7.65-8.731.6Z" transform="translate(-804.543 -791.906)" fill="#c7dcf5" fill-rule="evenodd"/>
      <path id="Trazado_705813" data-name="Trazado 705813" d="M1122.634,788.3l47.4-3.271a1.419,1.419,0,0,1,1.568,1.177,1.344,1.344,0,0,1-1.339,1.374l-47.4,3.27a1.419,1.419,0,0,1-1.571-1.177,1.342,1.342,0,0,1,1.338-1.374m.412,4.541,28.469-1.962a1.416,1.416,0,0,1,1.569,1.174,1.35,1.35,0,0,1-1.34,1.377l-28.471,1.962a1.419,1.419,0,0,1-1.572-1.173,1.355,1.355,0,0,1,1.344-1.378" transform="translate(-998.012 -737.763)" fill="#c7dcf5" fill-rule="evenodd"/>
      <path id="Trazado_705814" data-name="Trazado 705814" d="M929.821,1049.589l8.731-.6.69,7.649-8.735.6Z" transform="translate(-819.699 -985.837)" fill="#c7dcf5" fill-rule="evenodd"/>
      <path id="Trazado_705815" data-name="Trazado 705815" d="M1138.9,994.65l47.4-3.27a1.422,1.422,0,0,1,1.572,1.176,1.349,1.349,0,0,1-1.343,1.375l-47.4,3.27a1.419,1.419,0,0,1-1.569-1.177,1.345,1.345,0,0,1,1.34-1.374m.407,4.541,28.471-1.962a1.414,1.414,0,0,1,1.568,1.174,1.348,1.348,0,0,1-1.34,1.376l-28.472,1.963a1.412,1.412,0,0,1-1.567-1.174,1.348,1.348,0,0,1,1.339-1.377" transform="translate(-1013.157 -931.693)" fill="#c7dcf5" fill-rule="evenodd"/>
      <path id="Trazado_705816" data-name="Trazado 705816" d="M946.058,1255.93l8.734-.6.686,7.65-8.731.6Z" transform="translate(-834.819 -1179.756)" fill="#c7dcf5" fill-rule="evenodd"/>
      <path id="Trazado_705817" data-name="Trazado 705817" d="M1155.12,1200.991l47.4-3.27a1.42,1.42,0,0,1,1.569,1.177,1.346,1.346,0,0,1-1.34,1.375l-47.4,3.271a1.421,1.421,0,0,1-1.568-1.178,1.345,1.345,0,0,1,1.339-1.375m.408,4.542,28.471-1.963a1.419,1.419,0,0,1,1.572,1.174,1.35,1.35,0,0,1-1.343,1.376l-28.468,1.963a1.42,1.42,0,0,1-1.572-1.174,1.351,1.351,0,0,1,1.34-1.377" transform="translate(-1028.266 -1125.612)" fill="#c7dcf5" fill-rule="evenodd"/>
      <path id="Trazado_705818" data-name="Trazado 705818" d="M962.316,1462.283l8.729-.6.686,7.649-8.73.6Z" transform="translate(-849.961 -1373.686)" fill="#c7dcf5" fill-rule="evenodd"/>
      <path id="Trazado_705819" data-name="Trazado 705819" d="M1171.363,1407.333l47.4-3.271a1.424,1.424,0,0,1,1.572,1.177,1.349,1.349,0,0,1-1.343,1.374l-47.4,3.272a1.422,1.422,0,0,1-1.571-1.177,1.347,1.347,0,0,1,1.343-1.374m.407,4.541,28.472-1.962a1.412,1.412,0,0,1,1.568,1.173,1.349,1.349,0,0,1-1.34,1.377L1172,1414.425a1.412,1.412,0,0,1-1.568-1.173,1.349,1.349,0,0,1,1.339-1.377" transform="translate(-1043.39 -1319.531)" fill="#c7dcf5" fill-rule="evenodd"/>
      <path id="Trazado_705820" data-name="Trazado 705820" d="M978.53,1668.625l8.731-.6.69,7.649-8.731.6Z" transform="translate(-865.061 -1567.606)" fill="#c7dcf5" fill-rule="evenodd"/>
      <path id="Trazado_705821" data-name="Trazado 705821" d="M1187.605,1613.686l47.4-3.27a1.419,1.419,0,0,1,1.568,1.177,1.343,1.343,0,0,1-1.339,1.373l-47.4,3.27a1.417,1.417,0,0,1-1.568-1.176,1.345,1.345,0,0,1,1.34-1.375m.408,4.542,28.47-1.962a1.419,1.419,0,0,1,1.573,1.172,1.356,1.356,0,0,1-1.344,1.378l-28.469,1.962a1.415,1.415,0,0,1-1.569-1.173,1.349,1.349,0,0,1,1.34-1.378" transform="translate(-1058.518 -1513.462)" fill="#c7dcf5" fill-rule="evenodd"/>
      <path id="Trazado_705822" data-name="Trazado 705822" d="M1107.369,7.415h13.589V4.908c0-2.7,2.523-4.911,5.605-4.911s5.6,2.21,5.6,4.911V7.415h13.59a3.209,3.209,0,0,1,3.385,2.967v5.653A3.208,3.208,0,0,1,1145.754,19h-38.385a3.209,3.209,0,0,1-3.387-2.967V10.382a3.209,3.209,0,0,1,3.387-2.967m19.194-4.485a2.34,2.34,0,0,1,2.478,2.172,2.5,2.5,0,0,1-4.957,0,2.338,2.338,0,0,1,2.479-2.172" transform="translate(-981.893 0.003)" fill="#599dad" fill-rule="evenodd"/>
      <path id="Trazado_705823" data-name="Trazado 705823" d="M909.183,795.3a.758.758,0,0,1,.187-1.153,1.029,1.029,0,0,1,1.313.164l3.337,3.9,7.877-6.992a1.039,1.039,0,0,1,1.332-.01.758.758,0,0,1,.011,1.165l-8.648,7.671a1.016,1.016,0,0,1-.1.081,1.03,1.03,0,0,1-1.314-.166Z" transform="translate(-800.303 -743.356)" fill="#ea526f" fill-rule="evenodd"/>
      <path id="Trazado_705824" data-name="Trazado 705824" d="M925.4,1001.649a.758.758,0,0,1,.19-1.152,1.025,1.025,0,0,1,1.312.163l3.336,3.9,7.88-6.989a1.035,1.035,0,0,1,1.329-.01.754.754,0,0,1,.011,1.164l-8.646,7.671a.772.772,0,0,1-.106.082,1.03,1.03,0,0,1-1.314-.166Z" transform="translate(-815.407 -937.281)" fill="#ea526f" fill-rule="evenodd"/>
      <path id="Trazado_705825" data-name="Trazado 705825" d="M941.624,1207.987a.757.757,0,0,1,.19-1.151,1.031,1.031,0,0,1,1.315.162l3.336,3.9,7.876-6.989a1.039,1.039,0,0,1,1.329-.012.755.755,0,0,1,.011,1.167l-8.645,7.672a.956.956,0,0,1-.107.078,1.026,1.026,0,0,1-1.315-.163Z" transform="translate(-830.516 -1131.196)" fill="#ea526f" fill-rule="evenodd"/>
      <path id="Trazado_705826" data-name="Trazado 705826" d="M957.9,1414.339a.758.758,0,0,1,.185-1.152,1.029,1.029,0,0,1,1.315.163l3.336,3.9,7.88-6.992a1.034,1.034,0,0,1,1.329-.009.755.755,0,0,1,.011,1.164l-8.645,7.672c-.035.028-.069.056-.107.081a1.031,1.031,0,0,1-1.315-.166Z" transform="translate(-845.67 -1325.125)" fill="#ea526f" fill-rule="evenodd"/>
      <path id="Trazado_705827" data-name="Trazado 705827" d="M89.52,2080.2c-49.44,0-89.52,3.082-89.52,6.883s40.079,6.885,89.52,6.885,89.517-3.083,89.517-6.885S138.96,2080.2,89.52,2080.2" transform="translate(46.234 -1954.965)" fill="#b3eeef" fill-rule="evenodd"/>
      <path id="Trazado_705828" data-name="Trazado 705828" d="M1916.617,1720.167l-32.214,1.142v27.65l32.214-2.013Z" transform="translate(-1708.69 -1616.609)" fill="#ff6e33" fill-rule="evenodd"/>
      <path id="Trazado_705829" data-name="Trazado 705829" d="M1552.7,1711.12l22.792,1.687v27.65l-22.792-3.537Z" transform="translate(-1399.779 -1608.107)" fill="#d1673c" fill-rule="evenodd"/>
      <path id="Trazado_705830" data-name="Trazado 705830" d="M1578.888,1709.505l-26.188.1,22.792,1.687,32.214-1.142Z" transform="translate(-1399.779 -1606.59)" fill="#f19c16" stroke="#d1673c" stroke-width="1" fill-rule="evenodd"/>
      <path id="Trazado_705831" data-name="Trazado 705831" d="M1688.666,1722.609v8.93l4.107.545v-9.171Z" transform="translate(-1526.402 -1618.904)" fill="#b5453c" fill-rule="evenodd"/>
      <path id="Trazado_705832" data-name="Trazado 705832" d="M1688.666,2019v8.714l4.107.651v-8.821Z" transform="translate(-1526.402 -1897.453)" fill="#b5453c" fill-rule="evenodd"/>
      <path id="Trazado_705833" data-name="Trazado 705833" d="M1719.973,1714.125l-27.2.769-2.053-.15-2.054-.154,29.155-.514Z" transform="translate(-1526.402 -1610.886)" fill="#b5453c" fill-rule="evenodd"/>
      <path id="Trazado_705834" data-name="Trazado 705834" d="M2012.5,1270.861l-31.717-.4V1298.7l31.717-1.477Z" transform="translate(-1798.451 -1193.974)" fill="#ff6e33" fill-rule="evenodd"/>
      <path id="Trazado_705835" data-name="Trazado 705835" d="M1654.2,1271.944l22.44-1.486v28.247l-22.44-1.743Z" transform="translate(-1494.309 -1193.974)" fill="#d1673c" fill-rule="evenodd"/>
      <path id="Trazado_705836" data-name="Trazado 705836" d="M1788.064,1280.87v8.186l4.043.162V1280.6Z" transform="translate(-1618.971 -1203.509)" fill="#b5453c" fill-rule="evenodd"/>
      <path id="Trazado_705837" data-name="Trazado 705837" d="M1787.914,1568.566l-.011,9.271,4.054.316,0-9.53Z" transform="translate(-1618.821 -1474.135)" fill="#b5453c" fill-rule="evenodd"/>
      <path id="Trazado_705838" data-name="Trazado 705838" d="M2264.573,1914.972l-20.983.745v18.009l20.983-1.312Z" transform="translate(-2043.198 -1799.687)" fill="#ff6e33" fill-rule="evenodd"/>
      <path id="Trazado_705839" data-name="Trazado 705839" d="M2027.537,1909.1l14.845,1.1V1928.2l-14.845-2.3Z" transform="translate(-1841.99 -1794.165)" fill="#d1673c" fill-rule="evenodd"/>
      <path id="Trazado_705840" data-name="Trazado 705840" d="M2044.6,1908.069l-17.06.062,14.845,1.1,20.983-.745Z" transform="translate(-1841.99 -1793.199)" fill="#f19c16" stroke="#d1673c" stroke-width="1" fill-rule="evenodd"/>
      <path id="Trazado_705841" data-name="Trazado 705841" d="M2116.063,1916.528v5.82l2.677.353v-5.972Z" transform="translate(-1924.432 -1801.149)" fill="#b5453c" fill-rule="evenodd"/>
      <path id="Trazado_705842" data-name="Trazado 705842" d="M2116.063,2109.625v5.678l2.677.422v-5.744Z" transform="translate(-1924.432 -1982.621)" fill="#b5453c" fill-rule="evenodd"/>
      <path id="Trazado_705843" data-name="Trazado 705843" d="M2136.457,1911l-17.718.5-1.337-.1-1.34-.1,18.993-.335Z" transform="translate(-1924.432 -1795.923)" fill="#b5453c" fill-rule="evenodd"/>
      <path id="Trazado_705844" data-name="Trazado 705844" d="M1974.463,1720.167v3.937l-27.938,1.781-.008-4.726,2.355.181Z" transform="translate(-1766.536 -1616.609)" fill="#d1673c" fill-rule="evenodd"/>
      <path id="Trazado_705845" data-name="Trazado 705845" d="M1138.446,1852.926l1.558-23.467-13.239-1.882-2.078,21.114Z" transform="translate(-1001.175 -1717.553)" fill="#ff6e33" fill-rule="evenodd"/>
      <path id="Trazado_705846" data-name="Trazado 705846" d="M1331.427,1869.83l-6.491,2.823,1.558-23.467,2.986-.618Z" transform="translate(-1187.665 -1737.28)" fill="#d1673c" fill-rule="evenodd"/>
      <path id="Trazado_705847" data-name="Trazado 705847" d="M1327.987,1853.74l-.453,19.217-2.6,4.556,1.558-23.467Z" transform="translate(-1187.665 -1742.141)" fill="#b5453c" fill-rule="evenodd"/>
      <path id="Trazado_705848" data-name="Trazado 705848" d="M1327.533,2172.957l3.894,1.734-6.491,2.823Z" transform="translate(-1187.665 -2042.14)" fill="#b5453c" fill-rule="evenodd"/>
      <path id="Trazado_705849" data-name="Trazado 705849" d="M1156.155,1823.16l-1.218.266,13.239,1.882,2.986-.618Z" transform="translate(-1029.346 -1713.402)" fill="#de7b2a" stroke="#d1673c" stroke-width="1" fill-rule="evenodd"/>
      <path id="Trazado_705850" data-name="Trazado 705850" d="M1181.13,1657.823a.427.427,0,0,0,.247.585.515.515,0,0,0,.646-.226c2.6-5.245,2.149-9.408.537-11.808a5.1,5.1,0,0,0-3.291-2.3,4.187,4.187,0,0,0-3.7,1.193c-1.819,1.749-3.006,5.473-2.133,11.627a.486.486,0,0,0,.546.386.458.458,0,0,0,.425-.5c-.828-5.849.229-9.324,1.875-10.908a3.186,3.186,0,0,1,2.8-.928,4.152,4.152,0,0,1,2.64,1.883c1.467,2.191,1.858,6.05-.594,10.993" transform="translate(-1046.298 -1545.038)" fill="#b5453c" fill-rule="evenodd"/>
      <path id="Trazado_705851" data-name="Trazado 705851" d="M1198.017,1655.131c-1.108-3.759-.558-6.754.714-8.651a5.118,5.118,0,0,1,3.291-2.3,4.185,4.185,0,0,1,3.7,1.192c1.733,1.666,2.891,5.128,2.245,10.771l-.974-.1c.616-5.339-.417-8.557-1.985-10.059a3.172,3.172,0,0,0-2.8-.929,4.146,4.146,0,0,0-2.643,1.882c-1.19,1.777-1.668,4.647-.507,8.3Z" transform="translate(-1068.911 -1545.138)" fill="#b5453c" fill-rule="evenodd"/>
      <path id="Trazado_705852" data-name="Trazado 705852" d="M931.715,1963.571l1.556-18.181-13.238-1.458-2.076,16.359Z" transform="translate(-808.65 -1826.903)" fill="#ff6e33" fill-rule="evenodd"/>
      <path id="Trazado_705853" data-name="Trazado 705853" d="M1124.677,1976.672l-6.49,2.184,1.556-18.181,2.987-.479Z" transform="translate(-995.121 -1842.188)" fill="#de7b2a" stroke="#d1673c" stroke-width="1" fill-rule="evenodd"/>
      <path id="Trazado_705854" data-name="Trazado 705854" d="M1121.236,1964.209l-.454,14.889-2.6,3.53,1.556-18.181Z" transform="translate(-995.121 -1845.96)" fill="#b5453c" fill-rule="evenodd"/>
      <path id="Trazado_705855" data-name="Trazado 705855" d="M1120.783,2211.533l3.894,1.345-6.49,2.184Z" transform="translate(-995.121 -2078.394)" fill="#b5453c" fill-rule="evenodd"/>
      <path id="Trazado_705856" data-name="Trazado 705856" d="M949.39,1940.548l-1.218.2,13.238,1.458,2.987-.479Z" transform="translate(-836.788 -1823.723)" fill="#de7b2a" fill-rule="evenodd"/>
      <path id="Trazado_705857" data-name="Trazado 705857" d="M974.365,1812.42c-.109.176,0,.379.248.453a.588.588,0,0,0,.647-.172c2.6-4.065,2.147-7.29.539-9.151a5.331,5.331,0,0,0-3.293-1.778,5,5,0,0,0-3.7.924c-1.821,1.355-3.007,4.241-2.135,9.008a.485.485,0,0,0,.547.3c.269-.021.457-.194.425-.382-.827-4.535.229-7.226,1.876-8.453a3.8,3.8,0,0,1,2.8-.72,4.3,4.3,0,0,1,2.643,1.461c1.468,1.7,1.854,4.689-.6,8.514" transform="translate(-853.742 -1693.254)" fill="#b5453c" fill-rule="evenodd"/>
      <path id="Trazado_705858" data-name="Trazado 705858" d="M991.27,1810.332c-1.106-2.911-.554-5.234.714-6.7a5.34,5.34,0,0,1,3.291-1.781,5,5,0,0,1,3.7.927c1.733,1.289,2.894,3.969,2.244,8.344l-.971-.079c.613-4.138-.419-6.628-1.983-7.8a3.8,3.8,0,0,0-2.8-.719,4.3,4.3,0,0,0-2.644,1.458c-1.189,1.378-1.668,3.6-.5,6.432Z" transform="translate(-876.371 -1693.328)" fill="#b5453c" fill-rule="evenodd"/>
      <path id="Trazado_705859" data-name="Trazado 705859" d="M329.709,491.86c.689.041,1.354-.673,1.547-.889a7.366,7.366,0,0,0,1.386-2.307c-.143-.356-.289-.806-.446-1.351q-3.982-2.372-1.09-3.508a4.614,4.614,0,0,1,1.446,1.765,1.2,1.2,0,0,0,1.047-.617,27.489,27.489,0,0,1-1.068-4.053c1.308-1.706,4.366-1.948,8.416-1.487.189.945.343,1.942.464,3,.713.575.623,2.719-.036,5.192q.495,2.1-2.971,2.3c-.022.341.015.73.021.967.008.216.015.636.271.7l.429.095c-.042,5.023-2.979,5.987-9.416.194" transform="translate(-260.821 -450.358)" fill="#ffb27d" fill-rule="evenodd"/>
      <path id="Trazado_705860" data-name="Trazado 705860" d="M302.334,403.994c-4.05-.461-7.109-.216-8.416,1.487a27.6,27.6,0,0,0,1.068,4.053,1.2,1.2,0,0,1-1.047.617,4.614,4.614,0,0,0-1.446-1.765q-2.894,1.135,1.09,3.508a12.619,12.619,0,0,0,.45,1.351c-2.391-.468-4.387-2.34-4.669-3.151-2.787-4.811.322-6.842,1.982-7.583.737-4.764,8.663-.645,10.746-3.553,4.365,2.181,1.471,4.992.242,5.037" transform="translate(-222.207 -374.939)" fill="#b5453c" fill-rule="evenodd"/>
      <path id="Trazado_705861" data-name="Trazado 705861" d="M417.516,648.775a7.663,7.663,0,0,0,2.665.488,5.958,5.958,0,0,0,.018.959,4.316,4.316,0,0,1-2.682-1.446" transform="translate(-342.594 -609.717)" fill="#f08261" fill-rule="evenodd"/>
      <path id="Trazado_705862" data-name="Trazado 705862" d="M189.147,2172.119c-2.515-.776-2.718-1.912-4.072-2.466s-1.525-1.552-.189-2.632c.986.688,2.211,1.537,2.857,1.089.432-.3,1.9-.281,2.189.157,1.28,2.6,3.058,1.777,3.408,2.961.039,1.578-3.039,1.248-4.194.891" transform="translate(-125.089 -2036.562)" fill="#1c468a" fill-rule="evenodd"/>
      <path id="Trazado_705863" data-name="Trazado 705863" d="M435.377,2155.736c-4.43-.063-7.742-.109-9.274-.532-1.651-.457-1.308-1.339-.36-2.751,4.175,1.684,3.064-.344,5.018-.088a13.5,13.5,0,0,0,6.1,1.947c1.137.735.676,1.392-1.482,1.424" transform="translate(-349.517 -2022.767)" fill="#1c468a" fill-rule="evenodd"/>
      <path id="Trazado_705864" data-name="Trazado 705864" d="M131.869,681.441a34.276,34.276,0,0,0-5.959-1.024q-.478,6.39-7.6-.087c-4.577.338-5.473.388-8.013,1.111-5.491,4.6-6,9.9-8.87,15.968a21.9,21.9,0,0,1,6.769,1.134q.7-2.179,1.165-3.509-.135,12-.1,16.435c10.513,3.653,19.176,2.4,22.712-.44q.075-10.663.2-16.883a22.146,22.146,0,0,0,3.5,3.024c2.578-2.592,4.325-3.634,5.787-5.161a70.3,70.3,0,0,0-9.588-10.567" transform="translate(-48.22 -639.373)" fill="#0ce6ea" fill-rule="evenodd"/>
      <path id="Trazado_705865" data-name="Trazado 705865" d="M638.591,764.87a76.727,76.727,0,0,0-11.6,4.983L626,768.579c-.915.8-1.959,1.591-3.229,2.733a17.359,17.359,0,0,0,3.907,2.713q5.761-.541,12.728-7.64a5.977,5.977,0,0,0,3.19-1.374,2.323,2.323,0,0,0-1.051-1.837q2.886-1.648,2.3-2.359-4.529,2.45-5.262,4.055" transform="translate(-533.751 -715.012)" fill="#ffb27d" fill-rule="evenodd"/>
      <path id="Trazado_705866" data-name="Trazado 705866" d="M196.274,1190.251c-.207.691.654,4.75.8,6.87,1.4,7.558.2,17.4-.554,30.056-1.346,4.457-3.336,10.4-3.2,18.763a8.835,8.835,0,0,1-5.316.223c-1.479-8.729-.466-15.718.868-18.949-.858-4.988-2.135-10.572-4-18.629-2.1,8.779-4.9,15.293-6.116,19.546-.239,4.739-1.335,11.136-1.907,19.19a11.111,11.111,0,0,1-4.634.4c-2.343-7.4-1.95-15.458-.956-24.166,1.057-10.466-.686-22.287,1.06-26.385a26.905,26.905,0,0,0,1.247-6.472q13.159,3.836,22.712-.444" transform="translate(-112.526 -1118.595)" fill="#3d8e8f" fill-rule="evenodd"/>
      <path id="Trazado_705867" data-name="Trazado 705867" d="M216.955,844.986c-.56.074-1.093.138-1.6.2q-.04,5.291-.019,7.924a7.466,7.466,0,0,0,1.741.479c0-.228-.087-.751-.087-.973q-.054-4.047-.036-7.627Zm25.709-7.064a16.644,16.644,0,0,1-4.419-5.505,18.876,18.876,0,0,1,.186,3.552,21.531,21.531,0,0,0,3.323,2.836q.471-.474.91-.882m-25.27-6.88q-1.023,2.889-1.953,5.631-.027,2.319-.047,4.354c.454-.038.979-.063,1.608-.076q.1-5.629.393-9.909" transform="translate(-154.304 -781.012)" fill="#3d8e8f" fill-rule="evenodd"/>
      <path id="Trazado_705868" data-name="Trazado 705868" d="M396.8,877h11.577a.74.74,0,0,1,.811.845l-2.6,14.369a1.145,1.145,0,0,1-1.118.845H393.9a.743.743,0,0,1-.814-.845l2.6-14.369A1.143,1.143,0,0,1,396.8,877" transform="translate(-319.831 -824.203)" fill="#1c468a" fill-rule="evenodd"/>
      <path id="Trazado_705869" data-name="Trazado 705869" d="M109.949,964.869a11.247,11.247,0,0,0-.3,5.561c1.249,1.591,6.291.7,19.271-1.2a3.958,3.958,0,0,0,2.89.576c1.357-.3,1.423-.607,2.945-1.865a1.964,1.964,0,0,0-.225-2.241,9.025,9.025,0,0,1-4.552,1.409q.774-1.738.233-2.244a3.268,3.268,0,0,0-1.286,2.087c-10.236-.388-12.932-.337-14.3.288.15-.563.28-1.057.393-1.483a20.318,20.318,0,0,0-5.072-.889" transform="translate(-55.678 -906.778)" fill="#ffb27d" fill-rule="evenodd"/>
      <path id="Trazado_705870" data-name="Trazado 705870" d="M217.6,2118.2a7.959,7.959,0,0,1,.042,2.05c3.494,1.33,2.9-.206,4.3-.243a4.871,4.871,0,0,1-.682-2.073,8.049,8.049,0,0,1-3.658.266m-16.282,1.4a5.163,5.163,0,0,1-.187,1.466c.933.645,2.008,1.32,2.6.91a2.542,2.542,0,0,1,1.564-.151,13.594,13.594,0,0,1-.535-2.513,10.312,10.312,0,0,1-3.443.288" transform="translate(-141.077 -1990.433)" fill="#ffb27d" fill-rule="evenodd"/>
      <path id="Trazado_705871" data-name="Trazado 705871" d="M197.07,1304.361q-9.258,7.559-24.755.047c-1.746,4.1,0,15.919-1.06,26.385-.994,8.707-1.387,16.764.956,24.166.193.022.375.037.555.05a10.316,10.316,0,0,0,3.443-.288c.2-.046.414-.1.636-.159.572-8.054,1.668-14.451,1.907-19.19,1.214-4.253,4.018-10.767,6.116-19.546,1.862,8.057,3.14,13.64,4,18.629-1.334,3.23-2.347,10.22-.868,18.949.386.087.732.153,1.051.2a8.047,8.047,0,0,0,3.658-.266c.194-.05.393-.1.607-.16-.133-8.362,1.857-14.306,3.2-18.763.754-12.657,1.951-22.5.554-30.056" transform="translate(-112.526 -1225.836)" fill="#1c468a" fill-rule="evenodd"/>
      <path id="Trazado_705872" data-name="Trazado 705872" d="M191,2001.392a18.029,18.029,0,0,0,6.185.485c.041-.435.088-.857.138-1.277a19.459,19.459,0,0,1-6.366-.36c.008.378.025.76.043,1.151m-16.447,1.5a17.151,17.151,0,0,0,6.5-.426c.047-.45.093-.895.143-1.332a19,19,0,0,1-6.787.622q.065.569.14,1.136m6.187,2.833c.039-.448.083-.885.121-1.32a19.324,19.324,0,0,1-6,.435c.073.385.147.767.233,1.145a17.683,17.683,0,0,0,5.644-.26m16.336-2.466a19.41,19.41,0,0,1-5.951-.091c.036.382.071.77.114,1.159a17.8,17.8,0,0,0,5.772.209q.022-.648.065-1.277" transform="translate(-116.193 -1879.823)" fill="#1c468a" fill-rule="evenodd"/>
    </g>
  </g>
</svg>
