<svg xmlns="http://www.w3.org/2000/svg" width="227" height="69" viewBox="0 0 227 69">
  <g id="Grupo_960403" data-name="Grupo 960403" transform="translate(-6901 2429)">
    <path id="Trazado_706176" data-name="Trazado 706176" d="M10,0H217a10,10,0,0,1,10,10V59a10,10,0,0,1-10,10H10A10,10,0,0,1,0,59V10A10,10,0,0,1,10,0Z" transform="translate(6901 -2429)" fill="#fff"/>
    <path id="Trazado_706177" data-name="Trazado 706177" d="M5.938-10.664a6.669,6.669,0,0,1,1.527.145,2.565,2.565,0,0,1,.984.445,1.843,1.843,0,0,1,.578.762,2.775,2.775,0,0,1,.191,1.07,3.663,3.663,0,0,1-.555,2.031,3.291,3.291,0,0,1-1.5,1.266,5.77,5.77,0,0,1-2.277.406q-.8,0-1.328-.031l-.5,2.3q-.07.32-.1.492T2.91-1.41q-.02.2-.02.355a.768.768,0,0,0,.078.379.455.455,0,0,0,.234.2,2.075,2.075,0,0,0,.539.094L3.656,0H.445L.531-.383A1.066,1.066,0,0,0,.977-.535a.844.844,0,0,0,.25-.293,2.669,2.669,0,0,0,.188-.457q.086-.27.258-1.043L3-8.344a6.108,6.108,0,0,0,.172-1.234.659.659,0,0,0-.18-.531,1.016,1.016,0,0,0-.586-.172l.086-.383ZM4.5-5.219a4.915,4.915,0,0,0,1.527-.2A2.2,2.2,0,0,0,6.98-6.02a2.9,2.9,0,0,0,.574-.973,3.61,3.61,0,0,0,.2-1.234A1.719,1.719,0,0,0,7.3-9.555a2.243,2.243,0,0,0-1.531-.422q-.484,0-1.016.023L3.688-5.219ZM17.625-6.359H11.109V-7.617h6.516Zm0,3.242H11.109v-1.25h6.516Z" transform="translate(6927 -2387)" fill="#12263f"/>
    <path id="Trazado_706178" data-name="Trazado 706178" d="M-52.965-10.391l-.469,2.117h-.75A2.416,2.416,0,0,0-54.6-9.66a1.41,1.41,0,0,0-1.145-.426,2.646,2.646,0,0,0-2,1.078A7.814,7.814,0,0,0-59.215-6.16a11.322,11.322,0,0,0-.539,3.285,2.925,2.925,0,0,0,.422,1.75,1.516,1.516,0,0,0,1.3.563,2.734,2.734,0,0,0,1.023-.176,2.27,2.27,0,0,0,.82-.594A5.149,5.149,0,0,0-55.434-2.5h.75L-55.16-.281a11.38,11.38,0,0,1-3.062.406,2.864,2.864,0,0,1-2.234-.844,3.558,3.558,0,0,1-.766-2.469,10.2,10.2,0,0,1,.41-2.648,9.063,9.063,0,0,1,1.16-2.633A5.374,5.374,0,0,1-57.879-10.2a4.4,4.4,0,0,1,2.25-.594,9.392,9.392,0,0,1,1.316.086A9,9,0,0,1-52.965-10.391Zm6.945,3.3L-45.3-7.6l.5.125-1.148,4.953a5.5,5.5,0,0,0-.172,1.156.787.787,0,0,0,.1.453.368.368,0,0,0,.32.141.869.869,0,0,0,.5-.191,5.49,5.49,0,0,0,.75-.73l.445.438A6.8,6.8,0,0,1-45.2-.191a1.96,1.96,0,0,1-1.074.316.991.991,0,0,1-.773-.32,1.223,1.223,0,0,1-.289-.852,2.632,2.632,0,0,1,.18-.914l-.1-.031a6.889,6.889,0,0,1-1.422,1.6,2.32,2.32,0,0,1-1.422.508,1.552,1.552,0,0,1-1.332-.648,3.046,3.046,0,0,1-.473-1.82,6.524,6.524,0,0,1,.527-2.582,4.776,4.776,0,0,1,1.449-1.953A3.271,3.271,0,0,1-47.879-7.6a3.809,3.809,0,0,1,.949.113A3.318,3.318,0,0,1-46.02-7.086Zm-.687,2.328a4.931,4.931,0,0,0,.094-.555q.023-.234.023-.508a1.277,1.277,0,0,0-.258-.883,1.145,1.145,0,0,0-.875-.281,1.985,1.985,0,0,0-1.445.648,4.377,4.377,0,0,0-1,1.738,6.913,6.913,0,0,0-.359,2.176A2.585,2.585,0,0,0-50.3-1.207a.784.784,0,0,0,.746.4,1.515,1.515,0,0,0,1.012-.445,6.2,6.2,0,0,0,1.023-1.27,5.537,5.537,0,0,0,.746-1.9Zm6.359-.828a6.511,6.511,0,0,1,1.473-1.523,2.515,2.515,0,0,1,1.434-.484,4.445,4.445,0,0,1,.953.086l-.375,1.75h-.8a1.808,1.808,0,0,0-.133-.508.563.563,0,0,0-.2-.25.569.569,0,0,0-.3-.07,1.067,1.067,0,0,0-.613.242,4.2,4.2,0,0,0-.746.758,6.006,6.006,0,0,0-.66.992,5.079,5.079,0,0,0-.41,1.211L-41.473,0h-1.352l1.133-4.953a7.314,7.314,0,0,0,.141-.727,3.687,3.687,0,0,0,.031-.43.787.787,0,0,0-.1-.453.368.368,0,0,0-.32-.141.874.874,0,0,0-.512.2,5.607,5.607,0,0,0-.738.723l-.445-.437a7.51,7.51,0,0,1,1.2-1.066,1.916,1.916,0,0,1,1.07-.316.982.982,0,0,1,.777.324,1.236,1.236,0,0,1,.285.848,2.378,2.378,0,0,1-.148.8ZM-34.293.672a2.618,2.618,0,0,0-.25.355,1.386,1.386,0,0,0-.145.34,1.557,1.557,0,0,0-.043.391.94.94,0,0,0,.422.855,2.4,2.4,0,0,0,1.273.27,2.521,2.521,0,0,0,1.543-.434,3.339,3.339,0,0,0,1-1.395,15.588,15.588,0,0,0,.8-2.906l-.109-.023A7.009,7.009,0,0,1-31.207-.359a2.315,2.315,0,0,1-1.4.477A1.551,1.551,0,0,1-33.93-.523,3.039,3.039,0,0,1-34.4-2.352a6.491,6.491,0,0,1,.523-2.566,4.815,4.815,0,0,1,1.453-1.957,3.281,3.281,0,0,1,2.07-.727,3.58,3.58,0,0,1,.93.117,3.219,3.219,0,0,1,.883.4l.719-.516.5.125-.8,3.641q-.086.383-.391,1.93-.32,1.641-.52,2.32a6.569,6.569,0,0,1-.5,1.238,3.441,3.441,0,0,1-.766.973,3.289,3.289,0,0,1-1.137.641,4.939,4.939,0,0,1-1.582.227q-2.953,0-2.953-1.719a1.31,1.31,0,0,1,.266-.8,3.511,3.511,0,0,1,.852-.758ZM-32.051-.8a1.383,1.383,0,0,0,.793-.273,3.949,3.949,0,0,0,.844-.867,6.291,6.291,0,0,0,.7-1.133,6.555,6.555,0,0,0,.426-1.344,6.68,6.68,0,0,0,.176-1.4,1.275,1.275,0,0,0-.258-.887,1.131,1.131,0,0,0-.859-.277,1.957,1.957,0,0,0-1.43.645,4.429,4.429,0,0,0-1,1.738,6.881,6.881,0,0,0-.363,2.18,2.474,2.474,0,0,0,.234,1.215A.789.789,0,0,0-32.051-.8Zm12.344-6.281.719-.516.5.125-1.148,4.953a5.5,5.5,0,0,0-.172,1.156.787.787,0,0,0,.1.453.368.368,0,0,0,.32.141.869.869,0,0,0,.5-.191,5.49,5.49,0,0,0,.75-.73l.445.438a6.8,6.8,0,0,1-1.2,1.066,1.96,1.96,0,0,1-1.074.316.991.991,0,0,1-.773-.32,1.223,1.223,0,0,1-.289-.852,2.633,2.633,0,0,1,.18-.914l-.1-.031a6.889,6.889,0,0,1-1.422,1.6,2.32,2.32,0,0,1-1.422.508,1.552,1.552,0,0,1-1.332-.648,3.046,3.046,0,0,1-.473-1.82,6.524,6.524,0,0,1,.527-2.582,4.776,4.776,0,0,1,1.449-1.953A3.271,3.271,0,0,1-21.566-7.6a3.809,3.809,0,0,1,.949.113A3.318,3.318,0,0,1-19.707-7.086Zm-.687,2.328a4.931,4.931,0,0,0,.094-.555q.023-.234.023-.508a1.277,1.277,0,0,0-.258-.883,1.145,1.145,0,0,0-.875-.281,1.985,1.985,0,0,0-1.445.648,4.377,4.377,0,0,0-1,1.738,6.913,6.913,0,0,0-.359,2.176,2.585,2.585,0,0,0,.223,1.215.784.784,0,0,0,.746.4,1.515,1.515,0,0,0,1.012-.445,6.2,6.2,0,0,0,1.023-1.27,5.537,5.537,0,0,0,.746-1.9Zm12.32,2.766A6.889,6.889,0,0,1-9.5-.391a2.32,2.32,0,0,1-1.422.508A1.552,1.552,0,0,1-12.25-.531a3.046,3.046,0,0,1-.473-1.82A6.524,6.524,0,0,1-12.2-4.934a4.776,4.776,0,0,1,1.449-1.953A3.271,3.271,0,0,1-8.691-7.6a3.723,3.723,0,0,1,.879.1,3.16,3.16,0,0,1,.824.34l.406-1.8q.062-.258.109-.57a3.747,3.747,0,0,0,.047-.547.612.612,0,0,0-.086-.355.482.482,0,0,0-.246-.176,2.467,2.467,0,0,0-.574-.078l.094-.406,1.961-.07h.461L-6.762-2.523a5.792,5.792,0,0,0-.172,1.156.787.787,0,0,0,.1.453.368.368,0,0,0,.32.141.869.869,0,0,0,.5-.191,5.49,5.49,0,0,0,.75-.73l.445.438A6.989,6.989,0,0,1-6.027-.187,1.946,1.946,0,0,1-7.09.125.991.991,0,0,1-7.863-.2a1.223,1.223,0,0,1-.289-.852,2.632,2.632,0,0,1,.18-.914Zm.523-2.766A5.219,5.219,0,0,0-7.434-5.82a1.275,1.275,0,0,0-.258-.887,1.131,1.131,0,0,0-.859-.277,1.957,1.957,0,0,0-1.43.645,4.429,4.429,0,0,0-1,1.738,6.881,6.881,0,0,0-.363,2.18,2.585,2.585,0,0,0,.223,1.215.784.784,0,0,0,.746.4A1.26,1.26,0,0,0-9.879-.91a1.985,1.985,0,0,0,.52-.34,4.055,4.055,0,0,0,.531-.57q.262-.336.48-.676a4.82,4.82,0,0,0,.406-.8,6.443,6.443,0,0,0,.32-1.121Zm9.82,3.2A5.939,5.939,0,0,1,.734-.3,3.733,3.733,0,0,1-1.074.125,2.236,2.236,0,0,1-2.828-.566a2.78,2.78,0,0,1-.621-1.926,6,6,0,0,1,.3-1.793A5.239,5.239,0,0,1-2.238-6,4.254,4.254,0,0,1-.777-7.184,4.06,4.06,0,0,1,1.035-7.6a2.22,2.22,0,0,1,1.418.383,1.448,1.448,0,0,1,.473,1.2A2.135,2.135,0,0,1,1.68-4.031a8.1,8.1,0,0,1-3.7.664,5.18,5.18,0,0,0-.094,1.016,1.806,1.806,0,0,0,.32,1.191A1.316,1.316,0,0,0-.746-.789,2.706,2.706,0,0,0,.555-1.1a5.434,5.434,0,0,0,1.23-.961ZM-1.887-4.031A8.37,8.37,0,0,0,0-4.23,2.53,2.53,0,0,0,1.215-4.84a1.518,1.518,0,0,0,.422-1.129,1.138,1.138,0,0,0-.223-.746.807.807,0,0,0-.66-.27,2.084,2.084,0,0,0-1.52.8A5.309,5.309,0,0,0-1.887-4.031ZM13.059-1.477A5.646,5.646,0,0,1,11.75-.266a2.458,2.458,0,0,1-1.316.391A1.45,1.45,0,0,1,8.8-1.523a4.923,4.923,0,0,1,.133-1.1L9.855-6.68H8.543l.117-.539a3.154,3.154,0,0,0,.7-.07,1.277,1.277,0,0,0,.4-.172,1.1,1.1,0,0,0,.293-.312,2.919,2.919,0,0,0,.258-.52q.125-.316.375-1.105h1.078l-.43,1.93h2.375l-.172.789H11.16l-.7,3.031q-.2.883-.258,1.27a4.658,4.658,0,0,0-.055.621q0,.969.8.969a1.319,1.319,0,0,0,.73-.262,4.9,4.9,0,0,0,.918-.895ZM17.41-5.586a6.511,6.511,0,0,1,1.473-1.523,2.515,2.515,0,0,1,1.434-.484,4.445,4.445,0,0,1,.953.086l-.375,1.75h-.8a1.808,1.808,0,0,0-.133-.508.563.563,0,0,0-.2-.25.569.569,0,0,0-.3-.07,1.067,1.067,0,0,0-.613.242,4.2,4.2,0,0,0-.746.758,6.006,6.006,0,0,0-.66.992,5.079,5.079,0,0,0-.41,1.211L16.285,0H14.934l1.133-4.953a7.315,7.315,0,0,0,.141-.727,3.686,3.686,0,0,0,.031-.43.787.787,0,0,0-.1-.453.368.368,0,0,0-.32-.141.874.874,0,0,0-.512.2,5.607,5.607,0,0,0-.738.723l-.445-.437a7.51,7.51,0,0,1,1.2-1.066,1.916,1.916,0,0,1,1.07-.316.982.982,0,0,1,.777.324,1.236,1.236,0,0,1,.285.848,2.378,2.378,0,0,1-.148.8Zm10.852-1.5L28.98-7.6l.5.125L28.332-2.523a5.5,5.5,0,0,0-.172,1.156.787.787,0,0,0,.1.453.368.368,0,0,0,.32.141.869.869,0,0,0,.5-.191,5.49,5.49,0,0,0,.75-.73l.445.438a6.8,6.8,0,0,1-1.2,1.066A1.96,1.96,0,0,1,28,.125.991.991,0,0,1,27.23-.2a1.223,1.223,0,0,1-.289-.852,2.633,2.633,0,0,1,.18-.914l-.1-.031A6.889,6.889,0,0,1,25.6-.391a2.32,2.32,0,0,1-1.422.508,1.552,1.552,0,0,1-1.332-.648,3.046,3.046,0,0,1-.473-1.82A6.524,6.524,0,0,1,22.9-4.934a4.776,4.776,0,0,1,1.449-1.953A3.271,3.271,0,0,1,26.4-7.6a3.809,3.809,0,0,1,.949.113A3.318,3.318,0,0,1,28.262-7.086Zm-.687,2.328a4.931,4.931,0,0,0,.094-.555q.023-.234.023-.508a1.277,1.277,0,0,0-.258-.883,1.145,1.145,0,0,0-.875-.281,1.985,1.985,0,0,0-1.445.648,4.377,4.377,0,0,0-1,1.738,6.913,6.913,0,0,0-.359,2.176,2.585,2.585,0,0,0,.223,1.215.784.784,0,0,0,.746.4,1.515,1.515,0,0,0,1.012-.445,6.2,6.2,0,0,0,1.023-1.27,5.537,5.537,0,0,0,.746-1.9ZM32.4-.383l-.719.508L31.184,0l2.023-8.93a5.978,5.978,0,0,0,.18-1.156.513.513,0,0,0-.2-.461,1.455,1.455,0,0,0-.715-.148l.094-.406,1.977-.07H35L33.621-5.7l.1.031a6.408,6.408,0,0,1,1.422-1.469,2.344,2.344,0,0,1,1.328-.453,1.544,1.544,0,0,1,1.324.648,3.061,3.061,0,0,1,.473,1.828,6.533,6.533,0,0,1-.52,2.535A4.83,4.83,0,0,1,36.309-.605a3.238,3.238,0,0,1-2.062.73A3.381,3.381,0,0,1,32.4-.383Zm.688-2.336a5.065,5.065,0,0,0-.117,1.063,1.235,1.235,0,0,0,.27.891,1.222,1.222,0,0,0,.895.273A1.764,1.764,0,0,0,34.746-.6a2.1,2.1,0,0,0,.59-.348,2.932,2.932,0,0,0,.57-.637,4.892,4.892,0,0,0,.5-.973,6.91,6.91,0,0,0,.352-1.238,6.786,6.786,0,0,0,.125-1.262,2.534,2.534,0,0,0-.23-1.219.786.786,0,0,0-.738-.406,1.333,1.333,0,0,0-.738.238,3.8,3.8,0,0,0-.809.789,5.915,5.915,0,0,0-.727,1.129,6.65,6.65,0,0,0-.477,1.477ZM45.8-7.086,46.52-7.6l.5.125L45.871-2.523A5.5,5.5,0,0,0,45.7-1.367a.787.787,0,0,0,.1.453.368.368,0,0,0,.32.141.869.869,0,0,0,.5-.191,5.49,5.49,0,0,0,.75-.73l.445.438a6.8,6.8,0,0,1-1.2,1.066,1.96,1.96,0,0,1-1.074.316A.991.991,0,0,1,44.77-.2a1.223,1.223,0,0,1-.289-.852,2.632,2.632,0,0,1,.18-.914l-.1-.031a6.889,6.889,0,0,1-1.422,1.6,2.32,2.32,0,0,1-1.422.508,1.552,1.552,0,0,1-1.332-.648,3.046,3.046,0,0,1-.473-1.82,6.524,6.524,0,0,1,.527-2.582,4.776,4.776,0,0,1,1.449-1.953A3.271,3.271,0,0,1,43.941-7.6a3.809,3.809,0,0,1,.949.113A3.318,3.318,0,0,1,45.8-7.086Zm-.687,2.328a4.931,4.931,0,0,0,.094-.555q.023-.234.023-.508a1.277,1.277,0,0,0-.258-.883,1.145,1.145,0,0,0-.875-.281,1.985,1.985,0,0,0-1.445.648,4.377,4.377,0,0,0-1,1.738,6.913,6.913,0,0,0-.359,2.176,2.585,2.585,0,0,0,.223,1.215.784.784,0,0,0,.746.4,1.515,1.515,0,0,0,1.012-.445A6.2,6.2,0,0,0,44.3-2.52a5.537,5.537,0,0,0,.746-1.9Zm8.094-5.773-.359,1.516H51.465l.359-1.516ZM50.855.133a6.308,6.308,0,0,1-.68,1.91,2.828,2.828,0,0,1-1.117,1.086,3.468,3.468,0,0,1-1.641.363,2.445,2.445,0,0,1-.664-.078l.18-.687a1.9,1.9,0,0,0,.594.063,1.6,1.6,0,0,0,.637-.113,1.376,1.376,0,0,0,.488-.375,2.648,2.648,0,0,0,.418-.73A7.647,7.647,0,0,0,49.426.359l1.266-5.625a5.981,5.981,0,0,0,.18-1.172.563.563,0,0,0-.168-.477,1.267,1.267,0,0,0-.66-.141l.086-.414,1.906-.07h.445Zm6.3,0a2.515,2.515,0,0,1-1.879-.68A2.671,2.671,0,0,1,54.613-2.5,6.588,6.588,0,0,1,54.8-3.945a5.411,5.411,0,0,1,.813-1.937,3.916,3.916,0,0,1,1.406-1.27,3.871,3.871,0,0,1,1.836-.441,2.521,2.521,0,0,1,1.906.684,2.715,2.715,0,0,1,.656,1.957A6.62,6.62,0,0,1,61.1-3.016a5.308,5.308,0,0,1-.867,1.734A3.568,3.568,0,0,1,58.918-.223,4.131,4.131,0,0,1,57.16.133Zm-1.18-2.3a1.9,1.9,0,0,0,.355,1.27,1.345,1.345,0,0,0,1.074.41,1.761,1.761,0,0,0,1.359-.687A4.943,4.943,0,0,0,59.707-3.1a8.276,8.276,0,0,0,.344-2.176,2.059,2.059,0,0,0-.328-1.27A1.21,1.21,0,0,0,58.7-6.969a1.846,1.846,0,0,0-1.418.68,4.814,4.814,0,0,0-.953,1.945A8.426,8.426,0,0,0,55.98-2.164Zm-119.219,13.5-.086.383a1.454,1.454,0,0,0-.426.141.734.734,0,0,0-.23.234,2.216,2.216,0,0,0-.211.488q-.109.332-.273,1.082L-66.3,22h-1.062l-2.281-6.7q-.414-1.2-.727-2.4h-.1q-.047.4-.258,1.52t-.445,2.191l-.687,3.117a5.883,5.883,0,0,0-.164,1.219.61.61,0,0,0,.176.5,1.068,1.068,0,0,0,.59.176l-.086.383h-2.734l.086-.383a1.066,1.066,0,0,0,.445-.152.844.844,0,0,0,.25-.293,2.668,2.668,0,0,0,.188-.457q.086-.27.258-1.043l1.328-6.016q.078-.336.125-.641a4.053,4.053,0,0,0,.047-.617.617.617,0,0,0-.184-.512,1.045,1.045,0,0,0-.582-.168l.086-.383h2.492l2.063,6.086q.445,1.313.688,2.219h.086q.062-.477.285-1.586t.41-1.937l.547-2.461a6.069,6.069,0,0,0,.172-1.258.617.617,0,0,0-.184-.512,1.045,1.045,0,0,0-.582-.168l.086-.383Zm6.758,9.828a3.07,3.07,0,0,1-2.477.992,2.628,2.628,0,0,1-2.059-.785,3.4,3.4,0,0,1-.715-2.324v-5.5h1.445v5.461q0,1.922,1.563,1.922a2.163,2.163,0,0,0,2.2-1.234V13.547h1.445V22h-1.375ZM-57.652,10h1.75L-58,12.3l-1.164,0Zm7.117,6.516a6.293,6.293,0,0,1,1.43-1.59,2.421,2.421,0,0,1,1.438-.52,1.471,1.471,0,0,1,1.141.426,1.758,1.758,0,0,1,.391,1.23v.109a.948.948,0,0,1-.008.117,5.717,5.717,0,0,1,1.34-1.418,2.4,2.4,0,0,1,1.387-.465,1.452,1.452,0,0,1,1.109.414,1.63,1.63,0,0,1,.391,1.164,6.238,6.238,0,0,1-.227,1.4l-.508,2.047a5.873,5.873,0,0,0-.211,1.2.787.787,0,0,0,.1.453.368.368,0,0,0,.32.141.869.869,0,0,0,.5-.191,5.49,5.49,0,0,0,.75-.73l.445.438a7.389,7.389,0,0,1-1.172,1.047,2,2,0,0,1-1.141.336,1.007,1.007,0,0,1-.812-.363,1.391,1.391,0,0,1-.3-.926,6.463,6.463,0,0,1,.258-1.492l.344-1.352q.188-.734.246-1.086a3.628,3.628,0,0,0,.059-.57,1.31,1.31,0,0,0-.18-.777.687.687,0,0,0-.586-.238,1.3,1.3,0,0,0-.7.246,3.562,3.562,0,0,0-.789.766,6.35,6.35,0,0,0-.676,1.023,4.923,4.923,0,0,0-.418,1.23L-47.332,22h-1.352l.9-3.969q.164-.727.223-1.074a3.675,3.675,0,0,0,.059-.6,1.257,1.257,0,0,0-.2-.8.764.764,0,0,0-.621-.238,1.283,1.283,0,0,0-.676.246,3.586,3.586,0,0,0-.809.789A5.727,5.727,0,0,0-50.48,17.4a5.748,5.748,0,0,0-.406,1.219L-51.629,22H-52.98l1.141-4.953a5.6,5.6,0,0,0,.172-1.156.787.787,0,0,0-.1-.453.368.368,0,0,0-.32-.141.874.874,0,0,0-.512.2,5.607,5.607,0,0,0-.738.723l-.445-.437A7.623,7.623,0,0,1-52.6,14.73a1.919,1.919,0,0,1,1.09-.332.982.982,0,0,1,.777.324,1.236,1.236,0,0,1,.285.848,2.632,2.632,0,0,1-.18.914Zm16.516,3.93A5.939,5.939,0,0,1-35.555,21.7a3.733,3.733,0,0,1-1.809.422,2.236,2.236,0,0,1-1.754-.691,2.78,2.78,0,0,1-.621-1.926,6,6,0,0,1,.3-1.793A5.239,5.239,0,0,1-38.527,16a4.254,4.254,0,0,1,1.461-1.18,4.06,4.06,0,0,1,1.813-.418,2.22,2.22,0,0,1,1.418.383,1.448,1.448,0,0,1,.473,1.2,2.135,2.135,0,0,1-1.246,1.992,8.1,8.1,0,0,1-3.7.664,5.18,5.18,0,0,0-.094,1.016,1.806,1.806,0,0,0,.32,1.191,1.316,1.316,0,0,0,1.047.371,2.706,2.706,0,0,0,1.3-.312,5.434,5.434,0,0,0,1.23-.961Zm-4.156-2.477a8.37,8.37,0,0,0,1.891-.2,2.53,2.53,0,0,0,1.211-.609,1.518,1.518,0,0,0,.422-1.129,1.138,1.138,0,0,0-.223-.746.807.807,0,0,0-.66-.27,2.084,2.084,0,0,0-1.52.8A5.309,5.309,0,0,0-38.176,17.969Zm9.023-1.555a6.511,6.511,0,0,1,1.473-1.523,2.515,2.515,0,0,1,1.434-.484,4.445,4.445,0,0,1,.953.086l-.375,1.75h-.8a1.808,1.808,0,0,0-.133-.508.563.563,0,0,0-.2-.25.569.569,0,0,0-.3-.07,1.067,1.067,0,0,0-.613.242,4.2,4.2,0,0,0-.746.758,6.006,6.006,0,0,0-.66.992,5.079,5.079,0,0,0-.41,1.211L-30.277,22h-1.352l1.133-4.953a7.315,7.315,0,0,0,.141-.727,3.686,3.686,0,0,0,.031-.43.787.787,0,0,0-.1-.453.368.368,0,0,0-.32-.141.874.874,0,0,0-.512.2,5.607,5.607,0,0,0-.738.723l-.445-.437a7.51,7.51,0,0,1,1.2-1.066,1.916,1.916,0,0,1,1.07-.316.982.982,0,0,1,.777.324,1.236,1.236,0,0,1,.285.848,2.378,2.378,0,0,1-.148.8Zm7.547,5.719a2.515,2.515,0,0,1-1.879-.68,2.671,2.671,0,0,1-.668-1.953,6.588,6.588,0,0,1,.188-1.445,5.411,5.411,0,0,1,.813-1.937,3.916,3.916,0,0,1,1.406-1.27,3.871,3.871,0,0,1,1.836-.441A2.521,2.521,0,0,1-18,15.09a2.715,2.715,0,0,1,.656,1.957,6.62,6.62,0,0,1-.316,1.938,5.308,5.308,0,0,1-.867,1.734,3.568,3.568,0,0,1-1.316,1.059A4.131,4.131,0,0,1-21.605,22.133Zm-1.18-2.3a1.9,1.9,0,0,0,.355,1.27,1.345,1.345,0,0,0,1.074.41A1.761,1.761,0,0,0-20,20.828a4.943,4.943,0,0,0,.938-1.926,8.276,8.276,0,0,0,.344-2.176,2.059,2.059,0,0,0-.328-1.27,1.21,1.21,0,0,0-1.023-.426,1.846,1.846,0,0,0-1.418.68,4.814,4.814,0,0,0-.953,1.945A8.426,8.426,0,0,0-22.785,19.836Zm15.727.172a6.889,6.889,0,0,1-1.422,1.6,2.32,2.32,0,0,1-1.422.508,1.552,1.552,0,0,1-1.332-.648,3.046,3.046,0,0,1-.473-1.82,6.524,6.524,0,0,1,.527-2.582A4.776,4.776,0,0,1-9.73,15.113,3.271,3.271,0,0,1-7.676,14.4a3.723,3.723,0,0,1,.879.1,3.16,3.16,0,0,1,.824.34l.406-1.8q.062-.258.109-.57a3.747,3.747,0,0,0,.047-.547.612.612,0,0,0-.086-.355.482.482,0,0,0-.246-.176,2.467,2.467,0,0,0-.574-.078l.094-.406,1.961-.07H-3.8l-1.945,8.648a5.792,5.792,0,0,0-.172,1.156.787.787,0,0,0,.1.453.368.368,0,0,0,.32.141.869.869,0,0,0,.5-.191,5.49,5.49,0,0,0,.75-.73l.445.438a6.989,6.989,0,0,1-1.211,1.07,1.946,1.946,0,0,1-1.062.313.991.991,0,0,1-.773-.32,1.223,1.223,0,0,1-.289-.852,2.632,2.632,0,0,1,.18-.914Zm.523-2.766a5.219,5.219,0,0,0,.117-1.062,1.275,1.275,0,0,0-.258-.887,1.131,1.131,0,0,0-.859-.277,1.957,1.957,0,0,0-1.43.645,4.429,4.429,0,0,0-1,1.738,6.881,6.881,0,0,0-.363,2.18,2.585,2.585,0,0,0,.223,1.215.784.784,0,0,0,.746.4,1.26,1.26,0,0,0,.492-.105,1.985,1.985,0,0,0,.52-.34,4.054,4.054,0,0,0,.531-.57q.262-.336.48-.676a4.82,4.82,0,0,0,.406-.8,6.443,6.443,0,0,0,.32-1.121Zm9.82,3.2A5.939,5.939,0,0,1,1.75,21.7a3.733,3.733,0,0,1-1.809.422,2.236,2.236,0,0,1-1.754-.691,2.78,2.78,0,0,1-.621-1.926,6,6,0,0,1,.3-1.793A5.239,5.239,0,0,1-1.223,16a4.254,4.254,0,0,1,1.461-1.18A4.06,4.06,0,0,1,2.051,14.4a2.22,2.22,0,0,1,1.418.383,1.448,1.448,0,0,1,.473,1.2A2.135,2.135,0,0,1,2.7,17.969a8.1,8.1,0,0,1-3.7.664A5.18,5.18,0,0,0-1.1,19.648a1.806,1.806,0,0,0,.32,1.191,1.316,1.316,0,0,0,1.047.371,2.706,2.706,0,0,0,1.3-.312,5.434,5.434,0,0,0,1.23-.961ZM-.871,17.969a8.37,8.37,0,0,0,1.891-.2A2.53,2.53,0,0,0,2.23,17.16a1.518,1.518,0,0,0,.422-1.129,1.138,1.138,0,0,0-.223-.746.807.807,0,0,0-.66-.27,2.084,2.084,0,0,0-1.52.8A5.309,5.309,0,0,0-.871,17.969Zm11.656-.9a5.526,5.526,0,0,0,.164-1.18.787.787,0,0,0-.1-.453.368.368,0,0,0-.32-.141.874.874,0,0,0-.512.2,5.607,5.607,0,0,0-.738.723l-.445-.437a7.627,7.627,0,0,1,1.191-1.059,1.914,1.914,0,0,1,1.082-.324.979.979,0,0,1,.77.32,1.233,1.233,0,0,1,.285.852,2.651,2.651,0,0,1-.18.922l.094.031q1.445-2.117,2.875-2.117a1.544,1.544,0,0,1,1.324.648,3.061,3.061,0,0,1,.473,1.828,6.533,6.533,0,0,1-.52,2.535,4.83,4.83,0,0,1-1.441,1.977,3.238,3.238,0,0,1-2.062.73A3.075,3.075,0,0,1,11,21.672l-.359,1.711a4.6,4.6,0,0,0-.117.914.6.6,0,0,0,.176.488,1.339,1.339,0,0,0,.684.191l-.062.383H8.9Zm.789,2.211q-.078.414-.1.633t-.02.43a1.262,1.262,0,0,0,.262.887,1.207,1.207,0,0,0,.9.277,1.72,1.72,0,0,0,.734-.156,2.277,2.277,0,0,0,.637-.453,3.334,3.334,0,0,0,.543-.719,5.648,5.648,0,0,0,.434-.98,7.128,7.128,0,0,0,.289-1.148,6.788,6.788,0,0,0,.1-1.105,2.531,2.531,0,0,0-.23-1.223.781.781,0,0,0-.73-.4,1.361,1.361,0,0,0-.785.27,4.166,4.166,0,0,0-.848.863,5.737,5.737,0,0,0-.719,1.172,6.233,6.233,0,0,0-.406,1.328Zm12.531,1.164A5.939,5.939,0,0,1,22.57,21.7a3.733,3.733,0,0,1-1.809.422,2.236,2.236,0,0,1-1.754-.691,2.78,2.78,0,0,1-.621-1.926,6,6,0,0,1,.3-1.793A5.239,5.239,0,0,1,19.6,16a4.254,4.254,0,0,1,1.461-1.18,4.06,4.06,0,0,1,1.813-.418,2.22,2.22,0,0,1,1.418.383,1.448,1.448,0,0,1,.473,1.2,2.135,2.135,0,0,1-1.246,1.992,8.1,8.1,0,0,1-3.7.664,5.18,5.18,0,0,0-.094,1.016,1.806,1.806,0,0,0,.32,1.191,1.316,1.316,0,0,0,1.047.371,2.706,2.706,0,0,0,1.3-.312,5.434,5.434,0,0,0,1.23-.961Zm-4.156-2.477a8.37,8.37,0,0,0,1.891-.2,2.53,2.53,0,0,0,1.211-.609,1.518,1.518,0,0,0,.422-1.129,1.138,1.138,0,0,0-.223-.746.807.807,0,0,0-.66-.27,2.084,2.084,0,0,0-1.52.8A5.309,5.309,0,0,0,19.949,17.969Zm9.023-1.555a6.511,6.511,0,0,1,1.473-1.523,2.515,2.515,0,0,1,1.434-.484,4.445,4.445,0,0,1,.953.086l-.375,1.75h-.8a1.808,1.808,0,0,0-.133-.508.563.563,0,0,0-.2-.25.569.569,0,0,0-.3-.07,1.067,1.067,0,0,0-.613.242,4.2,4.2,0,0,0-.746.758,6.006,6.006,0,0,0-.66.992,5.079,5.079,0,0,0-.41,1.211L27.848,22H26.5l1.133-4.953a7.315,7.315,0,0,0,.141-.727,3.686,3.686,0,0,0,.031-.43.787.787,0,0,0-.1-.453.368.368,0,0,0-.32-.141.874.874,0,0,0-.512.2,5.607,5.607,0,0,0-.738.723l-.445-.437a7.51,7.51,0,0,1,1.2-1.066,1.916,1.916,0,0,1,1.07-.316.982.982,0,0,1,.777.324,1.236,1.236,0,0,1,.285.848,2.378,2.378,0,0,1-.148.8ZM39,16.43a1.71,1.71,0,0,0-.457-1.055,1.629,1.629,0,0,0-1.168-.359,1.519,1.519,0,0,0-1,.316,1.027,1.027,0,0,0-.383.832,1.188,1.188,0,0,0,.1.5,1.5,1.5,0,0,0,.395.473,6.87,6.87,0,0,0,.922.633,6.6,6.6,0,0,1,.789.543,2.618,2.618,0,0,1,.469.488,1.7,1.7,0,0,1,.25.512,2.368,2.368,0,0,1,.078.652,1.933,1.933,0,0,1-.371,1.191,2.2,2.2,0,0,1-1.008.738,4.055,4.055,0,0,1-1.449.242,8.237,8.237,0,0,1-1.273-.1A10.165,10.165,0,0,1,33.5,21.7l.375-1.7h.609a1.618,1.618,0,0,0,.422,1.133,1.722,1.722,0,0,0,1.242.383,1.82,1.82,0,0,0,1.16-.332,1.133,1.133,0,0,0,.418-.941,1.435,1.435,0,0,0-.117-.605,1.5,1.5,0,0,0-.383-.488,6.286,6.286,0,0,0-.844-.586,6.85,6.85,0,0,1-.949-.664,2.093,2.093,0,0,1-.512-.645,1.784,1.784,0,0,1-.172-.8,1.813,1.813,0,0,1,.332-1.082,2.1,2.1,0,0,1,.949-.715,3.811,3.811,0,0,1,1.438-.25,9.348,9.348,0,0,1,1.324.086,6.181,6.181,0,0,1,1.191.3l-.352,1.641Zm4.906,5.7a2.515,2.515,0,0,1-1.879-.68,2.671,2.671,0,0,1-.668-1.953,6.588,6.588,0,0,1,.188-1.445,5.411,5.411,0,0,1,.813-1.937,3.916,3.916,0,0,1,1.406-1.27,3.871,3.871,0,0,1,1.836-.441,2.521,2.521,0,0,1,1.906.684,2.715,2.715,0,0,1,.656,1.957,6.62,6.62,0,0,1-.316,1.938,5.308,5.308,0,0,1-.867,1.734,3.568,3.568,0,0,1-1.316,1.059A4.131,4.131,0,0,1,43.91,22.133Zm-1.18-2.3a1.9,1.9,0,0,0,.355,1.27,1.345,1.345,0,0,0,1.074.41,1.761,1.761,0,0,0,1.359-.687,4.943,4.943,0,0,0,.938-1.926,8.276,8.276,0,0,0,.344-2.176,2.059,2.059,0,0,0-.328-1.27,1.21,1.21,0,0,0-1.023-.426,1.846,1.846,0,0,0-1.418.68,4.814,4.814,0,0,0-.953,1.945A8.426,8.426,0,0,0,42.73,19.836Zm8.43-2.789a5.6,5.6,0,0,0,.172-1.156.787.787,0,0,0-.1-.453.368.368,0,0,0-.32-.141.874.874,0,0,0-.512.2,5.607,5.607,0,0,0-.738.723l-.445-.437a7.756,7.756,0,0,1,1.2-1.066,1.905,1.905,0,0,1,1.078-.316.982.982,0,0,1,.777.324,1.236,1.236,0,0,1,.285.848,2.689,2.689,0,0,1-.187.922l.094.031a7.228,7.228,0,0,1,1.457-1.6,2.348,2.348,0,0,1,1.426-.52,1.454,1.454,0,0,1,1.117.418,1.633,1.633,0,0,1,.391,1.16,6.238,6.238,0,0,1-.227,1.4l-.508,2.047a5.873,5.873,0,0,0-.211,1.2.787.787,0,0,0,.1.453.368.368,0,0,0,.32.141.869.869,0,0,0,.5-.191,5.49,5.49,0,0,0,.75-.73l.445.438a7.068,7.068,0,0,1-1.172,1.051,2.015,2.015,0,0,1-1.141.332,1.007,1.007,0,0,1-.812-.363,1.391,1.391,0,0,1-.3-.926,6.463,6.463,0,0,1,.258-1.492l.344-1.352q.188-.734.246-1.086a3.628,3.628,0,0,0,.059-.57,1.31,1.31,0,0,0-.18-.777.687.687,0,0,0-.586-.238,1.266,1.266,0,0,0-.707.262,4.031,4.031,0,0,0-.8.789,6.192,6.192,0,0,0-.684,1.023,5.1,5.1,0,0,0-.422,1.223L51.371,22H50.02Zm13.758-2.133.719-.516.5.125-1.148,4.953a5.5,5.5,0,0,0-.172,1.156.787.787,0,0,0,.1.453.368.368,0,0,0,.32.141.869.869,0,0,0,.5-.191,5.49,5.49,0,0,0,.75-.73l.445.438a6.8,6.8,0,0,1-1.2,1.066,1.96,1.96,0,0,1-1.074.316.991.991,0,0,1-.773-.32,1.223,1.223,0,0,1-.289-.852,2.632,2.632,0,0,1,.18-.914l-.1-.031a6.889,6.889,0,0,1-1.422,1.6,2.32,2.32,0,0,1-1.422.508,1.552,1.552,0,0,1-1.332-.648,3.046,3.046,0,0,1-.473-1.82,6.524,6.524,0,0,1,.527-2.582A4.776,4.776,0,0,1,61,15.113a3.271,3.271,0,0,1,2.055-.715,3.809,3.809,0,0,1,.949.113A3.318,3.318,0,0,1,64.918,14.914Zm-.687,2.328a4.931,4.931,0,0,0,.094-.555q.023-.234.023-.508a1.277,1.277,0,0,0-.258-.883,1.145,1.145,0,0,0-.875-.281,1.985,1.985,0,0,0-1.445.648,4.377,4.377,0,0,0-1,1.738,6.913,6.913,0,0,0-.359,2.176,2.585,2.585,0,0,0,.223,1.215.784.784,0,0,0,.746.4,1.515,1.515,0,0,0,1.012-.445,6.2,6.2,0,0,0,1.023-1.27,5.537,5.537,0,0,0,.746-1.9Zm8.781-.812a1.71,1.71,0,0,0-.457-1.055,1.629,1.629,0,0,0-1.168-.359,1.519,1.519,0,0,0-1,.316,1.027,1.027,0,0,0-.383.832,1.188,1.188,0,0,0,.1.5,1.5,1.5,0,0,0,.395.473,6.87,6.87,0,0,0,.922.633,6.6,6.6,0,0,1,.789.543,2.619,2.619,0,0,1,.469.488,1.7,1.7,0,0,1,.25.512,2.367,2.367,0,0,1,.078.652,1.933,1.933,0,0,1-.371,1.191,2.2,2.2,0,0,1-1.008.738,4.055,4.055,0,0,1-1.449.242,8.237,8.237,0,0,1-1.273-.1,10.165,10.165,0,0,1-1.391-.332l.375-1.7H68.5a1.618,1.618,0,0,0,.422,1.133,1.722,1.722,0,0,0,1.242.383,1.82,1.82,0,0,0,1.16-.332,1.133,1.133,0,0,0,.418-.941,1.435,1.435,0,0,0-.117-.605,1.5,1.5,0,0,0-.383-.488,6.286,6.286,0,0,0-.844-.586,6.85,6.85,0,0,1-.949-.664,2.093,2.093,0,0,1-.512-.645,1.784,1.784,0,0,1-.172-.8,1.813,1.813,0,0,1,.332-1.082,2.1,2.1,0,0,1,.949-.715,3.811,3.811,0,0,1,1.438-.25,9.348,9.348,0,0,1,1.324.086,6.181,6.181,0,0,1,1.191.3l-.352,1.641Z" transform="translate(7025 -2399)" fill="#12263f"/>
    <path id="Trazado_706179" data-name="Trazado 706179" d="M0,0H152" transform="translate(6950.5 -2392.5)" fill="none" stroke="#12263f" stroke-width="1"/>
  </g>
</svg>
